<?xml version="1.0" encoding="utf-8"?>
<!-- Generator: Adobe Illustrator 24.0.0, SVG Export Plug-In . SVG Version: 6.00 Build 0)  -->
<svg version="1.1" id="_x3C_Layer_x3E_" xmlns="http://www.w3.org/2000/svg" xmlns:xlink="http://www.w3.org/1999/xlink" x="0px"
	 y="0px" viewBox="0 0 522.9 576.3" style="enable-background:new 0 0 522.9 576.3;" xml:space="preserve">
<style type="text/css">
	.st0{clip-path:url(#SVGID_2_);}
	.st1{fill:#FCF4EA;}
	.st2{fill:#E2E5FD;}
	.st3{fill:#9298C4;}
	.st4{fill:#777EB5;}
	.st5{fill:#ADB2D3;}
	.st6{fill:#C5CCFC;}
	.st7{fill:#54688B;}
	.st8{fill:#333643;}
	.st9{fill:#4C5063;}
	.st10{fill:#1B2E96;}
	.st11{fill:#7C8BDE;}
	.st12{fill:#6A0084;}
	.st13{fill:#7D87B7;}
	.st14{fill:#FF8D8D;}
	.st15{fill:#979FC5;}
	.st16{fill:#5D68A7;}
	.st17{fill:#F98A8A;}
	.st18{fill:#EA7373;}
	.st19{fill:#D86666;}
	.st20{fill:#B8B8E0;}
	.st21{fill:#777CAA;}
	.st22{fill:#F2B90C;}
	.st23{fill:#B65F2E;}
	.st24{fill:#F7931E;}
	.st25{fill:#591914;}
	.st26{fill:#B96E16;}
	.st27{fill:#F8E000;}
	.st28{fill:#3C1709;}
	.st29{fill:#363A68;}
	.st30{fill:#260E0D;}
	.st31{fill:#2F1954;}
	.st32{fill:#0E0E0E;}
	.st33{fill:#F1A97E;}
	.st34{fill:#FC7575;}
	.st35{fill:#FD5E5A;}
	.st36{fill:#121841;}
	.st37{fill:#555DA2;}
	.st38{fill:#1E3340;}
	.st39{fill:#F47B50;}
	.st40{fill:#B5441B;}
	.st41{fill:#F15A24;}
	.st42{fill:#792D12;}
	.st43{fill:#6F81A6;}
	.st44{fill:#6E0054;}
	.st45{fill:#464F7C;}
	.st46{fill:#5D69A5;}
	.st47{fill:#C20095;}
	.st48{fill:#F992E1;}
	.st49{fill:#D6E9FA;}
	.st50{fill:#99C8F2;}
	.st51{fill:#220D58;}
	.st52{fill:#2D1175;}
	.st53{fill:#494C62;}
	.st54{fill:#252631;}
	.st55{fill:#384153;}
	.st56{fill:#F27F3D;}
	.st57{fill:#13232D;}
	.st58{fill:#53260D;}
	.st59{opacity:0.42;fill:#FFDA88;}
</style>
<g>
	<defs>
		<rect id="SVGID_1_" width="522.9" height="576.3"/>
	</defs>
	<clipPath id="SVGID_2_">
		<use xlink:href="#SVGID_1_"  style="overflow:visible;"/>
	</clipPath>
	<g class="st0">
		<path class="st1" d="M70.2,550.3c0,0,96.4-195.2,273.5-240.1c94.1-23.9,133.9-122.9,205.8-137.8c71.9-15,95.3,118.5,107.9,220.9
			c12.5,102.4-6.8,160.7-6.8,160.7L70.2,550.3z"/>
		<polygon class="st2" points="68.2,538.8 68.2,338.6 131.3,338.6 131.3,175 208.7,175 208.7,280.6 280.3,280.6 280.3,456.9 
			360.4,456.9 360.4,329.4 434,329.4 434,551.1 68.2,551.1 		"/>
		<g>
			<g>
				<path class="st3" d="M208.4,404.5v16.4H453v-16.4H208.4z M227.6,417h-8.7c-1.9,0-3.4-1.5-3.4-3.4c0-1.9,1.5-3.4,3.4-3.4h8.7
					c1.9,0,3.4,1.5,3.4,3.4C230.9,415.5,229.4,417,227.6,417z M251.6,417h-8.7c-1.9,0-3.4-1.5-3.4-3.4c0-1.9,1.5-3.4,3.4-3.4h8.7
					c1.9,0,3.4,1.5,3.4,3.4C254.9,415.5,253.4,417,251.6,417z M275.6,417h-8.7c-1.9,0-3.4-1.5-3.4-3.4c0-1.9,1.5-3.4,3.4-3.4h8.7
					c1.9,0,3.4,1.5,3.4,3.4C278.9,415.5,277.4,417,275.6,417z M299.6,417h-8.7c-1.9,0-3.4-1.5-3.4-3.4c0-1.9,1.5-3.4,3.4-3.4h8.7
					c1.9,0,3.4,1.5,3.4,3.4C302.9,415.5,301.4,417,299.6,417z M323.6,417h-8.7c-1.9,0-3.4-1.5-3.4-3.4c0-1.9,1.5-3.4,3.4-3.4h8.7
					c1.9,0,3.4,1.5,3.4,3.4C326.9,415.5,325.4,417,323.6,417z M417.7,417H409c-1.9,0-3.4-1.5-3.4-3.4c0-1.9,1.5-3.4,3.4-3.4h8.7
					c1.9,0,3.4,1.5,3.4,3.4C421,415.5,419.5,417,417.7,417z M441.7,417H433c-1.9,0-3.4-1.5-3.4-3.4c0-1.9,1.5-3.4,3.4-3.4h8.7
					c1.9,0,3.4,1.5,3.4,3.4C445,415.5,443.5,417,441.7,417z"/>
				<rect x="208.4" y="404.5" class="st4" width="244.6" height="2.3"/>
				<rect x="197.3" y="395.6" class="st3" width="263.1" height="8.9"/>
				<rect x="199" y="420.8" class="st3" width="261.5" height="9.1"/>
				<rect x="199" y="420.8" class="st5" width="261.5" height="2.1"/>
			</g>
			<rect x="87.7" y="427.7" class="st6" width="218.7" height="130.5"/>
			<rect x="239.8" y="427.7" class="st2" width="66.6" height="130.5"/>
			<rect x="357.6" y="427.7" class="st6" width="191.2" height="130.5"/>
			<rect x="460.5" y="427.7" class="st2" width="88.3" height="130.5"/>
		</g>
		<path class="st7" d="M657.2,558.2c0,9.9-143-4.9-318.2,9c-197.6,15.7-330.8,10-318.2-9c5.5-8.3,142-22.5,317.8-22.5
			S657.2,548.3,657.2,558.2z"/>
		<g>
			<polygon class="st8" points="265.3,367.3 212.3,385.6 229.6,267.9 			"/>
			<path class="st9" d="M249,531.5l-3.2,16.1c0,0,34.4,2.5,34.4,1c0-1.5-18-6.2-20.1-8.3c-3-3-1.9-6-1.9-6L249,531.5z"/>
			<polygon class="st10" points="273.8,342.9 273.8,378.5 262,535.8 244.9,534.1 243.1,430.5 252.7,341.1 			"/>
			<path class="st9" d="M227.4,533.8c0,0,2,7.5,2,12.9c0,5.4,17,20.7,20.4,17.3c3.4-3.4-9-28.3-9-28.3l-0.8-4.2L227.4,533.8z"/>
			<path class="st11" d="M267,341.1l-4.1,35.8c0,0-26.7,127.7-19,160.5h-20.4L219.1,381l9.8-37.6L267,341.1z"/>
			<path class="st12" d="M260,245.5c0,0,13.7,23.2,13.7,34.5c0,11.3,5,55.4,0,71.6c-4.1,13.1-28.9,16.4-50.9-5.6
				c-8.1-8.1,8.8-45.1,8.8-45.1l-12.6-56l22.1-7.1C241.2,237.7,249.9,252.7,260,245.5z"/>
			<polygon class="st13" points="231.6,240.8 219.1,244.8 217.1,310.6 199.1,376.8 212.3,385.6 248,324.2 243.6,269 			"/>
			<path class="st13" d="M273.1,258.4L260,245.5c0,0,12.5,27.9,12.5,40.7c0,12.8,1.2,76.9,1.2,76.9s6.3-18.2,6.3-35.5
				C280,310.3,273.1,258.4,273.1,258.4z"/>
			<polygon class="st14" points="226.1,368 226.1,377.8 235.3,376 238.8,372.9 235.3,363.7 			"/>
			<path class="st15" d="M219.1,244.8c0,0-7.6-0.7-11.5,9.4c-3.9,10.1-3.1,68.8-3.1,68.8l19,48.9l11.7-8.2c0,0-8.5-33.9-6.9-51.4
				C230,294.9,219.1,244.8,219.1,244.8z"/>
			<path class="st16" d="M223.5,376.8c0,0,16.9-4.8,22.9-10.7c0,0-8.3,9.8-13.4,12.2C228,380.7,223.5,376.8,223.5,376.8z"/>
			<g>
				<path class="st17" d="M240.2,201.8c-0.9-5.5,4.5-9.6,10-10.3c5.5-0.6,10.8-1.4,13.2,1.7c5.8,7.3,1.1,23.4,1.1,23.4
					s-2.6,7.6-10,8.7C249.3,226.1,241.8,212.1,240.2,201.8z"/>
				<path class="st18" d="M237.3,218.1c0,0,2.3,21.2,3.9,26.5c1.5,5.2,20.4,7.9,19.7,2.9c-0.5-3.9-4.7-20.3-4.7-20.3L237.3,218.1z"
					/>
				<path class="st19" d="M239.1,232.6c0.2-0.1,0.4-0.2,0.4-0.2c1.6-2.4,2.7-10.2,2.7-10.2s2.2,7.4,2.8,11.6
					c0.4,2.7,5.5,3.7,10.3,3.9c0.6-1.1,1-2.5,1.2-3.7c0.1,1.2,0,2.5-0.3,3.7c0.9,0,1.7,0,2.5,0c-1.3-5.3-2.6-10.5-2.6-10.5
					l-18.9-9.1C237.3,218.1,238.1,225.5,239.1,232.6z"/>
				<path class="st20" d="M264.1,227.1c0.6,0.9,1.6,2.2,2.7,2.9c1.4-2.3,1.9-5.1,1.6-7.4c-0.6-4-3.4-5.8-3.7-7.3c0,0-0.3,3.5-5,5
					c-4.6,1.4-9-1.6-11.1-3.1c-2.1-1.5-4.7-2.9-5.1-5.8c-0.5-2.9-2.6-14.4-2.6-14.4s-0.8-1.9-5.5,1.5c-4.7,3.4-3.8,5.2-4.1,9.3
					c-0.2,4,1.4,6.7-1.7,8.3c-3,1.5-5.8,6.8-2.6,11.4c3.2,4.7,10.1,4.2,11.8,2c1.7-2.3,3.1-8.5,3.1-8.5s1.8,5.8,2.4,9.7
					c0.4,2.4,5.4,3.3,10.3,3.4c0.6-1,1-2.3,1.2-3.4c0,1.1,0,2.3-0.3,3.4c2.4,0,4.7-0.1,6.3-0.4c1.4-0.2,2.7-1,3.7-2
					C264.8,230.3,264.3,228.7,264.1,227.1z"/>
				<path class="st21" d="M235,198.3c-4.4,2.9-4.1,5.2-4.2,8.8c-0.4,5.2,1.3,6.8-1.6,8.3c-6.5,4-5.1,14.7,3.7,15.9
					c2.2,0.2,4.8-0.1,6.2-1.9c-1.6,1.5-4.1,1.5-6.1,1.1c-7.3-1.6-8.4-10.6-3-13.7c3.8-1.7,2.1-5.1,2.3-9.6c0.1-3.3-0.8-5.1,3.3-8.2
					c1.4-1.2,4.3-3.4,5.6-2C240,195.3,236.7,197.2,235,198.3z"/>
				<path class="st17" d="M245.4,207.5c0,0-1.8-1.8-4.4-0.8c-2.6,1,0.5,7.6,2.9,7.2C246.2,213.6,245.4,207.5,245.4,207.5z"/>
				<path class="st19" d="M243.2,208.3c0,0-1.9-1.2-2,0.1c-0.2,1.3,1.1,3.8,2.3,3.8C244.7,212.2,243.2,208.3,243.2,208.3z"/>
			</g>
			<path class="st15" d="M239.7,236.7l-12.9,3.5l7,23.5l-2.4,5l16.5,55.7c0,0-2.1-42.3-2.7-56.1
				C244.6,254.3,239.7,236.7,239.7,236.7z"/>
			<path class="st22" d="M241.8,179.6c0,0.1,1.5,13.4,1.5,13.2c5.3-0.5,12.7-0.6,18-0.6c-0.3-2.3-0.7-5.8-2.4-7.6
				c-2.3-2.3-6.4-6.2-10.4-6.5C245.1,177.9,243.4,179,241.8,179.6z"/>
			<path class="st22" d="M242.4,179.3c0,0.1,1.6,13.7,1.6,13.5c5.6-0.5,15.7-1.1,21.3-1.1c-0.3-2.2-1-4.5-2.1-6.5
				c-1.3-2.5-3.9-4.5-6.3-5.8c-2.3-1.3-4.9-1.9-7.6-1.7c-2.1,0.1-4.2,0.6-6.2,1.3C242.6,179.2,242.4,179.3,242.4,179.3z"/>
			<path class="st23" d="M239,179.8l2.6,13.2c0.2,0,7.2-0.8,17-0.8c0-3.3-0.2-7.1-2.4-9.8c-2.1-2.6-5.5-4.3-8.8-4.3
				c-1.5,0-3,0.3-4.4,0.9C241.7,179.1,240.1,179.5,239,179.8z"/>
			<path class="st24" d="M229.6,198c3.5-5.5,19-5.7,25.8-5.7c0.1-1.8,0.5-6.2-0.7-8.3c-4.4-7.6-20.5-6.9-24.6,3.9
				C229.3,190.2,229.4,195.2,229.6,198z"/>
			<g>
				<path class="st25" d="M237.7,183.9C237.7,183.9,237.7,183.9,237.7,183.9l2.4-0.6c0.1,0,0.2-0.1,0.1-0.2c0-0.1-0.1-0.2-0.2-0.1
					l-2.4,0.6c-0.1,0-0.2,0.1-0.1,0.2C237.6,183.9,237.6,183.9,237.7,183.9z"/>
			</g>
			<g>
				<path class="st25" d="M238,185.3C238,185.3,238,185.3,238,185.3l2.2-0.6c0.1,0,0.2-0.1,0.1-0.2c0-0.1-0.1-0.1-0.2-0.1l-2.2,0.6
					c-0.1,0-0.2,0.1-0.1,0.2C237.8,185.3,237.9,185.3,238,185.3z"/>
			</g>
			<g>
				<path class="st25" d="M232.5,185.9C232.5,185.9,232.5,185.9,232.5,185.9l2.3-0.9c0.1,0,0.1-0.1,0.1-0.2c0-0.1-0.1-0.1-0.2-0.1
					l-2.2,0.9c-0.1,0-0.1,0.1-0.1,0.2C232.4,185.8,232.4,185.9,232.5,185.9z"/>
			</g>
			<g>
				<path class="st25" d="M232.5,187C232.5,187,232.5,187,232.5,187l2.3-0.8c0.1,0,0.1-0.1,0.1-0.2c0-0.1-0.1-0.1-0.2-0.1l-2.2,0.8
					c-0.1,0-0.1,0.1-0.1,0.2C232.4,186.9,232.4,187,232.5,187z"/>
			</g>
			<g>
				<path class="st25" d="M235.7,184.8c0,0.3,0.2,0.5,0.5,0.5c0.3,0,0.5-0.2,0.5-0.5c0-0.3-0.2-0.5-0.5-0.5
					C235.9,184.3,235.7,184.5,235.7,184.8z"/>
			</g>
			<path class="st26" d="M229.6,198L229.6,198c3.4-5.5,17.8-5.6,24.5-5.7c3.7-0.1,14.9-1.3,14.9,1.9c0,1.2-1.5,2.1-3.8,2.7
				c-0.2-0.5-1.5-1-2.5-1c-8.1,0.1-21.9,0.6-29.1,4.2c-1.1,0.6-2.3,2.3-2.6,3.6C227.9,202.8,228.4,199.9,229.6,198z"/>
			<path class="st27" d="M229.4,197.8c4.6-8.1,36.7-8.9,40.5-5.5c1.6,1.4-0.4,3.5-4.1,4.5c1.7-0.7,2.5-1.3,2.8-1.8
				c3.1-4.9-26.8-2.4-34.2,0.2c-1.7,0.6-3.3,1.5-4.4,2.9v0c-0.1,0.1-1.6,2.8-0.5,4.7C227,201.3,229.4,197.8,229.4,197.8z"/>
		</g>
		<g>
			<path class="st28" d="M180.9,215.8c0,0-11.9,5.4-20.6,7.7c-8.6,2.3-10.7,4.7-12.2,4.2c-1.6-0.5,2.7-7.2,2.7-7.2l15.8-8.2
				l13.5-2.3L180.9,215.8z"/>
			<path class="st29" d="M189.8,277c0,0,3.2,18.6,13.1,31.1c7.4,9.4,23,19.8,23,19.8l-8.8,9.5l-24.3-19.7L189.8,277z"/>
			<polygon class="st30" points="176.4,259.6 156.9,259.6 157.5,322.5 183.5,324.2 			"/>
			<path class="st30" d="M198.3,560.7c11,0,10.7,4.4,10.7,4.4h-32.2c0,0,1.6-13.6,1.8-16.8h7.6C187.1,552.3,189.9,560.7,198.3,560.7
				z"/>
			<path class="st30" d="M144.5,562.4c10,0,12.1-11.9,12.3-14h7.2c0,0.6,0,0.9,0,1c0,1.5,1.9,17.4,1.9,17.4s-8,0-13.4,0
				c-5.4,0-18.8,0-18.8,0S133.5,562.4,144.5,562.4z"/>
			<path class="st31" d="M147.4,476.8l-10.3-85.1l2.9-25.2h56.5l0.4,22.2l5.9,86.4c0,0-14.8,72-14.5,73.1h-10.7c0-0.3,3-78.9,3-78.9
				l-12.2-70.1l-4.8,73.5c0,0,2.2,66.3,2.2,75.4h-10C155.9,548.1,147.4,476.8,147.4,476.8z"/>
			<path class="st32" d="M139.6,369.9l0.4-3.3h56.5l0.1,2.9l-11.9,4c-9.7,3.2-20,3.5-29.8,0.7L139.6,369.9z"/>
			<path class="st33" d="M136.1,276.3c6.1-6.8,20.4-17.6,36.1-15l16.4,7.1l4.8,34.6l4.3,66l-58.4,0.7l-5.6-64.2
				C133.7,305.6,129.9,283.1,136.1,276.3z"/>
			<path class="st34" d="M174.2,245.9c0,0,0.2,13.5,1.5,20.4c0.5,2.7-0.7,5.4-3,6.4c-1.7,0.7-4,1.1-6.8,0.6
				c-7.4-1.4-7.6-9.5-7.6-9.5l2.5-24.7L174.2,245.9z"/>
			<path class="st35" d="M160.7,239.1l13.5,6.7c0,0,0.1,5,0.4,10.5c-3.5,0.2-7.9-1.8-12.6-7.7c-0.7-0.9-1.3-1.7-2-2.6L160.7,239.1z"
				/>
			<path class="st34" d="M173.3,211.2c0,0,4.6,3.8,6.6,10.3c2,6.4,3.7,11.1,3.7,11.1l-2.1,1.4c0,0,1.7,9,0.4,12.1
				c-2,4.7-10.4,8.4-19.9-2.1c-9.5-10.5-10.3-19.7-8.7-24.3C154.8,215.1,169.5,208.8,173.3,211.2z"/>
			<path class="st36" d="M179.9,216c-7.5-2.8-3.3-10.1-23-4.7c-1,1-2.1,1.8-3.4,2.1c-3.6,0.7-3.2,8.6-3.2,8.6s-2.1,1.6-0.6,7.4
				c1.5,5.8,10.3,14.6,10.3,17.3c0,0,2.1-3.5,0.4-9.1c-1.7-5.6-1.7-8.9,0.1-8.9s-1.5-7.5-1.5-7.5s4.2-3.8,10.3-2.2
				c6.1,1.6,8.2-0.9,7-2.2C176.3,216.8,178,216.8,179.9,216z"/>
			<path class="st34" d="M161.6,232.5c0,0-0.6-4.7-2-4.7c-1.4,0-2.6,0.5-2.3,3.2c0.3,2.7,1.7,5.7,3.5,4.4
				C162.7,234.1,161.6,232.5,161.6,232.5z"/>
			<path class="st37" d="M178.4,262l4.4,128.1h27.1l-8-58.2l-5.2-35.4c0,0-2.5-23.8-8.1-28C183,264.3,178.4,262,178.4,262z"/>
			<path class="st35" d="M160.7,230.5c0,0-0.8-1.6-1.5-1.4c-0.7,0.2-0.9,3.4,0.4,4.8C160.9,235.3,162,233.1,160.7,230.5z"/>
			<path class="st37" d="M156.6,261.3l2.9,128.8h-29c0,0-1.1-102,2.1-112.7C135.8,266.7,156.6,261.3,156.6,261.3z"/>
			<polygon class="st4" points="188.9,266.8 176.4,259.6 180.5,323 187.3,287.2 184.9,285.6 			"/>
			<polygon class="st4" points="158,323.9 156.9,259.6 145.8,264.6 151.8,285.5 150.3,286.7 			"/>
			<polygon class="st38" points="209,341.4 249.3,311.3 206.7,307.4 174.4,341.4 			"/>
			<path class="st34" d="M186.6,328.6c0,0-4.4,1-6,2.7c-2.1,2.2-7,5.8-9,5.8c-2.1,0-10.8,0.9-10.8,0.9l-1.5,9.6
				c0,0,32.7-7.5,34.2-9.1c1.5-1.6-7.7,1.2-7.7,0.5c0-0.7,11.1-1.6,10.5-3.4c-0.6-1.9-10.2,2.5-11.1,1.6c-0.9-0.9,11.7-2.4,11.7-4.4
				c0-2-12.5,2.8-12.5,2.8s-0.2-1,3.1-2.6c3.4-1.6,6.6-2.9,5.9-3.7c-0.7-0.8-9.4,4.3-10.5,3.1L186.6,328.6z"/>
			<path class="st4" d="M140.6,274.9c0,0,4.8,8.7,3.8,21.2c-0.9,12.5-2.6,31.7,0.1,38c2.7,6.3,22.2,0,22.2,0v14.8
				c0,0-28.3,11.5-36.5,7.7c-8.2-3.8-7.4-36.1-7.4-52C122.8,288.8,135.3,263.5,140.6,274.9z"/>
			<path class="st3" d="M140.6,274.9c2.3,5,3.9,12.5,3.4,20.2c-0.9,11.7-3.7,37,1.4,40.8c4.9,3,16,0,21.2-1.8
				c-5.2,1.4-19.8,4.8-21.7-0.2c-1.6-4-1.4-13.6-1.2-17.9c0.6-18.5,2.9-25-1.1-36.3C142.1,278,141.4,276.4,140.6,274.9z"/>
			<path class="st34" d="M220.9,328.2c0,0,0.6,0.7,1.5,2.8c0.9,2.1-1.6,4.2-2,4.6c-0.9,0.8-2.5,2-3.6,2.6c-1,0.6-1.7,0.9-2.6,1.1
				c-1.4,0.3-4.7-4.8-4.2-5.3c0.3-0.3,0.7-0.6,1-0.5c0.4,0.1,3.9,2.9,3.9,2.9s-3.2-4-2.9-5.2c0.4-1.2,1.1-1.1,1.3-0.7
				c0.3,0.3,4.4,4.1,4.4,4.1s-2.8-4.8-2.5-5.6c0.2-0.8,1.4-1.3,2.6,0.6c0.7,1.1,2.6,2.9,2.6,2.9s-1.6-3.6-1.2-4.8
				C219.5,326.5,220.9,328.2,220.9,328.2z"/>
			<path class="st22" d="M155.1,202.4c0,0.1,3.5,13,3.5,12.8c5.2-1.3,12.4-2.5,17.7-3.3c-0.6-2.2-1.6-5.7-3.6-7.1
				c-2.7-2-7.3-5.1-11.3-4.9C158.1,200.2,156.6,201.6,155.1,202.4z"/>
			<path class="st39" d="M155.6,202c0,0.1,3.7,13.3,3.7,13.1c5.5-1.3,15.3-3.5,20.9-4.3c-0.6-2.2-1.7-4.3-3-6.2
				c-1.7-2.3-4.5-3.9-7.1-4.8c-2.5-0.9-5.1-1.1-7.7-0.5c-2.1,0.4-4.1,1.3-6,2.3C155.8,201.8,155.6,202,155.6,202z"/>
			<path class="st40" d="M152.4,203l4.6,12.7c0.1,0,7-1.9,16.7-3.4c-0.5-3.3-1.3-7-3.8-9.3c-2.4-2.3-6.1-3.5-9.3-2.9
				c-1.5,0.2-2.9,0.8-4.2,1.5C154.9,201.9,153.4,202.5,152.4,203z"/>
			<path class="st41" d="M146.8,225.7c2.7-5.9,16.9-11.7,23.7-12.8c-0.2-1.7-0.5-6.2-2-8.1c-5.5-6.9-21.3-3.7-23.7,7.6
				C144.3,214.8,145.2,222.9,146.8,225.7z"/>
			<g>
				<path class="st25" d="M151.7,207.3C151.7,207.3,151.7,207.3,151.7,207.3l2.3-1c0.1,0,0.1-0.1,0.1-0.2c0-0.1-0.1-0.1-0.2-0.1
					l-2.3,1c-0.1,0-0.1,0.1-0.1,0.2C151.5,207.3,151.6,207.3,151.7,207.3z"/>
			</g>
			<g>
				<path class="st25" d="M152.1,208.6C152.2,208.6,152.2,208.6,152.1,208.6l2.1-0.9c0.1,0,0.1-0.1,0.1-0.2c0-0.1-0.1-0.1-0.2-0.1
					l-2,0.9c-0.1,0-0.1,0.1-0.1,0.2C152,208.6,152.1,208.6,152.1,208.6z"/>
			</g>
			<g>
				<path class="st25" d="M146.8,210C146.9,210,146.9,210,146.8,210l2.1-1.2c0.1,0,0.1-0.2,0.1-0.2c0-0.1-0.2-0.1-0.2-0.1l-2.1,1.2
					c-0.1,0-0.1,0.2-0.1,0.2C146.7,210,146.8,210,146.8,210z"/>
			</g>
			<g>
				<path class="st25" d="M147,211.1C147,211.1,147,211.1,147,211.1l2.1-1.1c0.1,0,0.1-0.2,0.1-0.2c0-0.1-0.2-0.1-0.2-0.1l-2.1,1.1
					c-0.1,0-0.1,0.2-0.1,0.2C146.9,211.1,146.9,211.1,147,211.1z"/>
			</g>
			<g>
				<path class="st25" d="M149.8,208.5c0,0.3,0.3,0.4,0.5,0.4c0.3,0,0.4-0.3,0.4-0.5c0-0.3-0.3-0.4-0.6-0.4
					C150,207.9,149.8,208.2,149.8,208.5z"/>
			</g>
			<path class="st42" d="M175.9,207.9c-6.7,1.2-22.3,5.6-28.3,15.5c0,0-2.8,4.1,0.4,4.4c0.1-1.3,1-3.2,2-3.9
				c6.6-4.7,17.8-10.2,28.1-8.6c1,0.2,2.4,0.1,2.6,0.6c2.2-0.9,3.5-1.9,4.4-2.8C188.3,210,188.2,205.7,175.9,207.9z"/>
			<path class="st22" d="M185.3,213.1c1.2-1.3,2.3-3.1,1.1-4.4c-1-1.1-3.3-1.1-4.7-1.2c-5.4-0.2-11.4,1.8-16.4,3.8
				c-14.6,5.5-21.9,15.9-17.1,16.5c-4.4-0.4,1.2-7.6,4.8-10.6c10.6-8.7,35-14.2,34.1-7C186.9,211.4,186.1,212.3,185.3,213.1z"/>
		</g>
		<g>
			<path class="st43" d="M382,338.8l53.9-62.6c0,0,3.5-2.6-6.1-7.7c-9.6-5.1-15.7,0-15.7,0s-46.1,69.4-43.7,69.4
				C372.7,337.9,382,338.8,382,338.8z"/>
			<path class="st44" d="M366.9,228.7c0,0,15.3,68.8,35,77.5l-13.1,11c0,0-15.8-8.8-26.6-28.7C351.5,268.5,366.9,228.7,366.9,228.7z
				"/>
			<path class="st9" d="M342.6,527.1l-1.9,13c0,0,7.7,0,13,0c5.3,0,20,0,20,0s-1.1-3.2-10.7-5.1c-9.6-1.9-10.7-5.5-10.7-5.5l1.4-8.1
				l-8.7-1.3L342.6,527.1z"/>
			<polygon class="st45" points="328.7,378.2 348.2,446.8 341.1,529.5 353.7,529.5 370.9,442.1 353.7,342 			"/>
			<path class="st9" d="M308.5,525.8l-1.3,7c0,0,3.3,10.8,8.3,15.8c5,5,15.8,5.3,15.8,1.1c0-4.3-11.2-17.5-11.2-22.6
				C320.1,522,308.5,525.8,308.5,525.8z"/>
			<path class="st46" d="M353.7,339.3l-13.5,41.4c0,0-15.9,55.9-18.8,89.5c-2.9,33.7,0,56.7,0,56.7l-15.9,2.6c0,0-9.2-69.9-5.8-93.4
				c3.4-23.5-0.8-80.6-0.8-80.6l6.5-16.2H353.7z"/>
			<polygon class="st47" points="319.1,306.1 299,344.2 354.2,345.1 362.2,312.2 			"/>
			<path class="st47" d="M366.9,228.7c0,0-33.7-7-51.3-5c-9.7,1.1-12.5,2.4-12.5,2.4l16,93.6c0,0,40.1,2.6,41.1,1.6
				C361.2,320.2,369.5,245.7,366.9,228.7z"/>
			<path class="st48" d="M360.2,321.2c0.9-5.2,8-77.2,6.7-92.5C369.8,247.5,364,305.2,360.2,321.2z"/>
			<path class="st49" d="M426.6,275.6l-50.4,63.2c0,0-9.3-0.6-7.4-2.6c1.9-1.9,45.2-67.7,45.2-67.7S411.9,282.7,426.6,275.6z"/>
			<path class="st50" d="M315.3,266.3c0,0-1.1,12.4,4.8,18.3c5.9,5.9,106.2,8,115.8-8.3l-54.9,64.2c0,0-16,3.8-36.9-1.6
				c-20.9-5.5-34,1.9-44.3-1.9c-10.3-3.9-18-4.5-18-4.5L315.3,266.3z"/>
			<path class="st47" d="M280,279.5c0,0,4.2-38.9,23.1-53.5c0,0,12.6,34.5,6.9,40.3c-5.7,5.7-14.3,16.2-14.3,16.2
				S294.7,283,280,279.5z"/>
			<path class="st35" d="M294.4,280.1c0,0,6.5,5.1,1.8,23.9l-8.4,8.7c0,0-15.3-19.8-7.9-33.2C280,279.5,289,274.7,294.4,280.1z"/>
			<path class="st34" d="M306.6,314.4c0,0-7-3-8.7-6.7c-1.7-3.7-0.1-4.9-1.2-6c-1-1-5.1-0.2-6.2,0.8c-1.1,1.1-4.1,2.3-3.5,6.2
				c0.6,3.8-3.3,5.1-3.3,6.9c0,1.8,1.3,5,2.7,6.4c1.4,1.4,6.5,1.7,10,0.6c3.5-1.1-4.3-3.4-4.3-3.4s9.3,1.8,10.9,0.2
				c1.6-1.6-8-3.9-8-3.9s8.2,1.8,10.4,1.8C307.7,317.3,306.6,314.4,306.6,314.4z"/>
			<path class="st35" d="M405.7,312c0,0-5.2-3-5.2-0.8c0,2.2,2.9,3.8,2.9,3.8s-3.9-2.2-4.7-0.6c-0.9,1.6,1.7,2.6,1.7,2.6
				s-3-0.5-4,0.5c-1,1,1.5,3.2,1.5,3.2s-2.7-1.1-2.7,0c0,1.1,2.6,3.1,5,3.1c2.4,0,5-0.1,5.8-1.8c0.8-1.7,1.5-1.3,2.4-3.2
				C409.4,316.9,405.7,313.1,405.7,312z"/>
			<g>
				<path class="st34" d="M327.1,223.9c0,0,4.5,17.8,17,12.3c2-0.9,1.7-18.5,2.1-22.8c-0.8-1.8-6.6-15.2-6.2-14.4c0,0,0,0,0,0
					l-1.2-2.8L327.1,223.9z"/>
				<path class="st35" d="M340,199.1C340,199.1,340,199.1,340,199.1l-1.2-2.8l-4.9,11.6c3.1,8.4,8.7,11.4,12.1,12
					c0.1-2.8,0.1-5.2,0.2-6.5C345.4,211.8,340.1,199.3,340,199.1C340,199.1,340,199.1,340,199.1z"/>
				<path class="st51" d="M325.8,184.5c1.3,0,3-0.2,4.8-0.3l0,0c4.1-0.3,8-0.4,11.6,1.4c-1.7,2.8,0.4,6.6,0.9,9.8
					c-5.3,1.1-11.6,2.1-16.7,0.1c-1.2-2.3-2.5-6.2-2.9-9.5C324.2,185.5,325,185,325.8,184.5z"/>
				<path class="st22" d="M335.6,169.4c0,0.1,1.5,13.4,1.5,13.2c5.3-0.5,12.7-0.6,18-0.6c-0.3-2.3-0.7-5.8-2.4-7.6
					c-2.3-2.3-6.4-6.2-10.4-6.5C339,167.7,337.2,168.8,335.6,169.4z"/>
				<path class="st22" d="M336.2,169.1c0,0.1,1.6,13.7,1.6,13.5c5.6-0.5,15.7-1.1,21.3-1.1c-0.3-2.2-1-4.5-2.1-6.5
					c-1.3-2.5-3.9-4.5-6.3-5.8c-2.3-1.3-4.9-1.8-7.6-1.7c-2.1,0.1-4.2,0.6-6.2,1.3C336.5,169,336.2,169.1,336.2,169.1z"/>
				<path class="st23" d="M332.9,169.7l2.6,13.2c0.2,0,7.2-0.8,17-0.8c0-3.3-0.2-7.1-2.4-9.8c-2.1-2.6-5.5-4.3-8.8-4.3
					c-1.5,0-3,0.3-4.4,0.9C335.5,168.9,334,169.3,332.9,169.7z"/>
				<path class="st24" d="M323.5,187.8c3.5-5.5,19-5.7,25.8-5.7c0.1-1.8,0.5-6.2-0.7-8.3c-4.4-7.6-20.5-6.9-24.6,3.9
					C323.1,180.1,323.3,185,323.5,187.8z"/>
				<g>
					<path class="st25" d="M331.6,173.8C331.6,173.8,331.6,173.8,331.6,173.8l2.4-0.6c0.1,0,0.2-0.1,0.1-0.2c0-0.1-0.1-0.2-0.2-0.1
						l-2.4,0.6c-0.1,0-0.2,0.1-0.1,0.2C331.4,173.7,331.5,173.8,331.6,173.8z"/>
				</g>
				<g>
					<path class="st25" d="M331.8,175.1C331.8,175.1,331.8,175.1,331.8,175.1l2.2-0.6c0.1,0,0.2-0.1,0.1-0.2c0-0.1-0.1-0.2-0.2-0.1
						l-2.2,0.6c-0.1,0-0.2,0.1-0.1,0.2C331.6,175.1,331.7,175.1,331.8,175.1z"/>
				</g>
				<g>
					<path class="st25" d="M326.3,175.7C326.4,175.7,326.4,175.7,326.3,175.7l2.3-0.9c0.1,0,0.1-0.1,0.1-0.2c0-0.1-0.1-0.1-0.2-0.1
						l-2.2,0.9c-0.1,0-0.1,0.1-0.1,0.2C326.2,175.7,326.3,175.7,326.3,175.7z"/>
				</g>
				<g>
					<path class="st25" d="M326.3,176.8C326.4,176.8,326.4,176.8,326.3,176.8l2.3-0.8c0.1,0,0.1-0.1,0.1-0.2c0-0.1-0.1-0.1-0.2-0.1
						l-2.2,0.8c-0.1,0-0.1,0.1-0.1,0.2C326.2,176.8,326.3,176.8,326.3,176.8z"/>
				</g>
				<g>
					<circle class="st25" cx="330" cy="174.6" r="0.5"/>
				</g>
				<path class="st34" d="M356.5,185.6c0.5,0,1,0.4,1.2,0.8c0.4,1,0.7,1.9,0.9,2.8c1.2,6.2,2.8,16.2,2.8,16.2l-2.8,0.1
					c0,0-2.2,5.6-2.1,9.3c0.1,3.7-5.8,1.6-9.2,1.6c-3.4,0.1-11-2.6-14.3-13.2c-1.1-3.7-2.6-8.3-2.9-12.8c3.8-0.9,7.6-3.1,11.3-3.9
					C346.5,185.4,351.5,185.7,356.5,185.6z"/>
				<path class="st52" d="M341.7,186.4c-0.2,3.6,2.7,9.3,1.1,12.2l-3.1,0.7c0,0-0.7-1.8-1.9-1.8c-1.2,0-1.3,9.4-3.3,9.4
					c-2,0.1-6.1-7.8-8-11.4c-0.2-0.4-0.4-0.8-0.6-1.3c-0.6-1.3,0.3-3.7,1.6-4.3C331.6,187.8,335.6,187.3,341.7,186.4z"/>
				<path class="st52" d="M330.6,188.6c-0.3,0.1-0.6,0.2-0.9,0.3C330,188.8,330.3,188.7,330.6,188.6z"/>
				<path class="st52" d="M327.4,189.9c-0.1,0.1-0.3,0.2-0.4,0.3C327.1,190.1,327.3,190,327.4,189.9z"/>
				<path class="st52" d="M329,189.2c-0.5,0.2-1,0.4-1.4,0.7C328,189.6,328.5,189.4,329,189.2z"/>
				<path class="st52" d="M326.1,191.4c0,0.1-0.1,0.1-0.1,0.2C326.1,191.6,326.1,191.5,326.1,191.4z"/>
				<path class="st52" d="M326.5,190.8c-0.1,0.1-0.1,0.2-0.2,0.3C326.4,191,326.4,190.9,326.5,190.8z"/>
				<path class="st52" d="M326.9,190.3c-0.1,0.1-0.2,0.2-0.2,0.3C326.7,190.5,326.8,190.4,326.9,190.3z"/>
				<polygon class="st52" points="325.8,193.8 325.8,193.8 325.8,193.8 				"/>
				<path class="st52" d="M339.4,186.8c-0.3,0-0.5,0.1-0.8,0.1C338.9,186.8,339.2,186.8,339.4,186.8z"/>
				<path class="st52" d="M332.1,188.1c-0.2,0.1-0.5,0.1-0.7,0.2C331.7,188.2,331.9,188.2,332.1,188.1z"/>
				<path class="st52" d="M337.4,187c-0.3,0-0.5,0.1-0.8,0.1C336.9,187.1,337.1,187.1,337.4,187z"/>
				<path class="st52" d="M333.8,187.7c-0.2,0.1-0.5,0.1-0.7,0.2C333.3,187.8,333.6,187.8,333.8,187.7z"/>
				<path class="st52" d="M335.6,187.4c-0.3,0-0.5,0.1-0.7,0.1C335.1,187.5,335.3,187.4,335.6,187.4z"/>
				<path class="st52" d="M325.8,192.7C325.8,192.7,325.7,192.7,325.8,192.7C325.7,192.7,325.8,192.7,325.8,192.7z"/>
				<path class="st52" d="M325.7,193.3C325.7,193.3,325.7,193.3,325.7,193.3C325.7,193.3,325.7,193.3,325.7,193.3z"/>
				<path class="st35" d="M341.5,186.5c4-0.7,5.6-0.9,15-0.9c1,0,1.2,1,1.5,1.7c-3.3,0.2-9.8,0.9-16.1,1.9
					C341.7,188.2,341.6,186.5,341.5,186.5z"/>
				<path class="st52" d="M325.9,192c0,0.1,0,0.1,0,0.2C325.9,192.1,325.9,192.1,325.9,192z"/>
				<path class="st52" d="M339.4,186.8c0.7-0.1,1.4-0.2,2.1-0.3l0,0C340.8,186.6,340.1,186.7,339.4,186.8z"/>
				<path class="st52" d="M334.8,187.5c-0.3,0.1-0.7,0.1-1,0.2C334.1,187.6,334.5,187.6,334.8,187.5z"/>
				<path class="st52" d="M326,191.6c-0.1,0.1-0.1,0.3-0.1,0.4C325.9,191.9,326,191.8,326,191.6z"/>
				<path class="st52" d="M325.8,193.8c0-0.2,0-0.3,0-0.5C325.7,193.5,325.7,193.6,325.8,193.8z"/>
				<path class="st52" d="M336.6,187.2c-0.4,0.1-0.7,0.1-1.1,0.2C335.9,187.3,336.3,187.2,336.6,187.2z"/>
				<path class="st52" d="M338.7,186.9c-0.4,0.1-0.8,0.1-1.2,0.2C337.8,187,338.2,186.9,338.7,186.9z"/>
				<path class="st52" d="M333.1,187.9c-0.3,0.1-0.6,0.1-0.9,0.2C332.5,188,332.8,187.9,333.1,187.9z"/>
				<path class="st52" d="M327.4,189.9C327.4,189.9,327.4,189.9,327.4,189.9c0,0,0.1,0,0.1-0.1C327.5,189.9,327.5,189.9,327.4,189.9
					C327.4,189.9,327.4,189.9,327.4,189.9z"/>
				<path class="st52" d="M327,190.2c0,0-0.1,0.1-0.1,0.1C326.9,190.3,327,190.2,327,190.2z"/>
				<path class="st52" d="M325.9,192.2c0,0.2-0.1,0.3-0.1,0.5C325.8,192.5,325.8,192.4,325.9,192.2z"/>
				<path class="st52" d="M326.3,191.1c-0.1,0.1-0.1,0.2-0.2,0.3C326.2,191.3,326.2,191.2,326.3,191.1z"/>
				<path class="st52" d="M326.6,190.6c-0.1,0.1-0.1,0.2-0.2,0.2C326.5,190.8,326.6,190.7,326.6,190.6z"/>
				<path class="st52" d="M331.4,188.3c-0.3,0.1-0.6,0.2-0.9,0.3C330.8,188.5,331.1,188.4,331.4,188.3z"/>
				<path class="st52" d="M325.7,192.8c0,0.2,0,0.3,0,0.5C325.7,193.1,325.7,192.9,325.7,192.8z"/>
				<path class="st52" d="M329.7,188.9c-0.2,0.1-0.5,0.2-0.7,0.3C329.2,189.1,329.5,189,329.7,188.9z"/>
				<path class="st51" d="M341.7,186.4c-0.1,0.8,0.1,1.8,0.2,2.8c-13.7,2.1-15.3,3.1-16.2,4.6C325,188.4,334.5,187.4,341.7,186.4z"
					/>
				<path class="st34" d="M340.4,194.1c0,0,0.3,6.1-1.1,6.1c-1.5,0-4.8-3.3-4.3-7C335.3,189.5,339.6,189.8,340.4,194.1z"/>
				<path class="st35" d="M339.3,193.4c0,0,0.8,2.4-0.3,3.5c-1.1,1.1-3.3-1.4-2.1-3.5C338,191.5,339,192,339.3,193.4z"/>
				<path class="st26" d="M323.5,187.8L323.5,187.8c3.4-5.5,17.8-5.6,24.5-5.7c3.7-0.1,14.9-1.3,14.9,1.9c0,1.2-2.7,2.5-5,3
					c-0.2-0.5-0.3-1.3-1.3-1.3c-8.1,0.1-21.9,0.6-29.1,4.2c-1.1,0.6-1.9,2.4-1.7,3.7C322.6,192.8,322.2,189.7,323.5,187.8z"/>
				<path class="st27" d="M323.2,187.6c4.6-8.1,36.7-8.9,40.5-5.5c1.6,1.4-0.4,3.5-4.1,4.5c1.7-0.7,2.5-1.3,2.8-1.8
					c3.1-4.9-26.8-2.4-34.2,0.2c-1.7,0.6-3.3,1.5-4.4,2.9v0c-0.1,0.1-0.8,1-0.8,2.4c0,0.8,0.2,1.7,0.8,2.3
					C321.4,191.1,323.2,187.6,323.2,187.6z"/>
			</g>
		</g>
		<g>
			<g>
				<path class="st53" d="M430,219.3h-3.1v-9.2c0-2.7-2.2-4.9-4.9-4.9c-2.7,0-4.9,2.2-4.9,4.9v9.2H414v-9.2c0-4.4,3.6-8,8-8
					c4.4,0,8,3.6,8,8V219.3z"/>
			</g>
			<g>
				<path class="st53" d="M612.4,219.3h-3.1v-9.2c0-2.7-2.2-4.9-4.9-4.9c-2.7,0-4.9,2.2-4.9,4.9v9.2h-3.1v-9.2c0-4.4,3.6-8,8-8
					c4.4,0,8,3.6,8,8V219.3z"/>
			</g>
			<g>
				<path class="st3" d="M398.1,224.9v15h224.4v-15H398.1z M415.8,236.4h-8c-1.7,0-3.1-1.4-3.1-3.1c0-1.7,1.4-3.1,3.1-3.1h8
					c1.7,0,3.1,1.4,3.1,3.1C418.8,235,417.5,236.4,415.8,236.4z M437.8,236.4h-8c-1.7,0-3.1-1.4-3.1-3.1c0-1.7,1.4-3.1,3.1-3.1h8
					c1.7,0,3.1,1.4,3.1,3.1C440.8,235,439.5,236.4,437.8,236.4z M459.8,236.4h-8c-1.7,0-3.1-1.4-3.1-3.1c0-1.7,1.4-3.1,3.1-3.1h8
					c1.7,0,3.1,1.4,3.1,3.1C462.9,235,461.5,236.4,459.8,236.4z M481.8,236.4h-8c-1.7,0-3.1-1.4-3.1-3.1c0-1.7,1.4-3.1,3.1-3.1h8
					c1.7,0,3.1,1.4,3.1,3.1C484.9,235,483.5,236.4,481.8,236.4z M503.8,236.4h-8c-1.7,0-3.1-1.4-3.1-3.1c0-1.7,1.4-3.1,3.1-3.1h8
					c1.7,0,3.1,1.4,3.1,3.1C506.9,235,505.5,236.4,503.8,236.4z M590.1,236.4h-8c-1.7,0-3.1-1.4-3.1-3.1c0-1.7,1.4-3.1,3.1-3.1h8
					c1.7,0,3.1,1.4,3.1,3.1C593.2,235,591.8,236.4,590.1,236.4z M612.2,236.4h-8c-1.7,0-3.1-1.4-3.1-3.1c0-1.7,1.4-3.1,3.1-3.1h8
					c1.7,0,3.1,1.4,3.1,3.1C615.2,235,613.9,236.4,612.2,236.4z"/>
				<rect x="398.1" y="224.9" class="st4" width="224.4" height="2.1"/>
				<rect x="388" y="216.8" class="st3" width="241.3" height="8.1"/>
				<rect x="389.5" y="239.9" class="st3" width="239.9" height="8.3"/>
				<rect x="389.5" y="239.9" class="st5" width="239.9" height="1.9"/>
			</g>
			<g>
				<path class="st54" d="M604.4,208.9c-0.6,0-1.1-0.2-1.5-0.7L513.7,111l-90.2,95.7c-0.8,0.8-2.1,0.9-2.9,0.1
					c-0.8-0.8-0.9-2.1-0.1-2.9l93.2-98.9l92.2,100.5c0.8,0.8,0.7,2.1-0.1,2.9C605.4,208.7,604.9,208.9,604.4,208.9z"/>
			</g>
			<path class="st55" d="M518.4,103.5c0,0-1,2.3-2.1,4.3l1.4,1.6C518.2,106.2,518.4,103.5,518.4,103.5z"/>
			<path class="st43" d="M513.7,111c-1.2-1.2,1.7-28.5,1.7-28.7h-5c-0.1,2.4-4.1,36.7,2.8,36.7c1.6,0,2.7-2.1,3.5-4.7L513.7,111z"/>
			<polygon class="st56" points="519.9,88.9 504.2,88.9 501.2,57.9 522.9,57.9 			"/>
			<g>
				<polygon class="st57" points="506.7,57.9 501.7,63 502.1,66.9 510.9,57.9 				"/>
				<polygon class="st57" points="517.8,57.9 502.7,73.2 503.1,77.1 522,57.9 				"/>
				<polygon class="st57" points="522.3,64 503.6,82.9 504,86.8 521.8,68.7 				"/>
				<polygon class="st57" points="521,76.9 509.2,88.9 513.4,88.9 520.6,81.6 				"/>
			</g>
			<rect x="507.6" y="88.9" class="st58" width="8.8" height="2.5"/>
			<path class="st58" d="M519.9,57.9h-15.3v-2.2c0-1.6,1.3-2.9,2.9-2.9h9.5c1.6,0,2.9,1.3,2.9,2.9V57.9z"/>
			<rect x="510.7" class="st58" width="3.2" height="52.8"/>
			<polygon class="st59" points="501.2,57.9 522.9,57.9 519.9,88.9 521.1,59.6 			"/>
		</g>
	</g>
</g>
</svg>
