<?xml version="1.0" encoding="utf-8"?>
<!-- Generator: Adobe Illustrator 24.0.0, SVG Export Plug-In . SVG Version: 6.00 Build 0)  -->
<svg version="1.1" id="OBJECTS" xmlns="http://www.w3.org/2000/svg" xmlns:xlink="http://www.w3.org/1999/xlink" x="0px" y="0px"
	 viewBox="0 0 379.6 243.9" style="enable-background:new 0 0 379.6 243.9;" xml:space="preserve">
<style type="text/css">
	.st0{display:none;}
	.st1{display:inline;fill:#A2DDF4;}
	.st2{display:inline;fill:#FEFEFE;}
	.st3{fill:#E5BC89;}
	.st4{opacity:0.8;fill:#D39D67;}
	.st5{fill:#867041;}
	.st6{display:none;fill:#94C11E;}
	.st7{display:none;fill:#8CAF1E;}
	.st8{display:inline;fill:#8CAF1E;}
	.st9{fill:#775F35;}
	.st10{fill:#604B29;}
	.st11{fill:#DDAC76;}
</style>
<g class="st0">
	<circle class="st1" cx="188.4" cy="35.1" r="193.3"/>
	<path class="st2" d="M312.2,79.7c-2,0-4,0.4-5.8,1.1c2.3-3.3,3.6-7.4,3.6-11.7c0-11.5-9.4-20.9-20.9-20.9
		c-8.5,0-15.9,5.1-19.1,12.5c-4.7-4-10.8-6.4-17.4-6.4c-14.8,0-26.8,12-26.8,26.8c0,2.8,0.4,5.6,1.3,8.1c-2.2-1.9-5-3-8.1-3
		c-6.9,0-12.6,5.6-12.6,12.6c0,6.9,5.6,12.6,12.6,12.6h93.2c8.7,0,15.8-7.1,15.8-15.8S320.9,79.7,312.2,79.7z"/>
	<path class="st2" d="M129.1-32.7c-2,0-4,0.4-5.8,1.1c2.3-3.3,3.6-7.4,3.6-11.7c0-11.5-9.4-20.9-20.9-20.9
		c-8.5,0-15.9,5.1-19.1,12.5c-4.7-4-10.8-6.4-17.4-6.4c-14.8,0-26.8,12-26.8,26.8c0,2.8,0.4,5.6,1.3,8.1c-2.2-1.9-5-3-8.1-3
		c-6.9,0-12.6,5.6-12.6,12.6c0,6.9,5.6,12.6,12.6,12.6h93.2c8.7,0,15.8-7.1,15.8-15.8C144.8-25.6,137.8-32.7,129.1-32.7z"/>
	<path class="st2" d="M288-83c-12.1,0-22.1,9.3-23,21.2c-2.6-2.6-6.2-4.1-10.2-4.1c-8,0-14.6,6.5-14.6,14.6c0,8,6.5,14.6,14.6,14.6
		H288c12.8,0,23.1-10.3,23.1-23.1C311.1-72.6,300.7-83,288-83z"/>
</g>
<g>
	<path class="st3" d="M312.3,88.8c0,0-31.8-2-51.4,14.3c0,0-23.6-4-40.3,5.3c-16.7,9.3-21,51.7-21.7,70
		c-0.7,18.3,57.3,41,103.3,31.3c46-9.7,49.7-50.3,45.3-63.3C343.3,133.5,312.3,88.8,312.3,88.8z"/>
	<path class="st4" d="M198.9,162.8c0,0,9.7-14,28.3-22c18.6-8,33.6-7,48.4-10.3c16-3.6,39.3,8.7,45.2-19.1
		c2.4-11.3,24.7-14.1,24.7-14.1s24.7,84-19.9,105s-92,22-107.3,13.3C202.9,206.8,198.9,162.8,198.9,162.8z"/>
</g>
<g>
	<path class="st3" d="M67.4,88.8c0,0,31.8-2,51.4,14.3c0,0,23.6-4,40.3,5.3c16.7,9.3,21,51.7,21.7,70c0.7,18.3-57.3,41-103.3,31.3
		c-46-9.7-49.7-50.3-45.3-63.3C36.4,133.5,67.4,88.8,67.4,88.8z"/>
	<path class="st4" d="M180.7,162.8c0,0-9.7-14-28.3-22c-18.6-8-33.6-7-48.4-10.3c-16-3.6-39.3,8.7-45.2-19.1
		C56.4,100,34.1,97.2,34.1,97.2s-24.7,84,19.9,105c44.7,21,92,22,107.3,13.3C176.7,206.8,180.7,162.8,180.7,162.8z"/>
</g>
<g>
	<path class="st5" d="M308.9,113.7c-2.8-15.1-13.4-29.1-23.4-34.5c-10-5.3-8.7-6.7-15.3-16.7c-6.7-10-12-14-24-18.7s-4.7-7.3-8-14.7
		c-3.3-7.3-16.6-12.7-16.6-12.7s-8.1-14.7-17.4-16c-9.3-1.3-15.3,0-15.3,0s-6-1.3-15.3,0c-9.3,1.3-17.4,16-17.4,16
		s-13.2,5.3-16.6,12.7c-3.3,7.3,4,10-8,14.7s-17.3,8.7-24,18.7c-6.7,10-5.3,11.3-15.3,16.7c-10,5.3-20.6,19.4-23.4,34.5
		c-2.8,15.1-7.5,24.9,0,40.5c0,0-0.8,6.1,7.5,15.6s7.2,8.7,33.8,16c26.7,7.3,31.2,12.9,45.9,14.5c14.8,1.5,32.8,0,32.8,0
		s18,1.5,32.8,0c14.8-1.5,19.2-7.1,45.9-14.5c26.7-7.3,25.6-6.5,33.8-16s7.5-15.6,7.5-15.6C316.4,138.6,311.7,128.8,308.9,113.7z"/>
	<rect x="187.7" y="-50.4" class="st6" width="3.2" height="80.3"/>
	<path class="st7" d="M190.9-50.4c0,0,2.1-24.8-11.6-34s-30.8-16.2-52.8-3.2S96.8-75.4,96.8-75.4s7.8,27.5,42.8,25s39.1-8.8,48.2,0
		H190.9z"/>
	<path class="st6" d="M275-130.2c0,0-11.5,8.2-31.5,11.2s-57,17.5-55.8,68.5h3.2c0,0,39.1,12.8,64.6-19S275-130.2,275-130.2z"/>
	<path class="st6" d="M179.3-84.4c-13.8-9.2-30.8-16.2-52.8-3.2S96.8-75.4,96.8-75.4s10.1,9.8,30.1,4.2c20-5.7,36.4-11.5,48.8-1.2
		c11.6,9.6,13.4,20.6,13.6,22h1.6C190.9-50.4,193-75.2,179.3-84.4z"/>
	<g class="st0">
		<path class="st8" d="M187.7-50.4h1.6l-1.6-0.3C187.7-50.6,187.7-50.5,187.7-50.4z"/>
		<path class="st8" d="M275-130.2c0,0,0.6,6-18.5,22.2c-19.1,16.2-31.5,14.8-48.2,27.5s-19,30-19,30h1.6c0,0,39.1,12.8,64.6-19
			S275-130.2,275-130.2z"/>
	</g>
	<path class="st9" d="M308.9,113.7c-2.8-15.1-13.4-29.1-23.4-34.5c-10-5.3-8.7-6.7-15.3-16.7c-6.7-10-12-14-24-18.7s-4.7-7.3-8-14.7
		c-3.3-7.3-16.6-12.7-16.6-12.7s8.3,3.4,10,22.9c1.7,19.5,4.2,21.2,9.2,33.3s-7,30.2-3,45.7s-23.2,32.2-25.6,51.3
		c-1.4,11.1-11.1,22.9-19.1,30.9c6.2,0.4,18.1,0.8,28.5-0.3c14.8-1.5,19.2-7.1,45.9-14.5c26.7-7.3,25.6-6.5,33.8-16
		s7.5-15.6,7.5-15.6C316.4,138.6,311.7,128.8,308.9,113.7z"/>
	<g>
		<path class="st9" d="M164.8,60.8c0,1.4-1.5,2.4-3.4,2.4c-1.9,0-3.4-1.1-3.4-2.4c0-1.4,1.5-2.4,3.4-2.4
			C163.3,58.4,164.8,59.5,164.8,60.8z"/>
		<path class="st9" d="M159,29.9c0,1.4-1.5,2.4-3.4,2.4c-1.9,0-3.4-1.1-3.4-2.4c0-1.4,1.5-2.4,3.4-2.4C157.5,27.5,159,28.6,159,29.9
			z"/>
		<path class="st10" d="M255.4,92.3c0,1.4-1.5,2.4-3.4,2.4c-1.9,0-3.4-1.1-3.4-2.4c0-1.4,1.5-2.4,3.4-2.4
			C253.9,89.8,255.4,90.9,255.4,92.3z"/>
		<path class="st9" d="M127.5,58.4c0,1.4-1.5,2.4-3.4,2.4c-1.9,0-3.4-1.1-3.4-2.4c0-1.4,1.5-2.4,3.4-2.4
			C126,55.9,127.5,57,127.5,58.4z"/>
		<path class="st9" d="M213.3,131.6c0,1.4-1.5,2.4-3.4,2.4c-1.9,0-3.4-1.1-3.4-2.4c0-1.4,1.5-2.4,3.4-2.4
			C211.8,129.2,213.3,130.3,213.3,131.6z"/>
		<path class="st9" d="M181.3,169.8c0,1.4-1.5,2.4-3.4,2.4c-1.9,0-3.4-1.1-3.4-2.4c0-1.4,1.5-2.4,3.4-2.4
			C179.8,167.4,181.3,168.5,181.3,169.8z"/>
		<path class="st10" d="M295.6,131.6c0,1.4-1.5,2.4-3.4,2.4c-1.9,0-3.4-1.1-3.4-2.4c0-1.4,1.5-2.4,3.4-2.4
			C294.1,129.2,295.6,130.3,295.6,131.6z"/>
		<path class="st9" d="M190,58.4c0,0.8-1,1.4-2.3,1.4c-1.3,0-2.3-0.6-2.3-1.4s1-1.4,2.3-1.4C189,57,190,57.6,190,58.4z"/>
		<path class="st9" d="M206.2,10.4c0,0.8-1,1.4-2.3,1.4c-1.3,0-2.3-0.6-2.3-1.4c0-0.8,1-1.4,2.3-1.4C205.2,9,206.2,9.6,206.2,10.4z"
			/>
		<path class="st10" d="M254.3,127.1c0,0.8-1,1.4-2.3,1.4c-1.3,0-2.3-0.6-2.3-1.4c0-0.8,1-1.4,2.3-1.4
			C253.3,125.7,254.3,126.3,254.3,127.1z"/>
		<path class="st9" d="M209.9,70.4c0,0.8-1,1.4-2.3,1.4c-1.3,0-2.3-0.6-2.3-1.4c0-0.8,1-1.4,2.3-1.4C208.9,69,209.9,69.6,209.9,70.4
			z"/>
		<ellipse class="st9" cx="219.5" cy="39.5" rx="2.3" ry="1.4"/>
		<ellipse class="st9" cx="96.8" cy="99.1" rx="2.3" ry="1.4"/>
		<path class="st10" d="M257,69c0,0.8-1,1.4-2.3,1.4c-1.3,0-2.3-0.6-2.3-1.4c0-0.8,1-1.4,2.3-1.4C256,67.6,257,68.2,257,69z"/>
		<path class="st9" d="M154.5,92.3c0,0.8-0.9,1.5-2,1.5s-2-0.7-2-1.5c0-0.8,0.9-1.5,2-1.5S154.5,91.4,154.5,92.3z"/>
		<path class="st10" d="M267.6,106.8c0,0.8-0.9,1.5-2,1.5c-1.1,0-2-0.7-2-1.5c0-0.8,0.9-1.5,2-1.5
			C266.7,105.3,267.6,106,267.6,106.8z"/>
		<path class="st9" d="M134.1,74.4c0,0.9-1,1.6-2.3,1.6c-1.3,0-2.3-0.7-2.3-1.6c0-0.9,1-1.6,2.3-1.6
			C133.1,72.9,134.1,73.6,134.1,74.4z"/>
		<path class="st9" d="M124.3,119.7c0,0.9-1,1.6-2.3,1.6c-1.3,0-2.3-0.7-2.3-1.6s1-1.6,2.3-1.6C123.2,118.1,124.3,118.8,124.3,119.7
			z"/>
		<path class="st9" d="M187,112.2c0,0.4-0.7,0.8-1.6,0.8c-0.9,0-1.6-0.4-1.6-0.8c0-0.4,0.7-0.8,1.6-0.8
			C186.3,111.4,187,111.8,187,112.2z"/>
		<path class="st9" d="M155.6,119.7c0,0.4-0.7,0.8-1.6,0.8c-0.9,0-1.6-0.4-1.6-0.8s0.7-0.8,1.6-0.8
			C154.9,118.9,155.6,119.3,155.6,119.7z"/>
		<path class="st9" d="M86.9,134.1c0,0.4-0.7,0.8-1.6,0.8c-0.9,0-1.6-0.4-1.6-0.8c0-0.4,0.7-0.8,1.6-0.8
			C86.3,133.3,86.9,133.7,86.9,134.1z"/>
		<path class="st9" d="M209.2,89.8c0,0.4-0.7,0.8-1.6,0.8c-0.9,0-1.6-0.4-1.6-0.8c0-0.4,0.7-0.8,1.6-0.8
			C208.5,89.1,209.2,89.4,209.2,89.8z"/>
		<ellipse class="st10" cx="281.3" cy="93.1" rx="1.6" ry="0.8"/>
		<ellipse class="st9" cx="173.2" cy="135.8" rx="1.6" ry="0.8"/>
		<path class="st9" d="M117.5,144.4c0,0.4-0.7,0.8-1.6,0.8c-0.9,0-1.6-0.4-1.6-0.8c0-0.4,0.7-0.8,1.6-0.8
			C116.9,143.6,117.5,144,117.5,144.4z"/>
		<ellipse class="st10" cx="265.6" cy="146" rx="1.6" ry="0.8"/>
		<path class="st9" d="M218.9,26.7c0,2.5-7.7,4.4-17.3,4.4c-9.6,0-17.3-2-17.3-4.4c0-2.5,7.7-4.4,17.3-4.4
			C211.1,22.3,218.9,24.3,218.9,26.7z"/>
	</g>
	<path class="st5" d="M161.5,29.6c0,0,5.7,0,10.9-2.6c5.2-2.6,12.2-7,18.5-5.7c6.3,1.3,6.3,4.4,14.6,5.7c8.3,1.3,11.7,2.6,11.7,2.6
		S194.8,36.1,161.5,29.6z"/>
</g>
<g>
	<path class="st3" d="M47.9,223.8c1,1.6,2.5,2.8,4.2,3.5c6.7,2.9,24.1,9.8,32,7.5c9.8-2.8,31.9-73.4,34-80
		c2.8-8.8-2.6-15.3-17.3-19.3c-12.8-3.5-32.2,47.5-40,62c-7.8,14.5-22,12-22,12L47.9,223.8z"/>
	<path class="st3" d="M134.4,139.6c-5.9-0.6-11.6-1.4-17.2,5.5c1.8,2.8,2,6.1,0.9,9.8c-2.1,6.6-24.2,77.2-34,80
		c3.2,5.8,37.8,14.2,41.7,5c3.8-9.2,22-89.5,22-89.5C149.5,143.6,140.7,140.2,134.4,139.6z"/>
	<path class="st3" d="M167.4,154.8c-0.7-6-3.7-6.7-11-6.7s-8.7,2.1-8.7,2.1s-14.1,62.4-20.1,83.5c10.6,6,33.7,3.4,35.4-5.6
		C164.7,219.1,168,160.8,167.4,154.8z"/>
	<path class="st3" d="M188.4,206.8c-1-10.3-1-42-7.7-44c-6.7-2-13.3-2.7-13.3-2.7c-0.3,16.1-3,60.3-4.4,68
		C177.4,225.1,189.4,217.1,188.4,206.8z"/>
	<path class="st11" d="M117.2,145c0,0-18.1,42.1-29.1,59.4c-11,17.3-23.3,21-36,22.8c6.7,2.9,24.1,9.8,32,7.5
		c9.8-2.8,31.9-73.4,34-80C119.2,151.1,118.9,147.9,117.2,145z"/>
	<path class="st11" d="M98,241.5L98,241.5c11.2,3,25.3,4,27.7-1.7c3.1-7.4,15.5-60.9,20.2-81.5C137.2,182.7,117.3,233,98,241.5z"/>
	<path class="st11" d="M140.7,237c10.3,0.4,21.2-2.7,22.3-8.8c1.7-9,5-67.3,4.3-73.3C167.4,154.8,158.7,220.8,140.7,237z"/>
	<path class="st11" d="M188.4,206.8c-0.8-8.2-1-29.8-4.3-39.4c0.1,1.1,2.9,44.4-16.6,59.6C179.7,223.4,189.3,216.1,188.4,206.8z"/>
</g>
<g>
	<path class="st3" d="M67.4,88.8c0,0-34.7,4.3-45.3,16C11.4,116.5-0.8,162,0,169.5c0.8,7.5,22,35.3,22,35.3s0.5,0.2,16.7,4.7
		c16.2,4.5,25.2,3.5,28.7-14c3.5-17.5-4.8-17.5-12.7-22c-7.8-4.5-12-20-12-20L67.4,88.8z"/>
	<path class="st11" d="M54,202.1c-17,1.6-40.6-16-50-23.6c6.4,11,18,26.2,18,26.2s0.5,0.2,16.7,4.7c15.6,4.4,24.6,3.6,28.3-12.3
		C64.2,199.7,60.1,201.6,54,202.1z"/>
</g>
<g>
	<path class="st3" d="M331.8,223.8c-1,1.6-2.5,2.8-4.2,3.5c-6.7,2.9-24.1,9.8-32,7.5c-9.8-2.8-31.9-73.4-34-80
		c-2.8-8.8,2.6-15.3,17.3-19.3c12.8-3.5,32.2,47.5,40,62c7.8,14.5,22,12,22,12L331.8,223.8z"/>
	<path class="st3" d="M245.3,139.6c5.9-0.6,11.6-1.4,17.2,5.5c-1.8,2.8-2,6.1-0.9,9.8c2.1,6.6,24.2,77.2,34,80
		c-3.2,5.8-37.8,14.2-41.7,5c-3.8-9.2-22-89.5-22-89.5C230.1,143.6,238.9,140.2,245.3,139.6z"/>
	<path class="st3" d="M212.3,154.8c0.7-6,3.7-6.7,11-6.7c7.3,0,8.7,2.1,8.7,2.1s14.1,62.4,20.1,83.5c-10.6,6-33.8,3.4-35.4-5.6
		C214.9,219.1,211.6,160.8,212.3,154.8z"/>
	<path class="st3" d="M191.3,206.8c1-10.3,1-42,7.7-44c6.7-2,13.3-2.7,13.3-2.7c0.3,16.1,3,60.3,4.4,68
		C202.3,225.1,190.3,217.1,191.3,206.8z"/>
	<path class="st11" d="M318.9,197.5c-7.4-13.6-24.8-59.4-37.6-62c3,6.2,8,18.3,14.2,39.4c8.3,28,20.9,43.6,25.8,55
		c2.5-0.9,4.7-1.8,6.2-2.5c1.7-0.7,3.2-2,4.2-3.5l9.1-14.3C340.9,209.5,326.8,212,318.9,197.5z"/>
	<g>
		<path class="st11" d="M261.6,154.8c-1.2-3.7-0.9-6.9,0.9-9.8c0,0-4.1,2.8-1.6,15.1c2.5,12.3,18.3,57.2,10.9,83.3
			c10.5-1.3,22-5.4,23.8-8.6C285.8,232,263.7,161.4,261.6,154.8z"/>
	</g>
	<path class="st11" d="M231.9,150.3c0,0,11.8,65.3-2.2,86.1c7.6,1.3,16.7,0.6,22.3-2.6C246,212.7,231.9,150.3,231.9,150.3z"/>
	<path class="st11" d="M198.7,220.6L198.7,220.6c4.6,3.5,11,6.1,17.9,7.5c-1.4-7.7-4.1-51.9-4.4-68
		C212.2,160.2,213,206.1,198.7,220.6z"/>
</g>
<g>
	<path class="st3" d="M312.3,88.8c0,0,34.7,4.3,45.3,16c10.7,11.7,22.8,57.2,22,64.7c-0.8,7.5-22,35.3-22,35.3s-0.5,0.2-16.7,4.7
		c-16.2,4.5-25.2,3.5-28.7-14s4.8-17.5,12.7-22c7.8-4.5,12-20,12-20L312.3,88.8z"/>
	<path class="st11" d="M325.6,202.1c17,1.6,40.6-16,50-23.6c-6.4,11-18,26.2-18,26.2s-0.5,0.2-16.7,4.7
		c-15.6,4.4-24.6,3.6-28.3-12.3C315.4,199.7,319.5,201.6,325.6,202.1z"/>
</g>
</svg>
