<?xml version="1.0" encoding="utf-8"?>
<!-- Generator: Adobe Illustrator 24.0.0, SVG Export Plug-In . SVG Version: 6.00 Build 0)  -->
<svg version="1.1" id="Режим_изоляции"
	 xmlns="http://www.w3.org/2000/svg" xmlns:xlink="http://www.w3.org/1999/xlink" x="0px" y="0px" viewBox="0 0 434.5 382.5"
	 style="enable-background:new 0 0 434.5 382.5;" xml:space="preserve">
<style type="text/css">
	.st0{clip-path:url(#SVGID_2_);}
	.st1{display:none;fill:#FFFFFF;}
	.st2{fill:url(#SVGID_3_);}
	.st3{fill:#E0B38F;}
	.st4{fill:#E5D9D0;}
	.st5{fill:#EDDCCF;}
	.st6{fill:url(#SVGID_4_);}
	.st7{fill:#E5E1BC;}
	.st8{display:none;}
	.st9{display:inline;fill:#8D89A8;}
	.st10{fill:#FFFFFF;}
</style>
<g>
	<defs>
		<rect id="SVGID_1_" width="434.5" height="382.4"/>
	</defs>
	<clipPath id="SVGID_2_">
		<use xlink:href="#SVGID_1_"  style="overflow:visible;"/>
	</clipPath>
	<g class="st0">
		<rect x="-236.8" y="-28.2" class="st1" width="751.2" height="500"/>
		<linearGradient id="SVGID_3_" gradientUnits="userSpaceOnUse" x1="-94.9936" y1="64.0957" x2="15.9569" y2="17.0259">
			<stop  offset="0" style="stop-color:#E5E1BC"/>
			<stop  offset="1" style="stop-color:#CBEBB7"/>
		</linearGradient>
		<path class="st2" d="M116.6-6.1c0,53.7-43.5,97.3-97.3,97.3C-34.4,91.2-78,47.6-78-6.1c0-7.6,0.9-15,2.5-22.1H114
			C115.7-21.1,116.6-13.7,116.6-6.1z"/>
		<rect x="417.5" y="-22.9" class="st3" width="26.4" height="336.6"/>
		<rect x="449.2" y="-16.5" class="st4" width="7.6" height="336.6"/>
		<rect x="466.6" y="-1.7" class="st3" width="23.8" height="336.6"/>
		<path class="st5" d="M466.6,335.9V56.3h8c0,0,1.6,99,0,110.7c-1.6,11.7,0.4,32.2,0.7,51.7c0.3,19.5,0,117.2,0,117.2H466.6z"/>
		<path class="st5" d="M476.9,235.1c0,0,0.9,12.4,1.1,15.4c0.2,3-0.9,47.3,0,52.8c0.9,5.4,1.9,13.2,1.9,13.2
			S481.1,254.6,476.9,235.1z"/>
		<path class="st5" d="M490.2,310.8c0,0,0.1,3.9-3.9,6.4c-3.9,2.4-7.8,1.6-6.7,5.9c1,4.2-7.4,2.3-9.1,6.7c-1.7,4.4,2.8,6.4,2.8,6.4
			h24.1c0,0,4.4-5.5,0-10.8C493,320.1,490.2,310.8,490.2,310.8z"/>
		<rect x="243.3" y="-9.4" class="st4" width="12.3" height="336.6"/>
		<rect x="330.9" y="-9.4" class="st4" width="8.5" height="336.6"/>
		<rect x="261.5" y="-9.4" class="st4" width="7.6" height="336.6"/>
		<rect x="355.7" y="-3" class="st4" width="7.6" height="336.6"/>
		<rect x="151.4" y="-1.7" class="st4" width="7.6" height="336.6"/>
		<rect x="319.4" y="-5.9" class="st4" width="4.7" height="336.6"/>
		<rect x="190.7" y="-1.7" class="st4" width="7.6" height="336.6"/>
		<rect x="165.1" y="1.5" class="st4" width="4.3" height="336.6"/>
		<rect x="174.5" y="1.5" class="st4" width="1.9" height="336.6"/>
		<rect x="345.9" y="-22.9" class="st4" width="4.5" height="336.6"/>
		<rect x="213.4" y="-1.7" class="st3" width="23.8" height="336.6"/>
		<path class="st5" d="M213.4,35.2c0,0,7.4,32.7,8,80.5c0.7,47.8,1,91.3,0,115c-1,23.7,0,41.9,0,41.9l2.6,62h-10.6V35.2z"/>
		<path class="st5" d="M225.3,220.6c0,0-1,25.6-1.3,30.8c-0.3,5.2-1.2,27.2-1.2,31.5c0,4.3,1.2,25,1.2,25s0.7-28.2,1.3-31.5
			C225.9,273.1,225.3,220.6,225.3,220.6z"/>
		<path class="st3" d="M388.7,203.5c0,0,7.1-16.7,12.8-19.2c5.8-2.5,17.1-20.2,17.1-20.2l14.9-15.3v2.3c0,0-11,13.6-13,17.8
			c-2.1,4.2-14.3,16.2-17.6,20.4c-3.3,4.2-10,24.5-10,24.5L388.7,203.5z"/>
		<rect x="118" y="1.6" class="st3" width="23.8" height="336.6"/>
		<path class="st5" d="M118,44.4v293.8h8.2V216.4c0,0-2.6,47.6-2.6,43.4c0-4.2-0.7-154.3,0.4-164.6c1.1-10.3-0.9-68-0.9-68L118,44.4
			z"/>
		<rect x="371.1" y="-11.7" class="st3" width="23.8" height="336.6"/>
		<rect x="371.1" y="-16.5" class="st5" width="6.6" height="340"/>
		<path class="st5" d="M371.1,259.6c0,0-1.7-10.8-8.6-14.7c-6.8-3.9-11.1-14.3-15-16v-1c0,0,4.7,3,8.5,9.2c2.9,4.9,8.6,5.3,11.5,8
			c2.9,2.7,6,8.7,6,8.7L371.1,259.6z"/>
		<path class="st5" d="M193.8,156c0,0-1.7-10.8-8.6-14.7c-6.8-3.9-11.1-14.3-15-16v-1c0,0,4.7,3,8.5,9.2c2.9,4.9,8.6,5.3,11.5,8
			c2.9,2.7,6,8.7,6,8.7L193.8,156z"/>
		<path class="st3" d="M392.7,243.8c0,0,3.7-12.7,10.6-15.8c7-3.2,14.8-21,20.9-19.9v-1.7c0,0-3.4-0.3-7.3,5.2
			c-3.9,5.5-10.5,13.9-15.6,15.1c-5.1,1.1-9.7,13.9-9.7,13.9L392.7,243.8z"/>
		<path class="st4" d="M247.5,167.5c0,0,3.7-12.7,10.6-15.8c7-3.2,14.8-21,20.9-19.9v-1.7c0,0-3.4-0.3-7.3,5.2
			c-3.9,5.5-10.5,13.9-15.6,15.1c-5.1,1.1-9.7,13.9-9.7,13.9L247.5,167.5z"/>
		<path class="st3" d="M233.3,249.8c0,0,2-11.6,9.6-12.2c7.7-0.7,8.3-16.2,13.2-19.2c4.9-3.1,11.2-3.6,11.2-3.6V214
			c0,0-8.6-1-13.8,4.4c-5.2,5.4-4.9,16-11.7,16.8c-6.8,0.8-10.3,6.2-10.3,6.2L233.3,249.8z"/>
		<path class="st4" d="M321.3,152.8c0,0,1.7-9.9,8.2-10.5c6.6-0.6,7.1-13.9,11.3-16.5c4.2-2.6,9.6-3.1,9.6-3.1V122
			c0,0-7.4-0.9-11.9,3.8c-4.5,4.6-4.2,13.7-10.1,14.4c-5.9,0.7-8.8,5.3-8.8,5.3L321.3,152.8z"/>
		<path class="st5" d="M380.3,225.9c0,0-0.2,86.9,0,89.7C380.3,315.6,383.2,240.7,380.3,225.9z"/>
		<path class="st5" d="M417.5,321.1V47.3c0,0,6.8,8.4,6.7,23.6c-0.1,15.2,0.5,39.4,1.5,48.3c1,8.9-1.1,25.4-1.5,40
			c-0.4,14.6,1.1,36.1,1.8,51.3c0.7,15.2,0,110.6,0,110.6H417.5z"/>
		<polygon class="st5" points="429,321.1 429,172.9 430.6,165.8 430.6,172.6 430.6,321.1 		"/>
		<path class="st5" d="M215.9,216.4c0,0-4.2-6.1-9.4-6.1c-5.2,0-10-9.4-14.5-7.4c-4.4,2-6.7,3.2-6.7,3.2s6.9-5.2,8.4-4.7
			c1.5,0.5,9.3,7.7,12.1,7.5c2.8-0.2,10.2,3.1,10.2,3.1V216.4z"/>
		<path class="st3" d="M472.6,236.7c0,0-5.4-7.8-12.1-7.8c-6.7,0-12.9-12.1-18.6-9.4c-5.7,2.6-8.6,4.1-8.6,4.1s8.8-6.7,10.8-6
			c2,0.7,11.9,9.9,15.5,9.6c3.6-0.3,13,3.9,13,3.9V236.7z"/>
		<path class="st4" d="M195.1,249.3c0,0-2.7-3.9-6-3.9c-3.3,0-6.4-6-9.3-4.7c-2.9,1.3-4.3,2-4.3,2s4.4-3.3,5.4-3
			c1,0.3,5.9,4.9,7.7,4.8c1.8-0.2,6.5,2,6.5,2V249.3z"/>
		<path class="st4" d="M338,207.2c0,0-2.4-3.5-5.3-3.5c-3,0-5.7-5.3-8.2-4.2c-2.5,1.2-3.8,1.8-3.8,1.8s3.9-3,4.8-2.7
			c0.9,0.3,5.3,4.4,6.9,4.2c1.6-0.1,5.8,1.7,5.8,1.7V207.2z"/>
		<path class="st4" d="M321.1,241c0,0-2.4-3.5-5.3-3.5c-3,0-5.7-5.3-8.2-4.2c-2.5,1.2-3.8,1.8-3.8,1.8s3.9-3,4.8-2.7
			c0.9,0.3,5.3,4.4,6.9,4.2s5.8,1.7,5.8,1.7V241z"/>
		<path class="st3" d="M138.6,266.7c0,0,9.3-7.8,12.2-4.6c2.8,3.3,15-6.7,16.5-4.5c1.5,2.1,8.3,2.6,8.3,2.6s-7-2.4-7.8-3.5
			c-1.7-2.1-12.1,5.2-15,3.6c-2.9-1.6-14.7,2.5-14.7,2.5L138.6,266.7z"/>
		<path class="st3" d="M124.7,257.6c0,0-4.4-19.1-14.1-20.6c-5.9-1-13.7-0.7-15.5-2c-1.7-1.3-7.6-12.8-7.6-12.8s7.4,12.4,12.4,12.4
			c5,0,18.5,1.6,20.6,7.4c2.2,5.8,7.2,9.5,7.2,9.5L124.7,257.6z"/>
		<path class="st4" d="M358.8,201.4c0,0-2.2-9.5-7-10.3c-3-0.5-6.9-0.3-7.7-1c-0.9-0.7-3.8-6.4-3.8-6.4s3.7,6.2,6.2,6.2
			c2.5,0,9.2,0.8,10.3,3.7c1.1,2.9,3.6,4.8,3.6,4.8L358.8,201.4z"/>
		<path class="st3" d="M133.8,229.4c0,0,9.1-9.9,10.9-10c1.8-0.1,8.5,1.4,11.2-1.2c2.8-2.6,7-5.2,7-5.2v0.9c0,0-6.4,4.6-7.5,6.2
			c-1.1,1.5-8-0.2-10.7,1.9c-2.7,2.1-9.4,9.5-9.4,9.5L133.8,229.4z"/>
		<path class="st4" d="M263.7,261c0,0,4.3-4.7,5.1-4.7c0.8,0,4,0.7,5.3-0.6c1.3-1.2,3.3-2.5,3.3-2.5v0.4c0,0-3,2.2-3.5,2.9
			c-0.5,0.7-3.8-0.1-5,0.9c-1.3,1-4.4,4.5-4.4,4.5L263.7,261z"/>
		<path class="st4" d="M333.8,221.8c0,0,4.3-4.7,5.1-4.7c0.8,0,4,0.6,5.3-0.6c1.3-1.2,3.3-2.5,3.3-2.5v0.4c0,0-3,2.2-3.5,2.9
			c-0.5,0.7-3.8-0.1-5,0.9c-1.3,1-4.4,4.5-4.4,4.5L333.8,221.8z"/>
		<path class="st5" d="M126.2,270.2c0,0,0.2-24.4,0-28.2c-0.2-3.7-0.2-20.5,0-24.8c0.2-4.3,0.1-18.2,0.1-18.2s2.7,4.8,1.4,9.3
			C126.4,212.9,127.7,251,126.2,270.2z"/>
		<path class="st3" d="M514.4,171.2v7.3c-4.3,7.3-9.3,15.8-17.4,21.3c-13.7,9.3-10.2,17.3-9.6,18.5l-5.8-8.8c0,0,1.2-13.2,11.9-16.1
			C504.3,190.5,508.8,180.1,514.4,171.2C514.4,171.3,514.4,171.3,514.4,171.2z"/>
		<path class="st4" d="M267.8,198.7c0,0-1.6-2.5,2.7-5.4c4.3-2.9,5.5-8.8,8.2-10l0.3-1.7c0,0-1.9,0.9-3.5,3.5
			c-1.6,2.5-2.9,5.5-6,6.4c-3.1,0.9-3.4,4.6-3.4,4.6L267.8,198.7z"/>
		<path class="st3" d="M469.2,192.5c0,0-7.5-12.4-18.6-19.8c-11-7.4-16.4-31-22.9-32.8l-1.4-6.3c0,0,4.7-0.4,6.6,3.6
			c2,4,11.7,25.1,23,31.4c11.3,6.3,13.2,8,13.2,8V192.5z"/>
		<path class="st3" d="M232.6,159.3c0,0,3-13.9,18.2-15c15.2-1.1,22.2-30.3,33-35.9c10.9-5.6,16.1-22.6,16.1-22.6l-3.9-1.1
			c0,0-8,19.6-18.7,21.3c-10.6,1.7-12.3,27.3-30.8,31.5c-18.5,4.2-21.1,13.7-21.1,13.7L232.6,159.3z"/>
		<path class="st5" d="M514.4-21.9v83.8c-7-0.1-14.3,0.2-22.5,3c-25.7,9-0.5,31.7-43,25.1c-42.5-6.7,1.7-46.5-22.3-48.2
			c-23.9-1.7-7.2,33.1-37.4,31s-81.4-19.5-36.9-45.3c0,0-35.8-14.7-6.3-31.6c15.9-9.1,17.1-17.9,19.1-24.1h101.8
			C487.3-25.6,505-23.2,514.4-21.9z"/>
		<path class="st3" d="M246.9,252.1c0,0,1-5,3.7-6c2.7-1,1.4-4,1.4-4S258.6,250,246.9,252.1z"/>
		<path class="st3" d="M209.5,238.1c0,0-2.6-2.8-2.1-4.8c0.6-2.1-1.8-2.6-1.8-2.6S213.2,230.2,209.5,238.1z"/>
		<path class="st3" d="M271.8,201.6c0,0,3.3,0.2,4.2,1.9c0.9,1.6,2.7,0.5,2.7,0.5S274.1,208.9,271.8,201.6z"/>
		<path class="st3" d="M149.5,237.9c0,0,5.1,0.3,6.5,2.9c1.3,2.6,4.2,0.8,4.2,0.8S153.2,249.1,149.5,237.9z"/>
		<path class="st3" d="M400,246.7c0,0,5.1,0.3,6.5,2.9c1.3,2.6,4.2,0.8,4.2,0.8S403.6,258,400,246.7z"/>
		<path class="st3" d="M493.5,205.7c0,0,5.5-3.1,8.6-1.4c3.1,1.7,4.8-2,4.8-2S504.9,214.8,493.5,205.7z"/>
		<path class="st3" d="M312.6,222.8c0,0,3.7-5.1,7.2-4.8c3.5,0.3,3.6-3.8,3.6-3.8S326.7,226.4,312.6,222.8z"/>
		<path class="st3" d="M398.1,211.4c0,0,1.3-1.7,2.5-1.5c1.2,0.1,1.3-1.2,1.3-1.2S402.8,212.9,398.1,211.4z"/>
		<linearGradient id="SVGID_4_" gradientUnits="userSpaceOnUse" x1="381.5868" y1="-168.0607" x2="180.0935" y2="140.0527">
			<stop  offset="0" style="stop-color:#3076A1"/>
			<stop  offset="1" style="stop-color:#639C38"/>
		</linearGradient>
		<path class="st6" d="M514.4-28.2V72.5c-5.4,0-11.3,0.3-17.4,2.3c-20.7,6.9-0.4,24.5-34.7,19.4c-34.3-5.1,1.3-35.9-18-37.2
			c-1.9-0.1-3.4,0-4.7,0.4c-2.4,1.9-3.3,5.2-1.4,10.9c9.1,26.1-39.5,9.2-50.7,12.6c0.2,1.2,0.2,2.6-0.2,4.3
			c-0.1,0.3-0.1,0.6-0.2,0.9c5.5,4.9,19.2,12.3,11.7,24.2c-10.7,17-39.1,13.6-43.8-3.7c-1.5-5.4-4.4-7.4-8.3-8.1
			c-0.7,0.2-1.3,0.4-2,0.6c-20.7,6.9-0.4,24.5-34.7,19.4c-34.3-5.1,1.3-35.9-18-37.2c-5-0.3-7.8,1.2-9.6,3.6c0,0.1,0.1,0.2,0.1,0.3
			c2.2,4.8,0.2,7.3-3.8,8.4c-2.1,6.2-4.9,12.3-16.9,11.5c-3-0.2-6.2-0.6-9.5-1.1c1.2,2,1.3,4.4-0.9,7.1c-8.4,10.5-30.8,8.4-34.6-2.3
			c-1.9-5.5-7.1-5.4-13.5-5.2c-1.9,5.9-3.1,10.8-23.3,7.7c-34.3-5.1,1.3-35.9-18-37.2c-0.7-0.1-1.3-0.1-1.9-0.1
			c-5.8,8.5-16.5,11.4-25.9,9.9c-7.1,3.8-15.1,7.1-25.7,6.4c-24.3-1.6-25.3-21.5-6.3-27.2c0,0-0.8-0.3-2.1-0.9
			c-7.7,0.3-16.7,0.9-24.9-5.8C59,42.8,74.1,32.2,74.1,32.2C60.8,8.1,83.9,7.3,83.9,7.3c-1.2-3.1-1.9-6-2.2-8.5c0,0-19.6,6.3-29.8-9
			C41.6-25.5,5.6,3.5,0-28.2H514.4z"/>
		<g>
			<path class="st7" d="M85.2,336.2c0,0-61.3,14.9-10.8,21.8c50.5,6.9,60,0.3,57,7.9c-3,7.6,19.8,8.9,56.2,7.9
				c36.4-1,26.9,9,68.7,8.6c41.8-0.4,112.1-0.7,95.5-7.1c-16.6-6.4,32.4-8.7,30.2-0.3c-2.2,8.5,66.3,7.6,58.1,0
				c-8.2-7.6-12.1-26,21.8-26c33.9,0,45.3-8.4,6-13.3L85.2,336.2z"/>
			<g class="st8">
				<polygon class="st9" points="481.2,342.5 434.6,264.8 434.8,264.4 481.4,342.4 				"/>
			</g>
			<path class="st5" d="M389.9,305.9c0,0-2.7-7.8,4.5-6.9c0,0,5.8-4.8,8.4,1.3c0,0,6.2-3.7,6.6,3.5c0.4,7.2,8.3,2,8.7,8.9
				c0,0,9.1-0.7,6.6,5.9c0,0,12.5-0.9,11.4,8.5h-42.8L389.9,305.9z"/>
			<path class="st10" d="M340.3,381.4c0,0-2.3-10-7.9-16.3c0,0,7.3,6,10,15c0,0,0.7-5.3-1.8-10.3c0,0,4.2,5.2,4,10
				C344.5,384.6,340.3,381.4,340.3,381.4z"/>
			<path class="st10" d="M200,374c0,0-2.4-3.5,3.6-13.2c0,0-3.2,8.7-2.1,11.8c0,0,0.9-4.1,5.7-6.7c0,0-4.1,5.9-3.8,8.1
				c0.3,2.2,5.4-5,5.4-5l-3.3,7.3L200,374z"/>
			<path class="st7" d="M218.2,341.6c0,0-1.1-1.5,0.6-4.7c0,0-0.5,3.2,0.5,4.2c0,0,1.8-2.4,0.6-6.9c0,0,2,1.6,0.4,6.9
				C218.6,346.4,218.2,341.6,218.2,341.6z"/>
			<path class="st7" d="M446.6,341.5c0,0-0.8-2.9,1-6.4c0,0-0.9,3.1,0,5c0,0,0.7,0.3,1.3-1.8c0,0,0.1,2.2-0.5,3.2
				c-0.6,1,2.9-1.3,2.9-6c0,0,1,5.6-2.4,7.1C445.4,344,446.6,341.5,446.6,341.5z"/>
		</g>
	</g>
</g>
</svg>
