<?xml version="1.0" encoding="utf-8"?>
<!-- Generator: Adobe Illustrator 24.0.0, SVG Export Plug-In . SVG Version: 6.00 Build 0)  -->
<svg version="1.1" id="Режим_изоляции"
	 xmlns="http://www.w3.org/2000/svg" xmlns:xlink="http://www.w3.org/1999/xlink" x="0px" y="0px" viewBox="0 0 388.3 196.1"
	 style="enable-background:new 0 0 388.3 196.1;" xml:space="preserve">
<style type="text/css">
	.st0{fill:#FCB03C;}
	.st1{opacity:0.5;fill:#DD8317;}
	.st2{fill:#F4B184;}
	.st3{fill:#6B4D45;}
	.st4{fill:#FFC397;}
	.st5{fill:#E5995A;}
	.st6{fill:#DA4C3E;}
	.st7{fill:#4F342D;}
	.st8{fill:#5B3C36;}
	.st9{fill:#43291E;}
	.st10{fill:#FFFFFF;}
	.st11{fill:#CC3129;}
	.st12{fill:#F2665F;}
	.st13{fill:#FFE7D7;}
	.st14{fill:#BF2825;}
	.st15{fill:#98A0B6;}
	.st16{fill:#EF9D30;}
	.st17{fill:#DD8317;}
</style>
<g>
	<g>
		<path class="st0" d="M327.3,71.3c-8.8,4.8-15.5,5.8-18.8,6c-6.8,0.5-15.2,4.5-15.2,4.5s6.9-8,8.4-16.3c1.7-9.6,0.4-13.7,5.5-22.4
			c4.9-8.2,11.3-21.2,5.7-33.2c-7.5,16-20.2,15.3-37,26.5c-4.2,2.8-13.7,12.1-32.9,12.1c-14.5,0-29.2,6-29.2,6s9.4-11.2,6.4-24.4
			c-6.5,10-21,18.8-29,26.6c2.3-3.6,1-18.4,1-18.4s-10.3,13.9-18.7,16.5c-15.6,4.9-17,16.3-17,16.3l77.5,69.3
			c0,0,48.7,10.2,53.3,9.2c4.6-0.9,12.9-8.1,15.4-15s-3.5-10.2,7.8-15c8-3.4,17.1-12.4,16.6-20.9c-9.8,3.8-16.7,1.1-20.6-0.5
			C313.3,96.3,320.3,86.8,327.3,71.3z"/>
		<path class="st1" d="M313.5,82.9c0,0-8.4-0.2-17.6,3.2c-7.2,2.7-19.8,1-19.8,1s13-10.6,15.5-17.5c5.1-14.3,8.6-25.3,8.6-25.3
			s-9.4,2.1-12.9,12.3c-2.7,7.9-13.8,8.2-13.8,8.2s5.5-5.5,7.6-14.6c1.7-7.3,6-12.9,6-12.9s-5.9,1.2-11.4,5.5s-7.5,9-13.8,12.2
			s-19.1,3.6-31.7,3.2c-14.5-0.4-30,6.8-30,6.8s3.3-3,5.2-5c1.9-2,6.2-10.9,6.2-10.9s-6.8,4.4-14.9,7.5c-7.9,3-14.3,9.2-14.3,9.2
			s1-2,1.6-4c0.6-2,0-5.2,0-5.2s-1.6,1.9-7.1,4.2s-8,7.3-8,7.3s95.8,51.5,101.4,52.8c5.7,1.4,19.1-2.4,28.3-5.3
			c9.2-2.9,14.9-10.6,14.9-10.6s-5.1,1-11.8,0c-6.7-1-11.6-7-11.6-7s9.4-1.2,15.4-5.5C310.1,89.4,313.5,82.9,313.5,82.9z"/>
		<path class="st0" d="M228.6,46.2c-7.9,1.2-17.2,9.5-17.2,9.5l29.7-2.6c0,0,4.4-3,7.7-8.6c3.2-5.6,2.1-12.1,2.1-12.1
			S242.7,44.1,228.6,46.2z"/>
	</g>
	<g>
		<rect x="254.2" y="127.9" class="st2" width="74.2" height="64.8"/>
		<polygon class="st3" points="254.7,111.5 254.8,125.6 331.8,125.6 297.1,111.5 		"/>
		<g>
			<rect x="145.5" y="118" class="st4" width="109.2" height="61.8"/>
			<rect x="14.4" y="110.2" class="st4" width="133.2" height="69.6"/>
			<rect x="29.7" y="122.6" class="st5" width="46.2" height="42"/>
			<g>
				<rect x="96.4" y="120.8" class="st6" width="34.7" height="56.6"/>
				<g>
					<rect x="98.8" y="123" class="st7" width="30" height="54.1"/>
				</g>
			</g>
			<rect x="2.3" y="153.2" class="st6" width="21.3" height="39.6"/>
			<g>
				<polygon class="st3" points="146.7,68.1 146.7,114.1 260.4,114.1 220.4,68.1 				"/>
				<g>
					<polygon class="st8" points="22.1,59.7 3.7,107.9 79.4,107.9 82.9,107.9 162.3,107.9 144.6,59.7 					"/>
					<polygon class="st3" points="82.9,56.7 79.4,56.7 18.8,56.7 0,107.9 3.7,107.9 22.1,59.7 144.6,59.7 143.5,56.7 					"/>
				</g>
				<rect x="146.7" y="114.1" class="st9" width="113.7" height="4.5"/>
				<rect x="254.8" y="125.6" class="st9" width="77" height="4.5"/>
			</g>
			<rect x="156" y="179.8" class="st6" width="98.7" height="12.9"/>
			<g>
				<rect x="17.5" y="177.2" class="st6" width="132.6" height="15.6"/>
				<rect x="23" y="177.2" class="st5" width="117.9" height="3.2"/>
			</g>
			<g>
				<rect x="31.3" y="124.3" class="st10" width="43" height="38.6"/>
			</g>
		</g>
		<rect x="15.8" y="153.2" class="st11" width="7.7" height="39.6"/>
		<rect x="139.5" y="153.2" class="st6" width="21.3" height="39.6"/>
		<rect x="153" y="153.2" class="st11" width="7.7" height="39.6"/>
		<rect x="2.3" y="153.2" class="st12" width="2.9" height="39.6"/>
		<rect x="139.5" y="153.2" class="st12" width="2.9" height="39.6"/>
		<polygon class="st13" points="150.1,121 150,121 145.7,121 141,151.3 150,150.8 159.1,151.3 154.4,121 		"/>
		<rect x="137.6" y="150.2" class="st5" width="24.8" height="2.9"/>
		<rect x="144" y="119" class="st5" width="11.9" height="2.9"/>
		<path class="st13" d="M139.5,117.3c0,0.9,0.8,1.7,1.7,1.7h17.9c0.9,0,1.7-0.8,1.7-1.7v-4.8h-21.3V117.3z"/>
		<polygon class="st13" points="13.1,121 12.9,121 8.7,121 3.9,151.3 13,150.8 22.1,151.3 17.3,121 		"/>
		<rect x="0.5" y="150.2" class="st5" width="24.8" height="2.9"/>
		<rect x="7" y="119" class="st5" width="11.9" height="2.9"/>
		<path class="st13" d="M2.4,117.3c0,0.9,0.8,1.7,1.7,1.7H22c0.9,0,1.7-0.8,1.7-1.7v-4.8H2.4V117.3z"/>
		<rect x="32.8" y="125.4" class="st6" width="39.5" height="35.9"/>
		<rect x="27.9" y="164.6" class="st10" width="49.5" height="2.3"/>
		<rect x="27.9" y="120.8" class="st10" width="49.5" height="2.3"/>
		<rect y="107.9" class="st9" width="162.3" height="4.5"/>
		<g>
			<rect x="182.4" y="128.5" class="st5" width="46.2" height="42"/>
			<g>
				<rect x="184" y="130.3" class="st10" width="43" height="38.6"/>
			</g>
			<rect x="185.5" y="131.4" class="st6" width="39.6" height="35.9"/>
			<rect x="180.6" y="170.6" class="st10" width="49.5" height="2.3"/>
			<rect x="180.6" y="126.7" class="st10" width="49.5" height="2.3"/>
		</g>
		<g>
			<polygon class="st5" points="281,133.2 270.3,133.2 270.3,175.2 281,175.2 288,175.2 300.2,175.2 300.2,133.2 288,133.2 			"/>
			<polygon class="st10" points="281,135 271.9,135 271.9,173.5 281,173.5 288,173.5 298.5,173.5 298.5,135 288,135 			"/>
			<polygon class="st6" points="281,136.1 273.4,136.1 273.4,172 281,172 288,172 296.7,172 296.7,136.1 288,136.1 			"/>
			<polygon class="st10" points="281,175.2 268.5,175.2 268.5,177.5 281,177.5 288,177.5 301.7,177.5 301.7,175.2 288,175.2 			"/>
			<polygon class="st10" points="281,131.4 268.5,131.4 268.5,133.7 281,133.7 288,133.7 301.7,133.7 301.7,131.4 288,131.4 			"/>
		</g>
		<rect x="159.1" y="188.1" class="st11" width="95.5" height="4.6"/>
		<rect x="254.7" y="179.8" class="st11" width="73.8" height="12.9"/>
		<rect x="254.8" y="188.1" class="st14" width="73.7" height="4.6"/>
		<rect x="22.1" y="188.1" class="st11" width="117.4" height="4.6"/>
		<rect x="119.7" y="124.7" class="st15" width="7.5" height="26"/>
		<rect x="100.3" y="124.7" class="st15" width="7.5" height="26"/>
		<rect x="110.1" y="124.7" class="st15" width="7.5" height="26"/>
		<rect x="88.2" y="142" class="st5" width="5.5" height="5.9"/>
		<rect x="34.8" y="44.5" class="st4" width="15" height="24.6"/>
		<rect x="46.6" y="44.5" class="st5" width="3.2" height="24.6"/>
		<rect x="96.4" y="177.2" class="st10" width="34.7" height="3.2"/>
		<rect x="96.4" y="180.3" class="st13" width="34.7" height="3.2"/>
		<rect x="96.4" y="183.5" class="st10" width="34.7" height="3.2"/>
		<rect x="96.4" y="186.6" class="st13" width="34.7" height="3.2"/>
		<rect x="96.4" y="189.8" class="st10" width="34.7" height="3.2"/>
		<rect x="96.4" y="193" class="st13" width="34.7" height="3.2"/>
	</g>
	<g>
		<path class="st16" d="M313.3,154.7c-3.8-1.8-10.2-1.9-10.2-1.9s5.5-0.9,8.6-2.6c3.1-1.7,5-6.3,5-6.3s-4.6,1.5-12.9,1
			s-14.2,6-14.2,6s1.1-1.4,3.1-4.2c2-2.8,1.4-8,1.4-8s-1.2,3.4-8.4,6.8c-7.2,3.4-12.3,13.4-12.3,13.7V172h20.7c0,0,5.1-8.8,9.8-11.4
			c5.9-3.2,14.5-0.8,14.5-0.8S317.1,156.4,313.3,154.7z"/>
		<path class="st1" d="M300.5,150.6c0,0-5.5,0.5-7.2,1.1c-6.1,2.3-9.3,7.5-9.3,7.5s-0.3-2.2,0.5-3.8c0.8-1.6,3.1-5.9,3.1-5.9
			s-3.1,1.4-6.3,3.9c-3,2.4-7.9,10.2-7.9,10.2v8.4H288c0,0,2.7-5.6,4.4-7c3.2-2.7,8.1-6.6,8.1-6.6s-1.9,0-5.8,0.8
			c-1.6,0.3-5.1,2.4-5.1,2.4s1.1-1.5,2-3C294.4,154.1,300.5,150.6,300.5,150.6z"/>
		<path class="st16" d="M320.6,136.8c-3.5-0.2-4.2,2.6-4.2,2.6s2.1-0.1,5.2,0s4.1-2.6,4.1-2.6S324.1,137.1,320.6,136.8z"/>
		<path class="st16" d="M324.1,146.2c-2.7,0.7-7.7,4.8-7.7,4.8s4.1,1.3,8.2,0.1c3.5-1,6.5-4.3,7.2-5.6
			C331.8,145.5,327.6,145.4,324.1,146.2z"/>
	</g>
	<g>
		<path class="st0" d="M234.7,150.9c-0.4,0-0.8,0-1.2-0.1c-10.7-1.3-15.7,2.3-15.7,2.3s2.1-1.5,4.5-5.3c2.4-3.7,0-11.7,0-11.7
			s-2.2,9.2-10.4,11.2c-7.8,1.9-12.1,4.8-12.1,4.8s2.1-2.6,3.1-6.5c0.7-2.7-0.6-7.7-0.6-7.7s-1.4,4.2-8.2,9.9
			c-2.4,2-4.5,5.8-5.2,9.2c-1.1,5.3,0.1,10.3,0.1,10.3h36.2C225.6,160.8,231.8,156.7,234.7,150.9z"/>
		<path class="st1" d="M218.9,154.2c-4.8,0.9-12,4.6-12,4.6s3.9-3,5.6-4.5c1.7-1.5,3-5,3-5s-5.5,2.7-10,3.8
			c-5.4,1.2-7.5,3.6-8.6,5.7c-1.6-2.6,0.8-8.2,0.8-8.2s-2.8,2.1-4.8,6.6c-1.6,3.5,0,10,0,10h21.8c0,0,0.4-1.5,1.2-3.1
			c0.8-1.5,3.5-5,4.9-5.3c7.3-1.7,10.6-5.5,10.6-5.5S225.7,153,218.9,154.2z"/>
		<path class="st0" d="M237.9,135.6c-2.9,0.2-3.9,4.8-3.9,4.8s3.8-1.1,6.3-2.1s2.5-3.6,2.5-3.6S240.7,135.4,237.9,135.6z"/>
		<path class="st0" d="M210.6,136.2c-2.7,1.1-1.6,5.4-1.6,5.4c0.6-1.4,4.4-3.1,5.6-4.8s0.3-3.6,0.3-3.6S213.3,135.1,210.6,136.2z"/>
		<path class="st0" d="M205.4,129.5c-1,1.1-1.1,4.5-1,4.5c0,0,2.6-1.1,3.7-2.7c1.1-1.6,1.1-4.2,1.1-4.2S206.4,128.4,205.4,129.5z"/>
	</g>
	<g>
		<path class="st0" d="M80.3,130.5c-3.7,1.1-10.4,4.9-10.4,4.9s6.1-6,7.6-15.8c1.5-9.8-4.1-16.9-4.1-16.9s-1,11.6-13.4,19.2
			C49.8,128.1,49,143.4,49,143.4s0.1-5-1.9-9.4c-1.8-3.7-5.1-6.1-5.1-6.1s0.9,6.5-2,14.5c-3.5,9.5-0.8,19-0.8,19h33.1
			c0,0,3.6-15,10.7-21.2c7.1-6.2,6.5-14.7,6.5-14.7S87.5,128.3,80.3,130.5z"/>
		<path class="st1" d="M63.5,143.4c0,0,1.1-5.2,4.4-10.1c3.7-5.3,4.4-14.3,4.4-14.3s-12.9,9.1-16.1,15.1c-3.3,6.2-8,19.9-8,19.9
			s0-3.5-0.9-7c-0.7-2.5-2.5-5.6-2.5-5.6s0.7,4-1.1,8.7c-1.7,4.7,0.3,11.3,0.3,11.3h22.7c0,0,0-6.7,2.4-11.1c3.3-6,12-13.8,12-13.8
			c-3.4,0.9-4.5,0.1-9.5,2.1C66.8,140.5,63.5,143.4,63.5,143.4z"/>
		<path class="st0" d="M95.3,96.6c-5.8,1.5-7.7,7.8-7.7,7.8s5.7-0.5,10.8-3.9c5.1-3.4,4.1-7.1,4.1-7.1S101.1,95.1,95.3,96.6z"/>
		<path class="st0" d="M56.5,96.6c-5.4,6-2.9,12.5-2.9,12.5s8-5.5,9.6-10.5c1.6-5-1.7-10.5-1.7-10.5S59.8,93,56.5,96.6z"/>
		<path class="st17" d="M54.9,105.1c0,0,2.9-2.1,5.1-5.2c1.8-2.4,1.9-6.5,1.9-6.5s-2.5,3.2-4.4,5.2
			C54.9,101.6,54.9,105.1,54.9,105.1z"/>
		<path class="st17" d="M91,101.6c5.9-1,7.8-4.1,7.8-4.1s-1.5,0.8-3.7,1.4C92.9,99.5,91,101.6,91,101.6z"/>
		<path class="st0" d="M42.9,104.4c0,0-2.2,4.4-1.2,8.1c1,3.7,2.6,6.6,2.6,6.6s2.6-4.4,1.4-6.9C44.5,109.5,42.9,104.4,42.9,104.4z"
			/>
		<path class="st0" d="M83.7,119c1.4-2.1,4.7-5.1,9.6-6.9c5-1.9,5-6.9,5-6.9s-7.7,1.7-10.1,3.4C83.7,111.7,83.7,119,83.7,119z"/>
	</g>
	<g>
		<path class="st0" d="M265.6,25.6c-2.8,4.2-6.5,9.4-6.5,9.4s3.8-0.9,11.9-6.4c6.2-4.2,7.1-13,7.1-13S268.4,21.4,265.6,25.6z"/>
		<path class="st0" d="M254.4,20.1c0,0,6-6.5,11-9.9s5-9.9,5-9.9s-2,1-9.9,4.8C252.6,8.9,254.4,20.1,254.4,20.1z"/>
		<path class="st0" d="M316.4,65.7c0,0,8.3-2.8,13.2-3.7c9.4-1.9,10.3-10.2,10.3-10.2s-6.5,2-13.6,3.5
			C316.4,57.4,316.4,65.7,316.4,65.7z"/>
		<path class="st0" d="M334.5,13.5c0,0,6.2-1,9.8-1.8s5-5.5,5-5.5s-1.5,1-6.5,1.5S334.5,13.5,334.5,13.5z"/>
		<path class="st0" d="M373.5,33.1c0,0,6.2-1,9.8-1.8s5-5.5,5-5.5s-1.5,1-6.5,1.5S373.5,33.1,373.5,33.1z"/>
		<path class="st0" d="M231.3,16.9c-3.8,4.1-2.7,10.6-2.7,10.6s4.8-4.2,7-8.5s0-8.9,0-8.9S235.1,12.9,231.3,16.9z"/>
		<path class="st0" d="M362.5,3.4c-5.4,1.4-7.9,7.6-7.9,7.6s6.3-1,10.4-3.4c4.2-2.4,4.7-7.5,4.7-7.5S367.9,2,362.5,3.4z"/>
		<path class="st0" d="M338.6,85.3c0,0,5.5-1.2,10-3c4.5-1.8,4.8-6.9,4.8-6.9s-2.8,1.5-7.4,2.7S338.6,85.3,338.6,85.3z"/>
		<path class="st0" d="M324.2,36.6c0,0,7.7-1.7,14-4.2c6.3-2.5,6.6-9.7,6.6-9.7s-3.8,2.1-10.3,3.7C328.1,28.2,324.2,36.6,324.2,36.6
			z"/>
	</g>
</g>
</svg>
