<?xml version="1.0" encoding="utf-8"?>
<!-- Generator: Adobe Illustrator 24.0.0, SVG Export Plug-In . SVG Version: 6.00 Build 0)  -->
<svg version="1.1" id="Слой_1" xmlns="http://www.w3.org/2000/svg" xmlns:xlink="http://www.w3.org/1999/xlink" x="0px" y="0px"
	 viewBox="0 0 197 49" style="enable-background:new 0 0 197 49;" xml:space="preserve">
<style type="text/css">
	.st0{fill:#316FEA;}
	.st1{fill:#383838;}
</style>
<path class="st0" d="M24.5,3C36.4,3,46,12.6,46,24.5S36.4,46,24.5,46S3,36.4,3,24.5S12.6,3,24.5,3 M24.5,0C11,0,0,11,0,24.5
	S11,49,24.5,49S49,38,49,24.5S38,0,24.5,0L24.5,0z"/>
<path class="st1" d="M37.4,35.5H35l-0.4-3H22.8V15.7h3.3v13.9h5.8V15.7h3.3v13.9h2.2V35.5z"/>
<path class="st1" d="M46.4,27l0.1-1.7h-0.1l-1,1.8l-4.3,5.4h-2v-12h3.1v5.7l-0.1,1.6h0.1l1-1.7l4.3-5.6h2v12h-3.1V27z"/>
<path class="st1" d="M57.7,32.6c-0.3,0.1-0.6,0.2-0.9,0.2c-0.3,0-0.6,0-0.8,0c-1.5,0-2.6-0.5-3.4-1.6c-0.8-1-1.2-2.6-1.2-4.8
	c0-2,0.4-3.6,1.3-4.7c0.9-1.1,2.1-1.6,3.7-1.6c0.4,0,0.8,0,1.2,0.1v-4.7h3.1v4.7c0.3,0,0.5-0.1,0.8-0.1c0.2,0,0.4,0,0.6,0
	c1.6,0,2.8,0.5,3.6,1.4s1.2,2.5,1.2,4.6c0,1-0.1,1.9-0.3,2.7c-0.2,0.8-0.5,1.5-0.9,2.1c-0.4,0.6-0.9,1-1.5,1.3s-1.3,0.5-2.1,0.5
	c-0.1,0-0.4,0-0.6,0c-0.3,0-0.5-0.1-0.7-0.1v4.6h-3.1V32.6z M56.9,30.4c0.2,0,0.3,0,0.5,0s0.3-0.1,0.5-0.1v-7.4
	c-0.3-0.1-0.6-0.1-0.9-0.1c-0.7,0-1.3,0.3-1.7,0.9c-0.4,0.6-0.6,1.5-0.6,2.9c0,1.2,0.2,2.2,0.5,2.9S56.1,30.4,56.9,30.4z M61.5,22.7
	c-0.2,0-0.3,0-0.4,0s-0.3,0.1-0.4,0.1v7.4c0.1,0,0.3,0.1,0.4,0.1c0.2,0,0.3,0,0.5,0c0.8,0,1.3-0.3,1.7-0.9c0.4-0.6,0.5-1.7,0.5-3.2
	c0-1.2-0.2-2.1-0.5-2.7C63,23,62.4,22.7,61.5,22.7z"/>
<path class="st1" d="M69,20.5h2.3l0.4,1.4h0.1c0.4-0.6,0.9-1.1,1.5-1.3c0.6-0.3,1.3-0.4,2.1-0.4c1.5,0,2.6,0.5,3.4,1.4
	c0.8,1,1.1,2.5,1.1,4.6c0,1-0.1,1.9-0.4,2.8c-0.2,0.8-0.6,1.5-1.1,2.1c-0.5,0.6-1,1-1.7,1.3s-1.5,0.5-2.3,0.5c-0.5,0-0.9,0-1.2-0.1
	c-0.3-0.1-0.6-0.2-1-0.3v4.9H69V20.5z M74.4,22.8c-0.6,0-1.1,0.2-1.4,0.5c-0.3,0.3-0.6,0.8-0.8,1.4v5c0.2,0.2,0.5,0.3,0.7,0.4
	c0.3,0.1,0.6,0.2,1,0.2c0.9,0,1.6-0.3,2-0.9c0.4-0.6,0.7-1.7,0.7-3.1c0-1.1-0.2-1.9-0.5-2.4S75.1,22.8,74.4,22.8z"/>
<path class="st1" d="M81.4,26.5c0-2,0.5-3.6,1.5-4.7c1-1.1,2.4-1.6,4.2-1.6c1,0,1.8,0.2,2.5,0.5c0.7,0.3,1.3,0.7,1.8,1.3
	c0.5,0.6,0.8,1.2,1,2c0.2,0.8,0.3,1.6,0.3,2.6c0,2-0.5,3.6-1.5,4.7c-1,1.1-2.4,1.6-4.2,1.6c-1,0-1.8-0.2-2.5-0.5s-1.3-0.7-1.8-1.3
	c-0.5-0.6-0.8-1.2-1.1-2C81.5,28.3,81.4,27.4,81.4,26.5z M84.6,26.5c0,0.5,0,1,0.1,1.5c0.1,0.4,0.2,0.8,0.4,1.2s0.4,0.6,0.8,0.8
	c0.3,0.2,0.7,0.3,1.1,0.3c0.8,0,1.4-0.3,1.8-0.9c0.4-0.6,0.6-1.5,0.6-2.8c0-1.1-0.2-2-0.6-2.7s-1-1-1.9-1c-0.8,0-1.4,0.3-1.8,0.9
	C84.8,24.2,84.6,25.2,84.6,26.5z"/>
<path class="st1" d="M94.9,20.5c0.6,0,1.2-0.1,2-0.1c0.8,0,1.6-0.1,2.6-0.1c1.8,0,3,0.3,3.8,0.8s1.1,1.3,1.1,2.3
	c0,0.6-0.2,1.1-0.5,1.6c-0.3,0.5-0.8,0.9-1.5,1.2v0.1c0.9,0.2,1.5,0.5,1.9,1c0.4,0.5,0.6,1.1,0.6,1.9c0,1.2-0.5,2.1-1.4,2.7
	c-0.9,0.6-2.4,0.9-4.4,0.9c-0.7,0-1.4,0-2.1-0.1s-1.4-0.1-2-0.2V20.5z M99.6,25.4c0.5,0,0.9-0.1,1.3-0.4c0.3-0.2,0.5-0.6,0.5-0.9
	c0-0.4-0.1-0.7-0.4-0.9c-0.3-0.2-0.8-0.3-1.5-0.3c-0.4,0-0.7,0-0.9,0s-0.4,0-0.6,0v2.5H99.6z M97.9,30.1c0.2,0,0.4,0.1,0.6,0.1
	c0.2,0,0.4,0,0.7,0c0.9,0,1.5-0.1,1.8-0.4c0.4-0.2,0.6-0.6,0.6-1.1c0-0.4-0.2-0.8-0.5-1c-0.3-0.3-0.9-0.4-1.7-0.4h-1.6V30.1z"/>
<path class="st1" d="M106.9,21.2c0.6-0.3,1.4-0.5,2.3-0.7s1.8-0.3,2.8-0.3c0.8,0,1.5,0.1,2.1,0.3c0.6,0.2,1,0.5,1.3,0.9
	s0.6,0.8,0.7,1.3c0.1,0.5,0.2,1.1,0.2,1.7c0,0.7,0,1.4-0.1,2.1s-0.1,1.4-0.1,2.1s0,1.4,0.1,2c0,0.6,0.2,1.3,0.4,1.8H114l-0.5-1.7
	h-0.1c-0.3,0.5-0.8,0.9-1.3,1.3c-0.6,0.4-1.3,0.5-2.2,0.5c-0.6,0-1.1-0.1-1.5-0.3s-0.8-0.4-1.2-0.7c-0.3-0.3-0.6-0.7-0.7-1.1
	c-0.2-0.4-0.3-0.9-0.3-1.4c0-0.7,0.2-1.4,0.5-1.9s0.8-0.9,1.4-1.2s1.4-0.5,2.2-0.6c0.9-0.1,1.8-0.2,2.9-0.1c0.1-0.9,0-1.5-0.2-1.9
	s-0.8-0.6-1.6-0.6c-0.6,0-1.3,0.1-2,0.2c-0.7,0.1-1.3,0.3-1.7,0.5L106.9,21.2z M110.9,30.1c0.6,0,1.1-0.1,1.5-0.4s0.6-0.6,0.8-0.9
	v-1.6c-0.5,0-1-0.1-1.4,0s-0.9,0.1-1.2,0.2c-0.4,0.1-0.6,0.3-0.8,0.5s-0.3,0.5-0.3,0.8c0,0.4,0.1,0.8,0.4,1
	C110,30,110.4,30.1,110.9,30.1z"/>
<path class="st1" d="M125.2,28l-1.4,0.3l-2.3,4.2h-3.7l2.3-3.8l1.2-0.9c-0.8-0.1-1.4-0.5-1.9-1.1c-0.5-0.6-0.8-1.4-0.8-2.3
	c0-1.5,0.5-2.5,1.5-3.2c1-0.7,2.5-1,4.5-1c0.8,0,1.5,0,2.1,0.1s1.2,0.2,1.7,0.3v12h-3.1V28z M125.2,26.3V23
	c-0.2-0.1-0.4-0.1-0.6-0.2c-0.2,0-0.4,0-0.6,0c-0.7,0-1.3,0.2-1.7,0.5c-0.4,0.3-0.6,0.8-0.6,1.4c0,0.6,0.2,1.1,0.7,1.3
	c0.4,0.3,1.1,0.4,1.9,0.4L125.2,26.3z"/>
<path class="st1" d="M138.3,27.5v-2.2h1.5c0.6,0,1-0.1,1.4-0.3s0.5-0.5,0.5-0.9c0-0.4-0.2-0.7-0.5-0.9c-0.3-0.2-0.8-0.3-1.5-0.3
	c-0.6,0-1.2,0.1-1.7,0.2c-0.5,0.2-0.9,0.3-1.2,0.5l-0.7-2.4c0.5-0.3,1.1-0.5,1.9-0.7c0.8-0.2,1.6-0.3,2.5-0.3c1.4,0,2.4,0.3,3.1,0.8
	c0.7,0.5,1,1.3,1,2.2c0,0.3,0,0.5-0.1,0.8c-0.1,0.3-0.2,0.5-0.3,0.8c-0.2,0.3-0.4,0.5-0.6,0.7c-0.2,0.2-0.5,0.4-0.8,0.5v0.1
	c0.8,0.2,1.4,0.5,1.8,1c0.4,0.5,0.5,1.1,0.5,2c0,0.5-0.1,1-0.3,1.4c-0.2,0.4-0.5,0.8-0.9,1.1c-0.4,0.3-1,0.6-1.6,0.8
	s-1.4,0.3-2.3,0.3c-0.9,0-1.6-0.1-2.3-0.3c-0.6-0.2-1.2-0.4-1.6-0.6l0.7-2.4c0.4,0.2,0.8,0.4,1.3,0.5c0.5,0.1,1.1,0.2,1.7,0.2
	c1.5,0,2.2-0.5,2.2-1.4c0-0.4-0.2-0.7-0.6-0.9c-0.4-0.2-1.1-0.3-2.1-0.3H138.3z"/>
<path class="st1" d="M157,31.5c-0.5,0.4-1.1,0.7-2,1s-1.7,0.4-2.6,0.4c-1.9,0-3.4-0.6-4.2-1.7c-0.9-1.1-1.3-2.7-1.3-4.6
	c0-2.1,0.5-3.7,1.5-4.8s2.4-1.6,4.2-1.6c0.6,0,1.2,0.1,1.8,0.2c0.6,0.2,1.1,0.4,1.5,0.8c0.4,0.4,0.8,0.9,1.1,1.5
	c0.3,0.6,0.4,1.4,0.4,2.3c0,0.3,0,0.7-0.1,1.1c0,0.4-0.1,0.8-0.2,1.2h-7.2c0,1,0.3,1.8,0.8,2.3c0.5,0.5,1.2,0.8,2.3,0.8
	c0.7,0,1.2-0.1,1.8-0.3c0.5-0.2,0.9-0.4,1.2-0.6L157,31.5z M152.5,22.7c-0.8,0-1.4,0.2-1.8,0.7c-0.4,0.5-0.6,1.1-0.7,2h4.5
	c0.1-0.9-0.1-1.5-0.4-2C153.7,22.9,153.2,22.7,152.5,22.7z"/>
<path class="st1" d="M169.9,27l0.2-2.5h-0.1l-1,2.1l-2.3,3.7h-1.1l-2.5-3.7l-0.9-2.1h-0.1l0.3,2.5v5.5h-2.8v-12h3.2l2.8,4.5l0.7,1.5
	h0.1L167,25l2.5-4.5h3.3v12h-3V27z"/>
<path class="st1" d="M182.1,23.3h-2.4c-0.1,1.1-0.2,2.3-0.3,3.4c-0.1,1.1-0.3,2.1-0.6,3c-0.3,0.9-0.7,1.6-1.1,2.2
	c-0.5,0.6-1.1,0.8-1.9,0.8c-0.9,0-1.6-0.1-2-0.4l0.4-2.5c0.3,0.1,0.5,0.1,0.7,0.1c0.3,0,0.6-0.1,0.8-0.4s0.4-0.8,0.6-1.5
	c0.2-0.7,0.3-1.7,0.4-2.9c0.1-1.2,0.2-2.8,0.2-4.6h8.2v12h-3.1V23.3z"/>
<path class="st1" d="M194.3,28l-1.4,0.3l-2.3,4.2h-3.7l2.3-3.8l1.2-0.9c-0.8-0.1-1.4-0.5-1.9-1.1c-0.5-0.6-0.8-1.4-0.8-2.3
	c0-1.5,0.5-2.5,1.5-3.2c1-0.7,2.5-1,4.5-1c0.8,0,1.5,0,2.1,0.1s1.2,0.2,1.7,0.3v12h-3.1V28z M194.3,26.3V23
	c-0.2-0.1-0.4-0.1-0.6-0.2c-0.2,0-0.4,0-0.6,0c-0.7,0-1.3,0.2-1.7,0.5c-0.4,0.3-0.6,0.8-0.6,1.4c0,0.6,0.2,1.1,0.7,1.3
	c0.4,0.3,1.1,0.4,1.9,0.4L194.3,26.3z"/>
</svg>
