<?xml version="1.0" encoding="utf-8"?>
<!-- Generator: Adobe Illustrator 24.0.0, SVG Export Plug-In . SVG Version: 6.00 Build 0)  -->
<svg version="1.1" id="Isolation_Mode" xmlns="http://www.w3.org/2000/svg" xmlns:xlink="http://www.w3.org/1999/xlink" x="0px"
	 y="0px" viewBox="0 0 95.8 60.9" style="enable-background:new 0 0 95.8 60.9;" xml:space="preserve">
<style type="text/css">
	.st0{opacity:0.33;fill:#8A8B95;}
	.st1{fill:#9D771C;}
	.st2{fill:#F0F0EB;}
	.st3{opacity:0.36;fill:#C5C9CE;}
	.st4{fill:#EBCE29;}
	.st5{fill:#F7D82B;}
	.st6{opacity:0.36;fill:#A98C74;}
	.st7{fill:#4A4B50;}
	.st8{fill:#FFFFFF;}
	.st9{fill:#DFE4E4;}
	.st10{fill:#67576A;}
	.st11{opacity:0.16;fill:#4A4B50;}
	.st12{opacity:0.87;fill:#36ADB2;}
	.st13{opacity:0.87;fill:#2FA9B2;}
	.st14{opacity:0.36;fill:#E6AF88;}
	.st15{fill:url(#SVGID_1_);}
	.st16{opacity:0.45;fill:#8A8B95;}
</style>
<path class="st0" d="M-0.7,55.3c0,3.1,20.5,5.6,45.9,5.6c25.3,0,45.9-2.5,45.9-5.6c0-3.1-20.5-5.6-45.9-5.6
	C19.8,49.8-0.7,52.3-0.7,55.3z"/>
<g>
	<polygon class="st1" points="68.3,26 73.3,36.6 58.5,41.5 9,41.5 9,25.9 25.9,25.9 25.9,21.6 41.1,23.6 41.1,25.9 	"/>
	<polygon class="st2" points="5.3,5.3 5.3,9.6 27.9,10.7 45.9,33.5 95.8,20.8 90.2,16.2 47.1,16.4 26.6,5.3 	"/>
	<polygon class="st3" points="88.6,19.2 79.7,21.4 45.5,21.4 45.4,19 88.2,18.9 	"/>
	<polygon class="st3" points="72.9,23.2 64.4,25.3 45.8,25.3 45.6,23.2 	"/>
	<polygon class="st3" points="57.7,27 46,30 45.9,27 	"/>
	<path class="st4" d="M28.2,12.8H13.3L13,14.3h3.7V23h-5.9l-0.4,1.6H30L28.2,12.8z M25.9,23h-7.3v-8.7h7.3V23z"/>
	<polygon class="st5" points="1.5,24.4 1.5,43 9,43 14.3,28.4 25.1,28.4 34.5,28.4 38.4,35.8 41.5,35.8 36.6,24.4 	"/>
	<polygon class="st6" points="1.5,28.3 7.3,28.3 7.3,24.4 11.1,24.4 6.9,43 1.5,43 	"/>
	<g>
		<path class="st7" d="M37,43.8l0.8-0.1l-0.1-0.4l-0.3-2l-0.8,0.1c-0.1-0.3-0.2-0.7-0.3-1c-0.1-0.3-0.2-0.6-0.4-1l0.7-0.4l-0.7-1.3
			l-0.5-0.9l-0.7,0.4c-0.4-0.6-0.8-1.1-1.3-1.6l0.5-0.6L32,33.6l-0.5,0.6c-0.3-0.2-0.7-0.4-1-0.6c-0.3-0.1-0.5-0.3-0.8-0.4l0.3-0.7
			l-2.3-0.8l-0.3,0.7c-0.7-0.2-1.3-0.3-2-0.4l0-0.8l-2.4,0v0.8c-0.7,0.1-1.4,0.2-2,0.4l-0.3-0.7l-2.3,0.8l0.3,0.7
			c-0.6,0.3-1.2,0.6-1.8,1l-0.5-0.6L14.6,35l0.5,0.6c-0.5,0.5-0.9,1-1.3,1.6l-0.7-0.4l-1.2,2.1l0.7,0.4c-0.3,0.6-0.5,1.3-0.7,1.9
			l-0.8-0.1l-0.4,2.4l0.8,0.1c-0.1,0.7-0.1,1.4,0,2.1l-0.8,0.1l0.4,2.4l0.8-0.1c0.1,0.3,0.2,0.7,0.3,1c0.1,0.3,0.2,0.6,0.4,1
			l-0.7,0.4l1.1,1.9l0.1,0.2l0.7-0.4c0.4,0.6,0.8,1.1,1.3,1.6l-0.5,0.6l1.8,1.6l0.5-0.6c0.6,0.4,1.2,0.7,1.8,1L18.4,57l2.3,0.8
			l0.3-0.7c0.7,0.2,1.3,0.3,2,0.4v0.8l2.4,0v-0.8c0.7-0.1,1.4-0.2,2-0.3l0.3,0.7l2.3-0.8l-0.3-0.7c0.6-0.3,1.2-0.6,1.8-1l0.5,0.6
			l1.9-1.5l-0.5-0.6c0.5-0.5,0.9-1,1.3-1.6l0.7,0.4l1.2-2.1l-0.7-0.4c0.3-0.6,0.5-1.3,0.7-1.9l0.8,0.1l0.4-2.4L37,45.8
			C37.1,45.1,37.1,44.4,37,43.8z M27.6,51.4c-1,0.5-2.2,0.8-3.5,0.8c-1.3,0-2.4-0.3-3.5-0.9L20,50.9c-0.2-0.1-0.4-0.2-0.5-0.4l0,0
			L18.9,50l0,0c-1.4-1.4-2.2-3.2-2.2-5.3c0-0.4,0-0.8,0.1-1.3c0-0.3,0.1-0.5,0.2-0.8c0.1-0.2,0.1-0.4,0.2-0.6
			c0.1-0.3,0.2-0.5,0.3-0.7c1.1-2.1,3.1-3.7,5.6-4c0.3,0,0.5-0.1,0.8-0.1c0.1,0,0.2,0,0.3,0c0.1,0,0.2,0,0.3,0c0.3,0,0.5,0,0.8,0.1
			c2.4,0.4,4.5,1.9,5.6,4.1c0.1,0.2,0.2,0.5,0.3,0.7c0.1,0.2,0.1,0.4,0.2,0.6c0.1,0.2,0.1,0.5,0.2,0.8c0.1,0.4,0.1,0.8,0.1,1.3
			c0,2.1-0.9,4-2.3,5.3l-0.6,0.5c-0.2,0.1-0.3,0.3-0.5,0.4C28.1,51.1,27.8,51.3,27.6,51.4z"/>
		<path class="st8" d="M25.8,43.8c-0.2,0-0.4,0.2-0.4,0.4c0,0.2,0.2,0.4,0.4,0.4c0.2,0,0.4-0.2,0.4-0.4C26.2,44,26,43.8,25.8,43.8z
			 M25.2,45.7c-0.2,0-0.4,0.2-0.4,0.4c0,0.2,0.2,0.4,0.4,0.4c0.2,0,0.4-0.2,0.4-0.4C25.6,45.9,25.4,45.7,25.2,45.7z M25.2,44.7
			c0-0.5-0.4-1-1-1c-0.5,0-1,0.4-1,1c0,0.5,0.4,1,1,1C24.7,45.7,25.2,45.3,25.2,44.7z M24.2,45.4c-0.4,0-0.7-0.3-0.7-0.7
			c0-0.4,0.3-0.7,0.7-0.7c0.4,0,0.7,0.3,0.7,0.7C24.9,45.1,24.6,45.4,24.2,45.4z M24.2,43.3c0.2,0,0.4-0.2,0.4-0.4
			c0-0.2-0.2-0.4-0.4-0.4c-0.2,0-0.4,0.2-0.4,0.4C23.8,43.1,24,43.3,24.2,43.3z M23.2,45.7c-0.2,0-0.4,0.2-0.4,0.4
			c0,0.2,0.2,0.4,0.4,0.4c0.2,0,0.4-0.2,0.4-0.4C23.5,45.9,23.4,45.7,23.2,45.7z M22.5,43.8c-0.2,0-0.4,0.2-0.4,0.4
			c0,0.2,0.2,0.4,0.4,0.4c0.2,0,0.4-0.2,0.4-0.4C22.9,44,22.7,43.8,22.5,43.8z"/>
		<path class="st2" d="M31.7,44.7c0,2.1-0.9,4-2.3,5.3l-0.6,0.5c-0.2,0.1-0.3,0.3-0.5,0.4c-0.2,0.1-0.5,0.3-0.7,0.4
			c-1,0.5-2.2,0.8-3.5,0.8c-1.3,0-2.4-0.3-3.5-0.9L20,50.9c-0.2-0.1-0.4-0.2-0.5-0.4l0,0L18.9,50l0,0c-1.4-1.4-2.2-3.2-2.2-5.3
			c0-0.4,0-0.8,0.1-1.3c0-0.3,0.1-0.5,0.2-0.8c0.1-0.2,0.1-0.4,0.2-0.6c0.1-0.3,0.2-0.5,0.3-0.7c1.1-2.1,3.1-3.7,5.6-4
			c0.3,0,0.5-0.1,0.8-0.1c0.1,0,0.2,0,0.3,0c0.1,0,0.2,0,0.3,0c0.3,0,0.5,0,0.8,0.1c2.4,0.4,4.5,1.9,5.6,4.1
			c0.1,0.2,0.2,0.5,0.3,0.7c0.1,0.2,0.1,0.4,0.2,0.6c0.1,0.2,0.1,0.5,0.2,0.8C31.6,43.9,31.7,44.3,31.7,44.7z"/>
		<path class="st9" d="M29.2,44.7c0-2.8-2.2-5-5-5c-2.8,0-5,2.2-5,5c0,2.8,2.2,5,5,5C26.9,49.7,29.2,47.5,29.2,44.7z"/>
		<path class="st8" d="M26.7,44.7c0-1.4-1.1-2.6-2.6-2.6c-1.4,0-2.6,1.1-2.6,2.6c0,1.4,1.1,2.6,2.6,2.6
			C25.6,47.3,26.7,46.1,26.7,44.7z"/>
		<path class="st10" d="M24.5,42.9c0,0.2-0.2,0.4-0.4,0.4c-0.2,0-0.4-0.2-0.4-0.4c0-0.2,0.2-0.4,0.4-0.4
			C24.4,42.6,24.5,42.7,24.5,42.9z"/>
		<path class="st10" d="M22.9,44.2c0,0.2-0.2,0.4-0.4,0.4c-0.2,0-0.4-0.2-0.4-0.4c0-0.2,0.2-0.4,0.4-0.4
			C22.7,43.8,22.9,44,22.9,44.2z"/>
		<path class="st10" d="M23.5,46.1c0,0.2-0.2,0.4-0.4,0.4c-0.2,0-0.4-0.2-0.4-0.4c0-0.2,0.2-0.4,0.4-0.4
			C23.4,45.7,23.5,45.9,23.5,46.1z"/>
		<path class="st10" d="M25.6,46.1c0,0.2-0.2,0.4-0.4,0.4c-0.2,0-0.4-0.2-0.4-0.4c0-0.2,0.2-0.4,0.4-0.4
			C25.4,45.7,25.6,45.9,25.6,46.1z"/>
		<path class="st10" d="M26.2,44.2c0,0.2-0.2,0.4-0.4,0.4c-0.2,0-0.4-0.2-0.4-0.4c0-0.2,0.2-0.4,0.4-0.4C26,43.8,26.2,44,26.2,44.2z
			"/>
		<path class="st10" d="M24.2,43.7c-0.5,0-1,0.4-1,1c0,0.5,0.4,1,1,1c0.6,0,1-0.4,1-1C25.2,44.2,24.7,43.7,24.2,43.7z M24.2,45.4
			c-0.4,0-0.7-0.3-0.7-0.7c0-0.4,0.3-0.7,0.7-0.7c0.4,0,0.7,0.3,0.7,0.7C24.9,45.1,24.6,45.4,24.2,45.4z"/>
		<path class="st11" d="M24.2,33.1c-6.4,0-11.6,5.2-11.6,11.6c0,6.4,5.2,11.6,11.6,11.6c6.4,0,11.6-5.2,11.6-11.6
			C35.8,38.3,30.6,33.1,24.2,33.1z M29.4,50.1l-0.6,0.5c-0.2,0.1-0.3,0.3-0.5,0.4c-0.2,0.1-0.5,0.3-0.7,0.4c-1,0.5-2.2,0.8-3.5,0.8
			c-1.3,0-2.4-0.3-3.5-0.9L20,50.9c-0.2-0.1-0.3-0.2-0.5-0.4l0,0L18.9,50l0,0c-1.4-1.4-2.2-3.2-2.2-5.3c0-0.4,0-0.8,0.1-1.3
			c0-0.3,0.1-0.5,0.2-0.8c0.1-0.2,0.1-0.4,0.2-0.6c0.1-0.3,0.2-0.5,0.3-0.7c1.1-2.1,3.1-3.7,5.6-4c0.3,0,0.5-0.1,0.8-0.1
			c0.1,0,0.2,0,0.3,0c0.1,0,0.2,0,0.3,0c0.3,0,0.5,0,0.8,0.1c2.4,0.4,4.5,1.9,5.6,4.1c0.1,0.2,0.2,0.5,0.3,0.7
			c0.1,0.2,0.1,0.4,0.2,0.6c0.1,0.3,0.1,0.5,0.2,0.8c0.1,0.4,0.1,0.8,0.1,1.3C31.7,46.8,30.8,48.7,29.4,50.1z"/>
	</g>
	<g>
		<path class="st7" d="M79.1,43.8l0.8-0.1l-0.1-0.4l-0.3-2l-0.8,0.1c-0.1-0.3-0.2-0.7-0.3-1c-0.1-0.3-0.2-0.6-0.4-1l0.7-0.4
			l-0.7-1.3l-0.5-0.9l-0.7,0.4c-0.4-0.6-0.8-1.1-1.3-1.6l0.5-0.6l-1.8-1.6l-0.5,0.6c-0.3-0.2-0.7-0.4-1-0.6
			c-0.3-0.1-0.5-0.3-0.8-0.4l0.3-0.7l-2.3-0.8l-0.3,0.7c-0.7-0.2-1.3-0.3-2-0.4l0-0.8l-2.4,0v0.8c-0.7,0.1-1.4,0.2-2,0.4l-0.3-0.7
			l-2.3,0.8l0.3,0.7c-0.6,0.3-1.2,0.6-1.8,1l-0.5-0.6L56.7,35l0.5,0.6c-0.5,0.5-0.9,1-1.3,1.6l-0.7-0.4l-1.2,2.1l0.7,0.4
			c-0.3,0.6-0.5,1.3-0.7,1.9l-0.8-0.1l-0.4,2.4l0.8,0.1c-0.1,0.7-0.1,1.4,0,2.1l-0.8,0.1l0.4,2.4l0.8-0.1c0.1,0.3,0.2,0.7,0.3,1
			c0.1,0.3,0.2,0.6,0.4,1l-0.7,0.4l1.1,1.9l0.1,0.2l0.7-0.4c0.4,0.6,0.8,1.1,1.3,1.6l-0.5,0.6l1.8,1.6l0.5-0.6
			c0.6,0.4,1.2,0.7,1.8,1L60.4,57l2.3,0.8l0.3-0.7c0.7,0.2,1.3,0.3,2,0.4v0.8l2.4,0v-0.8c0.7-0.1,1.4-0.2,2-0.3l0.3,0.7l2.3-0.8
			l-0.3-0.7c0.6-0.3,1.2-0.6,1.8-1l0.5,0.6l1.9-1.5l-0.5-0.6c0.5-0.5,0.9-1,1.3-1.6l0.7,0.4l1.2-2.1l-0.7-0.4
			c0.3-0.6,0.5-1.3,0.7-1.9l0.8,0.1l0.4-2.4l-0.8-0.1C79.1,45.1,79.1,44.4,79.1,43.8z M69.7,51.4c-1,0.5-2.2,0.8-3.5,0.8
			c-1.3,0-2.4-0.3-3.5-0.9l-0.7-0.4c-0.2-0.1-0.3-0.2-0.5-0.4l0,0L61,50l0,0c-1.4-1.4-2.2-3.2-2.2-5.3c0-0.4,0-0.8,0.1-1.3
			c0-0.3,0.1-0.5,0.2-0.8c0.1-0.2,0.1-0.4,0.2-0.6c0.1-0.3,0.2-0.5,0.3-0.7c1.1-2.1,3.1-3.7,5.6-4c0.3,0,0.5-0.1,0.8-0.1
			c0.1,0,0.2,0,0.3,0c0.1,0,0.2,0,0.3,0c0.3,0,0.5,0,0.8,0.1c2.4,0.4,4.5,1.9,5.6,4.1c0.1,0.2,0.2,0.5,0.3,0.7
			c0.1,0.2,0.1,0.4,0.2,0.6c0.1,0.2,0.1,0.5,0.2,0.8c0.1,0.4,0.1,0.8,0.1,1.3c0,2.1-0.9,4-2.3,5.3l-0.6,0.5
			c-0.2,0.1-0.3,0.3-0.5,0.4C70.2,51.1,69.9,51.3,69.7,51.4z"/>
		<path class="st8" d="M67.9,43.8c-0.2,0-0.4,0.2-0.4,0.4c0,0.2,0.2,0.4,0.4,0.4c0.2,0,0.4-0.2,0.4-0.4C68.3,44,68.1,43.8,67.9,43.8
			z M67.3,45.7c-0.2,0-0.4,0.2-0.4,0.4c0,0.2,0.2,0.4,0.4,0.4c0.2,0,0.4-0.2,0.4-0.4C67.7,45.9,67.5,45.7,67.3,45.7z M67.3,44.7
			c0-0.5-0.4-1-1-1c-0.5,0-1,0.4-1,1c0,0.5,0.4,1,1,1C66.8,45.7,67.3,45.3,67.3,44.7z M66.3,45.4c-0.4,0-0.7-0.3-0.7-0.7
			c0-0.4,0.3-0.7,0.7-0.7c0.4,0,0.7,0.3,0.7,0.7C66.9,45.1,66.6,45.4,66.3,45.4z M66.3,43.3c0.2,0,0.4-0.2,0.4-0.4
			c0-0.2-0.2-0.4-0.4-0.4c-0.2,0-0.4,0.2-0.4,0.4C65.9,43.1,66.1,43.3,66.3,43.3z M65.3,45.7c-0.2,0-0.4,0.2-0.4,0.4
			c0,0.2,0.2,0.4,0.4,0.4c0.2,0,0.4-0.2,0.4-0.4C65.6,45.9,65.4,45.7,65.3,45.7z M64.6,43.8c-0.2,0-0.4,0.2-0.4,0.4
			c0,0.2,0.2,0.4,0.4,0.4c0.2,0,0.4-0.2,0.4-0.4C65,44,64.8,43.8,64.6,43.8z"/>
		<path class="st2" d="M73.8,44.7c0,2.1-0.9,4-2.3,5.3l-0.6,0.5c-0.2,0.1-0.3,0.3-0.5,0.4c-0.2,0.1-0.5,0.3-0.7,0.4
			c-1,0.5-2.2,0.8-3.5,0.8c-1.3,0-2.4-0.3-3.5-0.9l-0.7-0.4c-0.2-0.1-0.3-0.2-0.5-0.4l0,0L61,50l0,0c-1.4-1.4-2.2-3.2-2.2-5.3
			c0-0.4,0-0.8,0.1-1.3c0-0.3,0.1-0.5,0.2-0.8c0.1-0.2,0.1-0.4,0.2-0.6c0.1-0.3,0.2-0.5,0.3-0.7c1.1-2.1,3.1-3.7,5.6-4
			c0.3,0,0.5-0.1,0.8-0.1c0.1,0,0.2,0,0.3,0c0.1,0,0.2,0,0.3,0c0.3,0,0.5,0,0.8,0.1c2.4,0.4,4.5,1.9,5.6,4.1
			c0.1,0.2,0.2,0.5,0.3,0.7c0.1,0.2,0.1,0.4,0.2,0.6c0.1,0.2,0.1,0.5,0.2,0.8C73.7,43.9,73.8,44.3,73.8,44.7z"/>
		<path class="st9" d="M71.3,44.7c0-2.8-2.2-5-5-5c-2.8,0-5,2.2-5,5c0,2.8,2.2,5,5,5C69,49.7,71.3,47.5,71.3,44.7z"/>
		<path class="st8" d="M68.8,44.7c0-1.4-1.1-2.6-2.5-2.6c-1.4,0-2.6,1.1-2.6,2.6c0,1.4,1.1,2.6,2.6,2.6
			C67.7,47.3,68.8,46.1,68.8,44.7z"/>
		<path class="st10" d="M66.6,42.9c0,0.2-0.2,0.4-0.4,0.4c-0.2,0-0.4-0.2-0.4-0.4c0-0.2,0.2-0.4,0.4-0.4
			C66.5,42.6,66.6,42.7,66.6,42.9z"/>
		<path class="st10" d="M65,44.2c0,0.2-0.2,0.4-0.4,0.4c-0.2,0-0.4-0.2-0.4-0.4c0-0.2,0.2-0.4,0.4-0.4C64.8,43.8,65,44,65,44.2z"/>
		<path class="st10" d="M65.6,46.1c0,0.2-0.2,0.4-0.4,0.4c-0.2,0-0.4-0.2-0.4-0.4c0-0.2,0.2-0.4,0.4-0.4
			C65.4,45.7,65.6,45.9,65.6,46.1z"/>
		<path class="st10" d="M67.7,46.1c0,0.2-0.2,0.4-0.4,0.4c-0.2,0-0.4-0.2-0.4-0.4c0-0.2,0.2-0.4,0.4-0.4
			C67.5,45.7,67.7,45.9,67.7,46.1z"/>
		<path class="st10" d="M68.3,44.2c0,0.2-0.2,0.4-0.4,0.4c-0.2,0-0.4-0.2-0.4-0.4c0-0.2,0.2-0.4,0.4-0.4
			C68.1,43.8,68.3,44,68.3,44.2z"/>
		<path class="st10" d="M66.3,43.7c-0.5,0-1,0.4-1,1c0,0.5,0.4,1,1,1c0.6,0,1-0.4,1-1C67.3,44.2,66.8,43.7,66.3,43.7z M66.3,45.4
			c-0.4,0-0.7-0.3-0.7-0.7c0-0.4,0.3-0.7,0.7-0.7c0.4,0,0.7,0.3,0.7,0.7C66.9,45.1,66.6,45.4,66.3,45.4z"/>
		<path class="st11" d="M66.3,33.1c-6.4,0-11.6,5.2-11.6,11.6c0,6.4,5.2,11.6,11.6,11.6c6.4,0,11.6-5.2,11.6-11.6
			C77.9,38.3,72.7,33.1,66.3,33.1z M71.5,50.1l-0.6,0.5c-0.2,0.1-0.3,0.3-0.5,0.4c-0.2,0.1-0.5,0.3-0.7,0.4c-1,0.5-2.2,0.8-3.5,0.8
			c-1.3,0-2.4-0.3-3.5-0.9l-0.7-0.4c-0.2-0.1-0.3-0.2-0.5-0.4l0,0L61,50l0,0c-1.4-1.4-2.2-3.2-2.2-5.3c0-0.4,0-0.8,0.1-1.3
			c0-0.3,0.1-0.5,0.2-0.8c0.1-0.2,0.1-0.4,0.2-0.6c0.1-0.3,0.2-0.5,0.3-0.7c1.1-2.1,3.1-3.7,5.6-4c0.3,0,0.5-0.1,0.8-0.1
			c0.1,0,0.2,0,0.3,0c0.1,0,0.2,0,0.3,0c0.3,0,0.5,0,0.8,0.1c2.4,0.4,4.5,1.9,5.6,4.1c0.1,0.2,0.2,0.5,0.3,0.7
			c0.1,0.2,0.1,0.4,0.2,0.6c0.1,0.3,0.1,0.5,0.2,0.8c0.1,0.4,0.1,0.8,0.1,1.3C73.7,46.8,72.9,48.7,71.5,50.1z"/>
	</g>
	<path class="st5" d="M51.4,45c0,1-0.9,1.9-1.9,1.9h-8.7c-1.1,0-1.9-0.9-1.9-1.9v-5.9c0-1,0.9-1.9,1.9-1.9h8.7
		c1.1,0,1.9,0.9,1.9,1.9V45z"/>
	<polygon class="st1" points="0,46.9 7.8,46.9 9,43 0,43 	"/>
	<rect x="5.3" y="2.9" class="st8" width="3.7" height="2.4"/>
	<rect x="18.6" y="14.3" class="st12" width="7.3" height="8.7"/>
	<polygon class="st13" points="16.7,14.3 16.7,23 10.8,23 13,14.3 	"/>
	<polygon class="st14" points="28.9,17.8 25.9,17.5 18.6,16.7 16.7,16.4 12.5,16 13,14.3 13,14.3 13.3,12.8 28.2,12.8 	"/>
	<rect x="2.6" y="30.8" class="st5" width="4.5" height="3.6"/>
	
		<linearGradient id="SVGID_1_" gradientUnits="userSpaceOnUse" x1="6.4813" y1="8.1987" x2="60.745" y2="8.1987" gradientTransform="matrix(-1 0 0 1 95.0614 0)">
		<stop  offset="0" style="stop-color:#A0735B"/>
		<stop  offset="1" style="stop-color:#C37B53"/>
	</linearGradient>
	<polygon class="st15" points="34.3,9.5 37.8,6.1 39.5,7.8 42.3,4.1 44.6,5.3 48.1,2.9 51.8,2.5 55,3.3 58.8,0.9 62.2,2.9 67,0 
		70.9,2.4 74.6,3.1 78.9,7.6 80.6,7.9 83.5,11.5 86.1,12.3 88.6,16.2 47.1,16.4 	"/>
	<polygon class="st16" points="67,0 64.7,4.9 62.2,2.9 	"/>
	<polygon class="st16" points="58.8,0.9 57.5,5.7 54.6,6.5 55.6,8.7 58.8,8.7 60.1,11.7 56.6,12.9 52.4,12 50.5,14.1 50.1,16.4 
		47.1,16.4 34.3,9.5 37.8,6.1 38.8,9 39.5,7.8 42.3,4.1 43.5,7.3 44.6,5.3 48.1,2.9 51.8,2.5 55,3.3 	"/>
</g>
</svg>
