<?xml version="1.0" encoding="utf-8"?><svg xmlns="http://www.w3.org/2000/svg" xmlns:xlink="http://www.w3.org/1999/xlink"><symbol fill="currentColor" viewBox="0 0 18.25 18" id="tree" xmlns="http://www.w3.org/2000/svg"><path fill-rule="evenodd" d="M13.887 14.5a4.113 4.113 0 01-1.842-.436v-3.771l1.885-.991-.491-.934-1.394.733V7.56h-1.054v3.455l-1.395-.733-.49.933 1.885.991v1.858a4.116 4.116 0 01-4.43-.481 5.238 5.238 0 002.816-5.296L8.87 4.136a4.099 4.099 0 012.648-.966c1.044 0 2.039.392 2.802 1.103a4.09 4.09 0 011.26 2.365A4.122 4.122 0 0118 10.387a4.118 4.118 0 01-4.113 4.113zm-9.18-1.432V18H3.653v-4.932l.014.001a4.156 4.156 0 001.04-.001v-2.544l1.886-.991-.491-.934-1.395.733V6.653l1.886-.991-.491-.933-1.395.733V3.921H3.653v3.476l-1.394-.733-.491.933 1.885.992v4.479A4.182 4.182 0 01.031 8.414L.68 3.099A3.53 3.53 0 014.18 0a3.529 3.529 0 013.5 3.099l.65 5.315a4.183 4.183 0 01-3.623 4.654zm6.548.851c.089-.053.177-.11.263-.17.168.119.344.224.527.315V18H10.99v-3.936l.003-.001c.089-.045.176-.093.262-.144z"/></symbol></svg>