<svg fill="currentColor" viewBox="0 0 512 512" focusable="false" aria-hidden="true" role="presentation"><path d="M497.9 97.1c-9.5-10.8-23-16.8-38.1-16.8H95.4l-3.7-27.5C87.8 23.2 67.2 0 44.8 0H18C9.7 0 3 6.7 3 15s6.7 15 15 15h26.8c4.8 0 15 10.2 17.2 26.8l42.9 322c1.9 14.2 9.2 27.5 20.5 37.4 8.4 7.4 18.4 12.3 28.8 14.3-4.2 7.8-6.7 16.8-6.7 26.3 0 30.4 24.8 55.2 55.2 55.2s55.2-24.7 55.2-55.2c0-9.1-2.2-17.6-6.1-25.2h78.6c-3.9 7.6-6.1 16.1-6.1 25.2 0 30.4 24.8 55.2 55.2 55.2s55.2-24.7 55.2-55.2c0-9.1-2.2-17.6-6.1-25.2h39.3c8.3 0 15-6.7 15-15s-6.7-15-15-15H165.3c-14.7 0-28.7-12.3-30.6-26.8l-3.1-23.5h296.1c14.3 0 28.5-5.5 39.8-15.4 11.4-9.9 18.6-23.2 20.5-37.4l21.5-161.4c2.1-14.9-2.1-29.1-11.6-40zm-270 359.7c0 13.9-11.3 25.2-25.2 25.2-13.9 0-25.2-11.3-25.2-25.2 0-13.9 11.3-25.2 25.2-25.2 13.9.1 25.2 11.4 25.2 25.2zm176.8 0c0 13.9-11.3 25.2-25.2 25.2s-25.2-11.3-25.2-25.2c0-13.9 11.3-25.2 25.2-25.2s25.2 11.4 25.2 25.2zm70.7-339.9c3.7 4.2 5.3 10 4.5 16.3l-9 67.7H368.7l6-90.5h85.1c6.3-.1 11.8 2.3 15.6 6.5zM262.3 321.3l-6-90.5h80.4l-6 90.5h-68.4zm-8-120.5l-6-90.5h96.4l-6 90.5h-84.4zm-36.1-90.5l6 90.5H111.5l-12.1-90.5h118.8zM115.5 230.8h110.8l6 90.5H127.5l-12-90.5zm312.2 90.5h-67l6-90.5h100.1l-8.5 63.7c-1.9 14.6-15.9 26.8-30.6 26.8z"></path></svg>
