<?xml version="1.0" encoding="utf-8"?>
<!-- Generator: Adobe Illustrator 24.0.0, SVG Export Plug-In . SVG Version: 6.00 Build 0)  -->
<svg version="1.1" id="object" xmlns="http://www.w3.org/2000/svg" xmlns:xlink="http://www.w3.org/1999/xlink" x="0px" y="0px"
	 viewBox="0 0 975.2 754.6" style="enable-background:new 0 0 975.2 754.6;" xml:space="preserve">
<style type="text/css">
	.st0{opacity:0.12;}
	.st1{fill:#162742;}
	.st2{fill:#EACDB0;}
	.st3{fill:#534741;}
	.st4{fill:#90989E;}
	.st5{fill:#99C1BA;}
	.st6{fill:#99704A;}
	.st7{fill:#A67C52;}
	.st8{fill:#363535;}
	.st9{fill:#E5D1BD;}
	.st10{fill:#4D4D4D;}
	.st11{fill:#627277;}
	.st12{fill:#333333;}
	.st13{fill:#726562;}
	.st14{fill:#64A094;}
	.st15{fill:#698079;}
	.st16{fill:#529588;}
	.st17{fill:#0D91D3;}
	.st18{fill:#A5CD55;}
	.st19{fill:#A8C94E;}
	.st20{opacity:0.1;}
	.st21{opacity:0.22;}
	.st22{fill:#FFFFFF;}
</style>
<g class="st0">
	<g>
		<path class="st1" d="M922.7,735.2c-24.2,7.7-51.2,8.6-76.7,11.6c-29.7,3.4-59.5,4.7-89.2,5.7c-61.2,2.1-122.3,1.8-183.8,2
			c-167.3,0.6-283.9,0-504.4-18.2c-14-1.2-28.1-4.6-39.9-10.7c-11.8-6-21.6-15-20.7-26.5c1.1-14.2,14.6-23.7,32-27.8
			c20-4.8,42.6-3.9,63.3-6c30.3-3,61.5-1.3,91.7-2c64.9-1.4,130.4-3,194.9-4.1c127.5-2.1,253.8-1.2,381.1,0.1
			c34.9,0.4,69,0.6,103.7,2.5c6.6,0.4,13.3,1,19,3.5c5.7,2.5,9.7,8.1,7.3,12.6c-4.3,8-22.1,11.4-19.2,20.8c1,3.3,6,4.2,9.8,5.4
			c9.2,2.7,19.6,4.9,28.9,7.6c7,2,15.7,4.5,16.3,11C937.3,729.2,929.8,732.9,922.7,735.2z"/>
	</g>
</g>
<g>
	<g>
		<g>
			<g>
				<g>
					<g>
						<g>
							<g>
								<polygon class="st2" points="139.3,670.6 138.9,699.1 155.7,699.3 156.2,667.7 								"/>
							</g>
						</g>
					</g>
					<g>
						<g>
							<g>
								<path class="st3" d="M154.2,694.9l-14.7,4.9l-4.4,4.7l0.7,11.2l39.7,3.1h0c3.4-4.9,1.2-11.5-4.4-13.4l-1.8-0.6L154.2,694.9z
									"/>
							</g>
						</g>
					</g>
				</g>
			</g>
			<g>
				<g>
					<g>
						<g>
							<g>
								<g>
									<g>
										<polygon class="st2" points="16.6,649.7 5.2,676.5 21.1,683.3 33.8,653.5 										"/>
									</g>
								</g>
							</g>
							<g>
								<g>
									<g>
										<path class="st3" d="M20.8,683.8c-0.6-0.6-1.2-1.2-2-1.8c-1.9-1.4-17.3-9.6-18.6-5.9c-0.2,0.6-0.1,1.3-0.1,1.9
											c1.3,10.6,3.8,21,7.4,31.1c1.6,4.3,3.9,9,8.3,10.1c1.9,0.5,4,0.1,5.9-0.3c2.9-0.7,5.7-1.5,8.5-2.6c1-0.4,2.1-0.9,2.6-1.8
											c1-1.9-0.8-4.1-2.7-5.1c-1.9-1-4.2-1.7-5.2-3.7c-0.4-0.9-0.5-1.9-0.5-2.8C24,695.6,25.3,688.7,20.8,683.8z"/>
									</g>
								</g>
							</g>
						</g>
					</g>
					<g>
						<g>
							<path class="st4" d="M125.2,542.5c-5.7,25.9-21.9,44.6-39.2,63.6c-19.8,21.8-38.5,44.7-55.8,68.5c-7.5-3.1-15-6.3-22.5-9.4
								c6.3-36.4,23.6-69.9,36.9-104.3c4.4-11.3,8.4-22.8,11.4-34.6c2.8-11,7.9-27,5.7-38.4c-1.9-9.8-7.9-18.8-9.7-29.2
								c-2.2-12.6-2.7-25.4-3.1-38.1c-0.3-7.8-2.8-28,3.7-33.9c3.8-3.5,15.8-3.6,21.3-3.9c11.6-0.5,23.2,2,32.6,9.2
								c18.9,14.6,23.9,41.7,25.6,64.2C134.3,484.9,131.3,514.4,125.2,542.5z"/>
						</g>
					</g>
				</g>
			</g>
			<g>
				<path class="st4" d="M55.7,405.6c0-15.4,1.8-30.2,4.7-41.5c23.7-1.3,50.5,1.4,74,6.1c22.9,4.7,37.2,9.6,37.4,34.5
					c0.3,45.7,18.2,84.7,25.9,128.7c4.5,25.6-3.3,48.4-11.9,72.1c-9.8,27.1-18.2,54.7-25.1,82.7c-7.9,0-15.9-0.1-23.8-0.1
					c-7.8-35.3-4.6-71.9-5.3-108.1c-0.5-25.1-3-50.8-12.3-74.4c-10.1-25.9-24.8-15.6-41.5-30.6C61.6,460.3,55.8,432.1,55.7,405.6z"
					/>
			</g>
		</g>
		<g>
			<g>
				<path class="st5" d="M84.8,239.8c-2.7,2.1-5,4.6-7.4,7.1c-2.1,2.2-4.2,4.4-6.3,6.7c-7.2,7.7-10.8,19.1-13.9,28.9
					C41,334.2,35.1,405.3,45.7,459.4c40.1,3.5,86.5-6.6,126.6-12.1c3.9-0.5,8.3-1.4,10.3-4.8c1.2-2,1.3-4.6,1.3-6.9
					c0-34.3-7.3-71.3-14.1-105.1c-2.9-14.3-6.4-28.5-11-42.3c-4.8-14.7-10.2-30.5-21.5-41.6c-12-11.9-35.1-17.7-50.1-8.5
					C86.4,238.6,85.6,239.2,84.8,239.8z"/>
			</g>
		</g>
	</g>
	<g>
		<g>
			<path class="st6" d="M143.5,187.9c-1.5-7.1-3.7-14.1-6.4-20.7c-6-14.6-18.2-25.9-31.8-28c-22.1-3.6-37.6,17.2-42.3,37
				c-5.1,21.6,7.7,46.6,25.8,57.5c0.8,0.5,1.7,1,2.6,1c1.3,0.1,2.4-0.7,3.5-1.3c6.3-3.5,13.7-4.2,20.9-4.5
				c8.7-0.5,17.4-0.5,26.1-0.2C146.4,215.7,146.3,201.5,143.5,187.9z"/>
		</g>
		<g>
			<g>
				<g>
					<g>
						<g>
							<path class="st2" d="M97.5,239.6c0.3,0.5,0.7,1,1.2,1.4c2,1.7,4.6,2.6,7.1,2.8c3.4,0.3,6.7-0.5,10-1.3c4.4-1.1,4.1-3.8,4.5-8
								c0.2-2.3,0.3-4.6,0.3-6.9c0-2.2-1.2-5.3,0.4-6.9c1-1,3.6-1.1,4.9-1.9c1.4-0.8,2.6-2,3.6-3.2c2-2.5,3.1-5.4,4.1-8.4
								c3-9.7,1.9-19,2.3-28.9c0.3-7-1.8-16.2-7.3-21c-5.2-4.6-12.6-5.8-19.2-6.3c-8.8-0.6-17.8,1.6-25.1,6.8
								c-2.9,2.1-5.7,4.8-7.3,8.3c-2.5,5.4-1.9,12-1.2,18.1c0.6,5.6,1.2,11.3,1.8,16.9c0.7,6.5,2,13.9,7,17.2c2.7,1.7,6,1.9,8.3,4.2
								c2.9,2.8,3,7.4,3.3,11.2C96.5,235.8,96.5,237.9,97.5,239.6z"/>
						</g>
					</g>
				</g>
			</g>
		</g>
		<g>
			<g>
				<path class="st7" d="M100.6,170.1c3.5,2.7,7,5.3,10.9,7.4c11.4,6.1,24.9,7.1,37.7,6c-5.3-5-6.2-13-8.5-19.9
					c-4.9-14.5-18.1-25.7-32.9-28.1c-6.5-1.1-13.4-0.5-19,2.9C68.7,150.2,89.9,161.9,100.6,170.1z"/>
			</g>
			<g>
				<path class="st7" d="M83.6,175.4c-2.9,7.7-3.4,16.4-2.1,24.6c2.2,13.1,8.5,25.1,14.8,36.7c-0.4-0.7-9.9-1.8-11.3-2.2
					c-3.9-1.2-7.7-2.9-11.2-5c-6.4-3.8-14.3-10-17.4-17.1c-4-9-3.5-22.2-1.3-31.6c2.5-10.5,8-20.3,15.5-28
					c4.5-4.6,10.2-8.7,16.8-9.4c4.7-0.5,11.6,1.4,13.2,6.6c1.9,6-5.5,9.6-9.1,13.1C88,166.4,85.4,170.7,83.6,175.4z"/>
			</g>
		</g>
	</g>
</g>
<g>
	<g>
		<g>
			<g>
				<polygon class="st2" points="259.7,617.3 251.5,644.5 219.5,708.5 208,702.6 227.6,635.3 230,606.9 				"/>
			</g>
		</g>
		<g>
			<g>
				<path class="st8" d="M222,707.2c-0.9,1.9-1.8,4.2-1.1,6c0.7,2,2.9,3,3.2,5.3c0.1,1-0.2,1.9-0.6,2.8c-0.3,0.7-0.7,1.3-1.2,1.8
					c-1,0.7-2.3,0.6-3.5,0.5c-1.9-0.2-3.7-0.4-5.5-1.1c-3-1.2-5.2-3.6-7.1-6.1c-1.6-2.1-3.4-4-2.5-6.9c0.3-0.9,0.8-1.7,1.3-2.4
					c1.3-2.1,2.2-4.3,2.9-6.6c5.1,1.6,10.1,3.3,15.2,4.9C222.7,705.8,222.3,706.4,222,707.2z"/>
			</g>
		</g>
	</g>
	<g>
		<g>
			<g>
				<polygon class="st2" points="291.9,609.8 290.7,639.2 279.3,711.8 266.6,709.4 265.4,640.3 260.8,611.3 				"/>
			</g>
		</g>
		<g>
			<g>
				<path class="st8" d="M280.6,710.2c-0.5,2.1-0.9,4.4,0.2,6.1c1.1,1.8,3.5,2.3,4.2,4.5c0.3,0.9,0.2,1.9,0,2.9
					c-0.2,0.7-0.4,1.4-0.9,2c-0.8,0.9-2.1,1.1-3.3,1.2c-1.9,0.2-3.7,0.4-5.6,0c-3.2-0.5-5.8-2.5-8.2-4.5c-2-1.8-4.1-3.2-3.9-6.2
					c0.1-0.9,0.4-1.8,0.7-2.6c0.8-2.3,1.3-4.7,1.4-7.1c5.3,0.5,10.6,1.1,15.9,1.6C281,708.6,280.8,709.4,280.6,710.2z"/>
			</g>
		</g>
	</g>
	<g>
		<g>
			<path class="st5" d="M238.4,425.2c-1.9,1.8-2.4,4.6-3,7.1c-0.7,3.2-1.4,6.5-2.2,9.7c-1.6,7.1-3.5,14.1-5.2,21.1
				c-1.3,5.4-1.2,10.5-3.2,15.7c-5.3,14.1-11.4,28.1-17.8,41.7c-5.1,10.7-10.7,21.3-18.2,30.5c-7.5,9.2-17.2,16.9-28.5,20.5
				c-4.1,1.3-9.2,3-9.8,7.3c-0.2,1.7,0.5,3.4,1.3,5c3.5,6.8,9.5,12.2,16.6,14.9c4.9,1.9,10.4,2.7,14.7,5.7c5.4,3.8,8,10.5,12.8,15
				c8.2,7.6,20.9,7.1,31.9,5.4c8.1-1.3,16.1-3,23.9-5.3c10.1-2.8,22.5-6.9,32.9-3.3c3.7,1.3,7.3,3.1,11.2,3.9
				c3.7,0.7,7.6,0.5,11.2-0.7c0.8-0.3,1.7-0.7,2-1.5c0.2-0.5,0.2-1,0.2-1.5c-1.5-44.1,6.1-86.9-0.2-131.2c-1.3-8.9-4.8-17.3-6.2-26
				c-1.1-6.6-0.8-13-2.6-19.6c-1.1-3.7-2.5-7.3-4.5-10.6c-1.8-3-3.7-6.9-6.9-8.5c-1.8-0.9-3.7-1.3-5.6-1.9c-7.4-2.1-14.8-5.9-22.4-5
				c-6.7,0.9-12.3,5.2-18.2,8.6C241.1,423.2,239.6,424,238.4,425.2C238.4,425.1,238.4,425.1,238.4,425.2z"/>
		</g>
	</g>
	<g>
		<g>
			<path class="st3" d="M230.5,355.5c-1.5,2.1-2.7,4.2-3.6,6.5c-3.2,7.7-3.3,16.7-0.3,24.5c1.8,4.6,4.8,8.8,5.9,13.7
				c1.1,4.7,2.1,8.8,4.4,13.2c2.1,4,5.7,9,10.2,7.5c2-0.7,3.3-2.4,5.3-3.1c2-0.8,4.5-0.9,6.6-1c4.3-0.2,8.9,0.2,12.7-2
				c4.3-2.5,6.4-7.5,7.7-12.3c1.3-4.8,2.2-9.9,5.2-13.9c1.8-2.4,3.8-4,4.9-6.8c1.3-3,3.4-5.5,4.5-8.7c2.3-6.9,0.2-15.2-5.1-20.1
				c-1.7-1.6-3.7-2.9-5.7-4.1c-3.8-2.4-7.6-5.2-11.9-6.7c-2-0.7-4.1-0.9-6.2-0.9c-4.7,0-9.4,0.7-14,1.2
				C242.8,343.4,235.3,348.7,230.5,355.5z"/>
		</g>
		<g>
			<g>
				<path class="st2" d="M291.8,376.2c0.7-6.2-0.6-12.1-4.8-16.9c-1.3-1.5-3-2.7-4.8-3.7c-6.1-3.3-13.3-4.2-20-2.6
					c-9.4,2.2-14.9,7.7-17.4,15.5c-0.9,2.7-1.4,5.6-1.6,8.8c0,0.1,0,0.3,0,0.4c-0.6-0.3-1.2-0.4-2-0.4c-2-0.1-4,1.3-4.8,3.2
					c-0.9,1.9-0.7,4.1,0.1,6c0.8,1.9,2.3,3.4,4,4.6c1,0.7,3.9,0.8,5.1,0.9c1.2,7.4-0.7,10.7,8.4,19c3.7,3.4,4.2,4,4.4,9.3
					c0.1,2.7,0.8,5.8,3,7.2c1.2,0.8,2.7,1,4.1,1.1c1.9,0.1,3.9,0.1,5.8,0c1.5-0.1,3.1-0.4,4.2-1.3c1.7-1.5,1.7-4.2,1.6-6.6
					c-0.4-6.4,0.3-6.6,5.4-9.2c4.6-2.3,9.3-7.4,9.4-11.9c0.1-2.6-0.6-5.4-1.5-8.6c-1.4-4.7,0.5-8.8,1.2-13.6
					C291.7,377.1,291.7,376.7,291.8,376.2z"/>
			</g>
			<g>
				<path class="st3" d="M282.4,359.8c2.9,1,5.6,2.3,7.5,4.7c2.2,2.7,3,6.3,3,9.8c0,1.6-0.5,3-2.2,3.4c1.8,3.1,6.4,0.8,7.9-1.5
					c2.2-3.4,0.4-10.3-1-13.8c-1.4-3.6-3.6-6.9-6-9.9c-3.1-3.9-8-6.6-13.3-7.5c-4.8-0.8-10.1,1.6-13.6,5.1c-1.1,1-3.6,3.3-3.2,5
					c0.7,2.5,4.9,1.2,6.8,1.5c3.8,0.6,7.6,1.5,11.4,2.6C280.6,359.2,281.5,359.5,282.4,359.8z"/>
			</g>
			<g>
				<path class="st3" d="M261.5,371.2c-2.9,1.8-6.1,3.2-9.4,3.9c-0.7,0.1-1.5,0.3-1.8,0.9c-0.2,0.4-0.3,0.8-0.3,1.2
					c-0.2,3.2,0.4,6.3-1.2,9.2c-1.4,2.7-3.9,5.1-3.8,8.1c0,1.6,0.8,3.2,1.3,4.7c0.6,1.7,0.3,2.8,0,4.4c-0.2,1.5,0.1,2.9,0.4,4.5
					c0.7,3.4,1.6,6.8,3.2,9.9c1.2,2.4,2.8,4.7,4.8,6.6c1.3,1.3,2.9,2.6,3.6,4.3c0.8,1.9,0.4,4.2-0.4,6.1c-1.8,4.2-5.7,7.3-10.1,8.4
					c-4.4,1.2-9.2,0.5-13.3-1.5c-9-4.3-16.3-14.4-6-21.5c2.5-1.7,5.6-3.5,5.9-6.5c0.5-4.8-6.4-8.1-5.7-12.9c0.5-3.4,4.4-5,7.1-7.2
					c11.4-9.4-1-24.4,2.9-35.6c1-2.8,2.9-5.1,4.9-7.2c3.6-3.8,7.7-7.5,13.2-7c2.7,0.2,5.3,0.8,7.8,1.7c2.1,0.8,10,1.6,11.1,3.3
					c0.2,0.3,10,2.9,9.9,3.3C284.2,360.9,268.9,366.5,261.5,371.2z"/>
			</g>
		</g>
	</g>
</g>
<g>
	<g>
		<g>
			<g>
				<g>
					<g>
						<path class="st9" d="M498.9,615.4c0.4,16.4,1.2,45.5,0.8,45.6c-4.1,0.7-8.1,0.4-12.2,0.6c-3-15.1-5.1-30.6-6.8-46.2
							C486.8,615.4,492.9,615.3,498.9,615.4z"/>
					</g>
				</g>
				<g>
					<g>
						<path class="st10" d="M485.1,654.6c-2.3-0.4-4,0.4-4,4.7c0,2.5,1,5,0.9,7.5c0,1.5-0.4,3-0.8,4.4c-1.2,4.7-2.4,9.4-3.6,14.1
							c-0.4,1.6-0.8,3.3-0.6,5c1,6.8,10.4,7.4,15.3,5.2c4.8-2.1,8.7-6.2,10.3-11.2c0.8-2.7,0.9-5.5,1.1-8.3
							c0.2-4.6,0.4-9.2,0.6-13.8c0.1-1.2,0.1-2.5-0.3-3.6c-1.6-4.7-7.4-0.3-10.7-1C491,657.2,487.7,655.1,485.1,654.6z"/>
					</g>
				</g>
			</g>
		</g>
		<g>
			<g>
				<path class="st11" d="M471,648.2c16.6,3.4,21.2,1.8,38,0.3c9-65.7,24.7-211.3,30.5-277.4c0.4-5.1,0.9-10.4-1-15.3
					c-3.4-9.1-13.7-13.7-23.4-14.8c-15-1.7-56.3,6.2-62.9,22.1c-6.9,16.8-2.3,17.9-2.9,36c-0.6,15.5,6.3,63.1,7,88.7
					C457.6,544.1,467.7,614.4,471,648.2z"/>
			</g>
		</g>
	</g>
	<g>
		<g>
			<g>
				<g>
					<g>
						<path class="st9" d="M548.6,623.5c-0.4,16.4-1.2,45.5-0.8,45.6c4.1,0.7,8.1,0.4,12.2,0.6c3-15.1,5.1-30.6,6.8-46.2
							C560.7,623.4,554.7,623.4,548.6,623.5z"/>
					</g>
				</g>
				<g>
					<g>
						<path class="st10" d="M562.4,662.7c2.3-0.4,4,0.4,4,4.7c0,2.5-1,5-0.9,7.5c0,1.5,0.4,3,0.8,4.4c1.2,4.7,2.4,9.4,3.6,14.1
							c0.4,1.6,0.8,3.3,0.6,5c-1,6.8-10.4,7.4-15.3,5.2c-4.8-2.1-8.7-6.2-10.3-11.2c-0.8-2.7-0.9-5.5-1.1-8.3
							c-0.2-4.6-0.4-9.2-0.6-13.8c-0.1-1.2-0.1-2.5,0.3-3.6c1.6-4.7,7.4-0.3,10.7-1C556.5,665.3,559.8,663.2,562.4,662.7z"/>
					</g>
				</g>
			</g>
		</g>
		<g>
			<path class="st11" d="M577.9,655.8c-15.7,1.5-24.2,0.6-40.8-2.1c-2.3-34.3-6.4-126.1-6.4-126.1s-14.4-122.3-14.9-154.3
				c-0.1-5.1-0.1-10.5,2-15.2c4.1-8.8,14.7-12.7,24.4-13.1c15.1-0.7,41.6,7,46.9,23.4c5.7,17.3,6.5,37.1,8.2,55.1
				c2,21.8-2.5,93.6-2.5,93.6S583.2,618.3,577.9,655.8z"/>
		</g>
	</g>
	<g>
		<path class="st5" d="M553.1,172.3c-15.7-4.6-46.9-4.8-61.3,3.3c-20,11.4-25.4,39.7-31.6,59.1c-13.8,43.6-24.2,88.5-28.2,134.1
			c-1,11.8-1.6,23.5-1.8,35.3c-0.1,11.4-3.3,20.8,9.9,23.8c13.4,3,27.2,4.9,40.8,6.6c27.4,3.4,55,4.7,82.5,3.9
			c14.6-0.4,29.3-1.4,43-6.3c1.8-0.6,3.7-1.4,4.8-3c1-1.4,1.1-3.2,1.3-5c3.4-48.2,2.2-98.1-8.5-145.7c-5.3-23.7-12.4-49.5-24.2-70.9
			C572.7,195,562.2,183.5,553.1,172.3z"/>
	</g>
	<g>
		<g>
			<g>
				<g>
					<path class="st3" d="M547,96c3.5,6.2,5.2,13.3,5.5,20.4c0.1,1.9,0.2,4.1,1.7,5.2c1.6,1.2,0.2,3.8,1.4,2.2
						c1.2-1.6,5.4-7.1,5.6-9.1c0.4-4.7,0.4-9.5,0-14.2c-0.4-4.1-1.2-8.4-3.9-11.5c-1.6-1.9-3.7-3.2-5.8-4.4c-3-1.8-6.1-3.7-9.6-4.3
						c-6-1.1-9.7,1-4.4,5.2C541.4,88.4,544.6,91.8,547,96z"/>
				</g>
				<g>
					<g>
						<path class="st2" d="M509.6,176.5c0,2.9-0.6,5.9,2,8.2c1.2,1.1,2.9,1.5,4.5,1.8c4.2,0.7,8.5,0.4,12.5-0.9
							c1.7-0.5,3.3-1.2,4.6-2.4c1.5-1.4,1.6-2.8,1.6-4.6c0.1-2.2,0.5-4.4,0.8-6.6c0.6-4.9,0.9-9.7,1-14.6
							c7.2-1.2,15.6-3.6,18.1-11.1c0.8-2.4,0.8-5,0.8-7.5c0.1-10.4,0.2-20.9,0.2-31.3c0-3.6,0-7.3-1.2-10.7
							c-2.2-5.9-7.7-9.4-13-11.6c-13.7-5.6-29.8-5.4-42.5,2.6c-3.4,2.1-6.6,4.9-8.5,8.6c-3,5.7-2.6,12.8-2.2,19.4
							c0.4,6.1,0.9,12.2,1.3,18.3c0.5,7,1.5,15.1,7,18.8c2.9,2,6.6,2.3,9.1,4.9c4.3,4.4,2.3,11.1,3.6,16.5
							C509.6,174.9,509.6,175.7,509.6,176.5z"/>
					</g>
				</g>
				<g>
					<path class="st3" d="M558.1,134.5c-0.1-1.9-1-7.6-3.9-4c-0.8,0.9-0.9,2.2-1,3.5c0,1.2,0,2.5-0.4,3.7c-0.9,2.7-3.9,3.9-6.5,3.9
						c-1,0-2.1-0.2-3-0.7c-0.9-0.5-1.6-1.3-2.3-2.1c-1.7-1.9-3.4-3.9-5.1-5.8c-2.9-3.3-8.7-1.9-12.6-1.4c-4.5,0.6-9,2-12.7,4.9
						c-0.4,0.3-0.7,0.6-1.1,0.9c-0.9,0.8-1.8,1.5-2.8,2c-3.5,1.7-7.8-0.1-10.3-3.3c-1.1-1.5-2.2-3.3-3.9-3.6
						c-1.4-0.2-2.7,0.8-3.4,2.1c-0.7,1.3-0.9,2.8-1,4.3c-0.3,5.4,0.4,10.9,2.7,15.7c5.1,10.4,14.8,11.6,24.6,11.4
						c3.9-0.1,7.8-0.2,11.6-0.3c7.1-0.2,14.6-0.5,20.6-4.6c5.3-3.6,8.4-9.8,9.7-16.3C558.1,141.3,558.3,137.9,558.1,134.5z
						 M532.2,149.2c-3.7,2.5-7.9,2.7-12,1.4c-1.8-0.5-1-3.5,0.8-3c3.4,1,6.7,1,9.8-1.1C532.3,145.4,533.7,148.1,532.2,149.2z"/>
				</g>
				<g>
					<path class="st3" d="M559.6,78c0.7-2.5,1.2-5.1,1.5-7.7c-2.4,0.8-5,1.1-7.5,0.6c0-1.5,0-3,0-4.5c0-1.2-16.8-2.1-18.2-2.2
						c-12.8-1.1-24.5-2.1-36.1,4.8c-9.9,5.9-16.2,14.7-17.7,26.1c-1.4,10.9,2.1,25.2,8.4,34.3c0-2.9-1.7-9.8-1-12.5
						c0.4-2.8,1.4-5.4,2.7-7.9c2.6-4.9,6.7-9.1,11.4-12c7.5-4.7,16.2-7.2,24.9-8.4c8-1.1,17.7-2.1,25.6,0c3.8,1,4.4,2,6.7-1.9
						c0.4-0.7,3.6-8.6,3.3-8.6C562.3,78,560.9,78,559.6,78z"/>
				</g>
			</g>
		</g>
	</g>
</g>
<g>
	<g>
		<path class="st2" d="M638.8,176.4c0.3-0.3,0.7-0.1,1.2-0.2c0.2,0,2.8,0.3,2.9,0.1c1.3-3.4,1.7-6.2,2.8-9.7
			c0.9-2.8,2.2-6.9,5.2-8.4c1.4-0.7,2.8-0.2,4.2,0.3c2.1,0.6,4.1,1.6,6.1,2.5c0.4,0.2,0.7,0.3,1,0.7c0.3,0.4,0.4,0.9,0.4,1.4
			c0.2,3.1,0.4,5.9,0.4,9c0,3.1-0.2,6.3-1.5,9.3c-0.9,2-2.3,3.7-3.6,5.6c-2.1,3-4.3,6.2-6.8,9c-1.6,1.8-3.5,3.3-4.6,5.5
			s-1.8,5.1-4.4,5.9c-1,0.3-1.8-0.2-2.7-0.5c-1.4-0.5-2.7-1.1-4.1-1.7c-0.4-0.1-0.6-0.2-1-0.7s-0.3-1.4-0.2-2.1
			c0.9-4.1,1.9-8.2,3.4-12.2c0.4-1.2,0.9-2.4,1-3.6c0.1-1.2-0.1-2-0.3-3.2c-0.3-1.9-0.8-4.5,0.1-6.3
			C638.6,176.6,638.5,176.7,638.8,176.4z"/>
	</g>
	<g>
		<path class="st5" d="M546.8,179.3c16.4,13.8,29.6,31.1,48.3,41.8c20.9-10.8,28.5-21.8,41.3-40.6c5.9,4.1,12,7.8,17.7,12.2
			c-7.8,27.7-18.5,46.4-37.9,66.1c-8.5,8.6-12.7,8.9-22.6,7.8c-25-2.9-59.6-17.1-78.4-26.9c-18.9-9.8-3.3-27.8-0.3-40.1
			C517.9,187.2,534,178.8,546.8,179.3z"/>
	</g>
</g>
<g>
	<g>
		<g>
			<path class="st2" d="M758.7,301.9l1.9-9.9l4.3-4.1c4.5-4.3-0.1-14.3-5.4-15.2c-2.4-0.4-4.8,0.5-7.1,1.4
				c-9.7,3.7-6.5,9.4-4.3,17.8l-0.1,10.3L758.7,301.9z"/>
		</g>
		<g>
			<path class="st5" d="M766.1,343.7c-4.8-14.8-1.7-32.5-2.2-47.8c-4.1-1.4-8.6-2-12.9-1.7c-5.6,0.4-5.7,0.9-6.9,6.1
				c-1.9,8.6-2.4,17.8-2.9,26.5c-1,17.9-3.2,35.8,6.9,51.6c11.5,17.9,23.8,35.4,35.6,53.1c2.1,3.1,4.2,6.3,7.2,8.6
				c7.6,5.8,19,4,26.4-2.1c7.4-6.1,8.2-14,12.7-21.7c2.9-4.9,11.3-10.6,6.8-17.3c-1.8-2.6-5.2-3.4-8.2-4.2
				c-21-5.6-37.6-21.2-53.2-36.2C770.8,354.3,767.9,349.2,766.1,343.7z"/>
		</g>
	</g>
	<g>
		<g>
			<g>
				<g>
					<g>
						<path class="st12" d="M796.6,697.8c0.3,6.9,1.9,13-2.1,18.9c-0.8,1.3-1.8,2.5-3.1,3.3c-0.8,0.5-1.7,0.7-2.4,1.2
							c-0.7,0.4-1.3,1-2,1.4c-2.9,1.7-6.6,0.7-9.7-0.5c-1.5-0.6-3.3-1.7-3.2-3.3c0.1-0.9,0.7-1.6,1.2-2.3c1.8-2.4,3.2-5.1,4-8
							c0.3-1.1,8-14.8,7.4-15C786.8,693.3,796.6,697.8,796.6,697.8z"/>
					</g>
				</g>
				<g>
					<g>
						<polygon class="st4" points="761.7,534.6 763.2,606.9 780,701.7 798.1,701.8 804.3,609.4 819.4,539.5 						"/>
					</g>
				</g>
			</g>
			<g>
				<g>
					<path class="st12" d="M878.5,685.2c-0.6,1.6-1.4,3.1-2.3,4.6c-2.7,4.3-6.3,8.1-10.6,11c-0.8,0.5-1.6,1-2.6,1.1
						c-2.4,0.2-3.9-2.6-4.2-4.9c-0.6-5,1.7-9.6,1.9-14.5c0.2-4.3-0.3-5,3.1-7.7c0.9-0.7,9.2-7.1,8.8-7.8c3.5,5.8,8.3,8.8,6.2,16.7
						C878.8,684.2,878.6,684.7,878.5,685.2z"/>
				</g>
				<g>
					<path class="st4" d="M859,681.1c0.3,0.4,0.7,0.8,1,1.2c0.3,0.3,0.6,0.7,1,0.8c0.6,0.2,1.1-0.3,1.6-0.7
						c4.7-4.3,9.2-8.9,13.5-13.8c-6.2-14.7-12.4-29.3-18.6-44c-1.3-3.2-2.7-6.4-3.2-9.9c-0.6-4.5,0.3-9,1.2-13.3
						c2.3-11.6,4.1-23.5,5.4-35.5c0.9-7.9,1.5-16.3-0.7-24c-1.7-6.3-5.2-11.6-7.4-17.7c-1-2.7-1.8-5.7-3.6-7.6
						c-2.1-2.2-3.4-0.9-5.3-0.3c-2.3,0.7-4.9,1.6-7.8,1.8c-7,0.5-14,1.1-20.9,1.9c-2.7,0.3-11.4-0.4-13.2,1.8
						c-1.8,2.3,0.2,13,0.4,16.4c1.6,24.5,4,49,7.2,73.4c0.2,1.7,0.5,3.5,1,5.1c0.6,1.8,1.4,3.3,2.3,4.9c3.5,6.3,7.3,12.2,11.4,17.9
						c5.3,7.3,11.1,14,16.9,20.7C847,667.1,853,674.1,859,681.1z"/>
				</g>
			</g>
		</g>
		<g>
			<g>
				<g>
					<g>
						<path class="st2" d="M882.2,358.4c1.9-1.5,3.5-3.5,4.4-5.8c0.8-1.8,1.5-4.1,0.4-5.7c-0.8-1.2-2.4-1.7-3.9-1.6
							c-1.4,0.1-2.6,0.7-3.9,1.2c-1.9-3.8,0.6-10.2-0.4-14.6c-0.7-3-2.3-5.8-3.9-8.4c-1.1-1.8-2.2-3.5-3.8-4.9
							c-6.1-5.4-14.8-7.3-22.7-6.4c-16.7,2-20.4,19-26,31.9c-4.5,10.2-6.9,21,3.6,29c2.7,2,5.5,5,6.2,8.4c0.4,1.8,0.2,3.7,0,5.6
							c-0.2,1.4-0.3,2.8,0.2,4.1c0.9,2.2,3.6,3.2,5.9,3.9c2.9,0.9,6.2,1.7,8.6-0.1c3-2.2,3.3-7,6-9.7c2.2-2.2,5-3.2,7.4-4.9
							c2.6-1.7,5-3.8,7.5-5.5c3.4-2.3,6.8-5,7.5-9.2c0.2-1.5,0.2-3.2,1.3-4.2c0.5-0.5,1.3-0.7,2-1
							C880,359.9,881.1,359.2,882.2,358.4z"/>
					</g>
					<g>
						<path class="st7" d="M892.8,327.3c-1.7-4.9-4.6-9.4-8.2-13.2c-2.9-3-6-5.8-9.8-7.4c-7-3.1-27.4,0-28.3-9.7
							c-0.3-3.6-5.4-5.8-8.3-3.7c-0.9,0.6-1.5,1.5-2.4,2.2c-0.9,0.6-2.2,0.9-3,0.2c-1.1-0.9-0.6-2.8-1.6-3.9c-1.1-1.4-3.6-0.5-4.4,1
							c-0.5,0.9-0.3,2.1-0.7,2.9c-0.3,0.6-0.9,0.7-1.3,1.3c-0.8,1.3-1.7,2.3-1.1,4c0.2,0.7,0.6,1.3,0.8,2c0.3,1.3-0.4,2.6-0.8,3.8
							c-0.8,2.8,0,5.8,1.3,8.5c-1.7,2.5-3.1,5.2-3.6,8c-0.8,4.7,1.4,10.7,2.2,15.3c1.2-1.1,1.8-2.6,2.6-4c1.6-3,4.1-5.6,7-7.4
							c1.4-0.9,3-1.6,4.3-2.6c0.2,0.1,0.3,0.2,0.5,0.3c1,0.6,2.1,1.2,3.3,1.4c4,0.7,7.8,2,11.8,2.9c4.2,0.9,8.5,2,12.1,4.4
							c3.6,2.4,6.4,6.3,6.3,10.6c-0.1,1.9-0.6,4.1,0.5,5.6c4.1,5.4,8.6-3.8,12.4-1.1c2.7,2-0.7,6.4-2.4,8c-1.6,1.4-3.5,2.4-5,3.8
							c-1.5,1.4-2.7,3.6-2.1,5.6c0.1,0.5,0.4,1,0.9,1.1c0.6,0.2,1.1-0.2,1.6-0.6c6.4-5.2,12.3-11.5,15.3-19.2
							C895.3,340.9,895.1,333.8,892.8,327.3z"/>
					</g>
				</g>
			</g>
			<g>
				<path class="st5" d="M762,513.7c2.2-9.6,4.7-19.2,6.7-28.9c2.1-9.6,4.4-19.2,7-28.7c5.6-20.2,12.9-40,28.1-54.9
					c3.3-3.3,6.9-6.8,11.2-8.6c2.9-1.3,7.2-1,9.7-3.1c1.8-1.5,2.3-4.8,2.1-7c7.8,1,16.2,2.3,24.2,3c6.3,0.6,4.6,3.6,6.4,8.1
					c1.9,4.9,8.1,8,11.3,11.9c2.9,3.6,4.8,8.1,6.3,12.7c2.5,7.5,4.1,15.4,4.6,23.4c0.5,7.7-0.1,15.4-0.7,23.1
					c-2.3,26.7-5.9,53.3-10.8,79.6c-0.9,4.6-1.3,11.2-3.7,15.3c-2.4,4.2-7.2,2.8-11.7,2.9c-10.5,0.1-21-0.6-31.3-2.1
					c-20.7-2.9-41.1-8.8-60.2-17.7c-1.1-0.5-2.2-1.1-2.8-2.1c-0.7-1.2-0.5-2.7-0.4-4.1C758.8,529,760.3,521.3,762,513.7z"/>
			</g>
		</g>
	</g>
	<g>
		<g>
			<path class="st2" d="M942.7,487.5c3.3-0.1,6.5-0.1,9.8-0.3c1.5-1.3,3.1-2.6,4.6-3.9c2.9-0.2,5.7-0.5,8.6-0.6
				c0.3,0.8,1.1,4.4,0.4,4.7c-1.6,0.8-3,1-4.1,2.5c2.7,1.3,5.2,1.9,8.2,2c2.6,0.1,5.5-0.4,4.9,3.2c-0.2,1-0.9,1.9-1.6,2.7
				c-1.9,1.9-4.3,3.2-7,3.7c-2.1,0.4-4.2,0.3-6.2,1.3c-0.3,0.2-0.5,0.4-1,0.4c-1.3,0-3.6-1.5-4.6-2c-1-0.5-3-1.3-3.4-1.3
				c-3.7-0.5-6.4-0.9-9.8-1.6C941.9,494.8,942.2,491.1,942.7,487.5z"/>
		</g>
		<g>
			<path class="st5" d="M904.8,478.1c4.8,1.9,10.6,2.1,15.8,2.8c9.3,1.3,17.3,3.2,26.1,5.8c0.1,1.5-1.7,21.5-1.5,21.5
				c-14.2-0.1-28.4-0.1-42.7-0.2c-5.1,0-10.3-0.1-15-2c-13.7-5.5-22.7-20.5-30.1-32.6c-8.3-13.5-15-28.3-18.8-43.8
				c-0.8-3.5-0.7-6.6-0.5-9.9c0.6-8.4,7.5-12.7,15.4-14.5c4.9-1.1,10.4-0.3,14.2,3.1c3.2,2.8,4.7,7,6.1,11
				c6.6,18,14.5,35.5,23.6,52.3C899.2,475,901.8,476.9,904.8,478.1z"/>
		</g>
	</g>
	<g>
		<g>
			<path class="st13" d="M793.7,236.4c0,0-28.9,12.3-65.2,67.4l14.2,10c0,0,28.7-50.3,57.1-70.2L793.7,236.4z"/>
		</g>
		<g>
			<g>
				<path class="st14" d="M921,205.6c0,0-54.2-25-87.8-15.6c-33.7,9.4-41.1,51.7-41.1,51.7s28.3,32.3,62,22.8
					C887.7,255.2,921,205.6,921,205.6z"/>
			</g>
			<g>
				<path class="st15" d="M792.1,241.8c0,0,1.6,1.9,4.6,4.5l76.5-27.2l-79.5,16.5C792.5,239.3,792.1,241.8,792.1,241.8z"/>
			</g>
		</g>
		<g>
			<g>
				<path class="st14" d="M737.3,143.4c0,0-22.1,48.4-13.6,78.4c8.5,30,46.3,36.5,46.3,36.5s28.7-25.4,20.2-55.4
					C781.6,173,737.3,143.4,737.3,143.4z"/>
			</g>
			<g>
				<path class="st15" d="M770,258.3c0,0,1.7-1.5,4-4.1l-24.6-68.1l15,70.9C767.8,258,770,258.3,770,258.3z"/>
			</g>
		</g>
		<g>
			<path class="st16" d="M792.1,241.8c0,0,58.6,27.4,102.1-4C894.2,237.7,843.7,299.3,792.1,241.8z"/>
		</g>
	</g>
</g>
<g>
	<g>
		<path class="st13" d="M669.5,90.5c0,0-18.8,25.1-22.5,91l17.3,1.5c0,0-0.5-57.9,14.1-89.3L669.5,90.5z"/>
	</g>
	<g>
		<g>
			<path class="st14" d="M764.1,0c0,0-59.4,5.6-83.8,30.6C656,55.7,670.8,96,670.8,96s40.7,13.7,65-11.4C760.2,59.5,764.1,0,764.1,0
				z"/>
		</g>
		<g>
			<path class="st15" d="M670.8,96c0,0,2.3,0.8,6.2,1.6l52.4-62L669,89.8C670,93.6,670.8,96,670.8,96z"/>
		</g>
	</g>
	<g>
		<g>
			<path class="st14" d="M574,38.5c0,0,5.2,53,27.6,74.6c22.4,21.7,58.3,8.3,58.3,8.3s12.1-36.3-10.4-58
				C627.2,41.7,574,38.5,574,38.5z"/>
		</g>
		<g>
			<path class="st15" d="M660,121.4c0,0,0.7-2.1,1.4-5.6l-55.5-46.6l48.5,53.8C657.9,122.2,660,121.4,660,121.4z"/>
		</g>
	</g>
	<g>
		<path class="st16" d="M670.8,96c0,0,64.4-5.8,86.3-54.8C757.1,41.2,744.3,119.8,670.8,96z"/>
	</g>
</g>
<g>
	<g>
		<path class="st2" d="M243.1,198.3c0.2-0.1,0.3,0.1,1.1,0.2c1.4,0.2,1.5,0.8,3,0.4c2.9-0.8,3.4-2.4,4.6-4.9c0.2-0.3,0.3-0.7,0.3-1
			c0-0.4-0.2-0.7-0.4-1.1c-0.6-1.2-0.7-2.7-0.4-4c0.1-0.3,0.2-0.7,0.5-0.8c0.2-0.1,0.5-0.1,0.8-0.1c2.8,0.1,5.2,0.6,7.7,2.1
			c1.3,0.8,2.2,2.4,2.9,3.7c1.6,2.8,3,6.4,1.8,9.6c-1.1,2.8-2.3,5.7-4.4,7.9c-1.4,1.5-3.2,2.6-4.9,3.7c-3.3,2.1-7.1,3.2-10.3,5
			c-3.1,1.8-5.3,6.1-7.5,8.8c-5.8,7-12.3,13.5-19.5,19.2c-0.2,0.2-0.5,0.4-0.8,0.3c-0.3,0-0.6-0.3-0.8-0.6
			c-2.9-3.7-5.8-7.4-8.8-11.2c5.3-5.8,10.9-11.4,16.8-16.6c4.6-4.1,13.4-8.6,15.1-14.5c0.4-1.4,1.2-4.6,2.4-5.6
			C242.9,198.5,243,198.3,243.1,198.3z"/>
	</g>
	<g>
		<path class="st5" d="M128.1,238l52.7,2.5l28.8-15.6l19.9,19.2l-36.2,35l-73,1c-9.3,1.2-12.2-18-12.2-18
			C106.8,246.2,117.6,239.9,128.1,238z"/>
	</g>
</g>
<g>
	<g>
		<path class="st13" d="M247.6,116.7c0,0-13.4,28.4-3.9,93.7l17.2-1.9c0,0-12-56.6-4-90.4L247.6,116.7z"/>
	</g>
	<g>
		<g>
			<path class="st14" d="M322.3,9.2c0,0-57.1,17.3-76,46.7c-18.9,29.4,3.6,65.9,3.6,65.9s42.6,5.3,61.5-24.1
				C330.3,68.3,322.3,9.2,322.3,9.2z"/>
		</g>
		<g>
			<path class="st15" d="M250,121.8c0,0,2.5,0.3,6.4,0.4L295.4,51L247,116.1C248.7,119.7,250,121.8,250,121.8z"/>
		</g>
	</g>
	<g>
		<g>
			<path class="st14" d="M143.7,84.7c0,0,15.6,50.9,41.9,67.7c26.3,16.8,58.8-3.5,58.8-3.5s4.6-38-21.7-54.8
				C196.4,77.3,143.7,84.7,143.7,84.7z"/>
		</g>
		<g>
			<path class="st15" d="M244.4,148.9c0,0,0.3-2.2,0.3-5.7l-63.6-34.6l58.3,43C242.5,150.1,244.4,148.9,244.4,148.9z"/>
		</g>
	</g>
	<g>
		<path class="st16" d="M250,121.8c0,0,62-18.5,73.7-70.9C323.6,50.9,326.8,130.5,250,121.8z"/>
	</g>
</g>
<g>
	<g>
		<g>
			
				<ellipse transform="matrix(0.7071 -0.7071 0.7071 0.7071 -211.9151 527.282)" class="st17" cx="530.5" cy="519.4" rx="203" ry="203"/>
		</g>
		<g>
			<path class="st18" d="M578.2,322.5c-4.9,1.7-5.6,1.9-4.8,5c-1.9-0.8-3.7-1.7-5.4-2.7h-23.5c14.9,16.5-14,15.4-24.5,15.4
				c-1.9,0-2.4-3.9-1.3-4.9c0.5-0.5,13.2,0,9.9,0c9.9,0,8.7-0.7,8.7-10.5c-9.5,7-9.2,0-20,0L578.2,322.5z"/>
		</g>
		<g>
			<g>
				<path class="st18" d="M517.6,470.7c-1.4,1.4-2.7,2.8-4.1,4.1c12.8,0,20.6,4.1,31.9,4.1C537.8,467,531.8,470.7,517.6,470.7z"/>
			</g>
		</g>
		<g>
			<g>
				<path class="st18" d="M559.8,481c-10.3-0.3-10.7,1.2-17,8.3c5.4,0,10.8,0,16.2,0C563.7,489.3,563.1,481.1,559.8,481z"/>
			</g>
		</g>
		<g>
			<g>
				<path class="st18" d="M574.4,491.7C574.4,477.3,559.7,491.7,574.4,491.7L574.4,491.7z"/>
			</g>
		</g>
		<g>
			<g>
				<g>
					<path class="st19" d="M584.8,339.7c0.9,0.3,1.7,0.5,2.6,0.8c0.3-0.2,0.5-0.4,0.8-0.6C587,339.9,585.9,339.8,584.8,339.7z"/>
				</g>
			</g>
			<g>
				<g>
					<path class="st19" d="M584.8,339.7c-2-0.6-4-1.2-6-1.7C580.6,338.7,582.6,339.4,584.8,339.7z"/>
				</g>
			</g>
			<g>
				<path class="st19" d="M601.9,329.3c-5.4-0.7-11-0.7-17.2,0.3c2.5-1.8,4.1-3.2,5.1-4.4l-72.5-0.4c-10.1,0-15.1,0.6-24,4.6
					c2.9,2.5,5.8,4.9,8.7,7.4c-0.2,0-0.5-0.1-0.7-0.2c-0.1,0-0.2,0-0.2-0.1c-0.2-0.1-0.4-0.1-0.7-0.2c-0.1,0-0.2,0-0.2-0.1
					c-4.8-1.4-14.1-4.8-17-3.6c-1.5,0.6-1.9,4.7-3.8,4.7c-7.6,0-28.1,4.1-28.1-4.5c0,0-0.1-0.1-0.4-0.1c-18.7,8-35.9,18.7-51.2,31.6
					c9.8-1.6,20.1-1,22.1-1c0.2,0,0.5,0.5,1,1.4l0,0c0.8,1.6,2,4.3,3.1,7.1c0,0,0,0,0,0c0.1,0.2,0.2,0.4,0.2,0.6c0,0,0,0,0,0
					c0.2,0.6,0.5,1.2,0.7,1.7c0,0.1,0,0.1,0.1,0.2c0.1,0.1,0.1,0.3,0.2,0.4c0,0.1,0.1,0.2,0.1,0.3c0,0.1,0.1,0.2,0.1,0.4
					c0,0.1,0.1,0.2,0.1,0.3c0,0.1,0.1,0.2,0.1,0.3c0,0.1,0.1,0.2,0.1,0.3c0.1,0.1,0.1,0.3,0.2,0.4c0.1,0.1,0.1,0.3,0.2,0.4
					c0,0.1,0.1,0.1,0.1,0.2c0,0.1,0.1,0.2,0.1,0.3c0,0.1,0.1,0.1,0.1,0.2c0,0.1,0.1,0.2,0.1,0.3c0,0.1,0,0.1,0.1,0.2
					c0,0.1,0.1,0.2,0.1,0.3c0,0,0,0.1,0,0.1c0,0.1,0.1,0.3,0.1,0.4c0,0,0,0.1,0,0.1c0,0.1,0.1,0.2,0.1,0.3c0,0,0,0.1,0,0.1
					c0,0.1,0,0.1,0.1,0.2c0,0,0,0.1,0,0.1c0,0.1,0,0.1,0,0.2c0,0,0,0,0,0.1c0,0.1,0,0.1,0,0.1c0.3,7-4.4,9.8-8,16.4
					c-6.4,12.1-9.3,28-8.6,41.6c0,0.5,8.1,7.8,8.1,10.7c0,12.1,1.3,12.3,9.6,21.2v-14.8c4.9,13,10.9,18,15.4,30.7
					c5.1,14.4,25.1,3.3,31.9,12.8c3,4.2,8.6,2.3,11.3,6.3l7.2,11.1c4.4,6.7,9.7,4.4,17.5,4.4c7.5,0-6.8,25.9-6.8,28.1
					c0,9,12.3,29.4,12.2,33c-0.2,10.7,13.1,12.2,20.3,18.7c5.8,5.3,1.7,20.3,1.5,27c-0.4,15.5,9.5,26.7,12,41.3
					c0.9,5.5-1.1,11.3,0.1,16.6c1.2,5.4,5.9,8.7,5.8,14.7c-0.1,9.2,25.7,10.9,30.7,10.9c0,0-18.8-9.8-18.8-8.6
					c0-8.7,4.5-8.1,4.5-13.4c0-6.3-5.7-11.5-2.1-20.4c3.9-9.7,3.4-9.4,13.9-9.4c-0.2-4.4-0.9-8.8-2-13.1
					c9.3-14.6,31.1-28.6,36.9-32.5c7.8-5.3,3.4-19.8,6.8-27.5c3-6.8,12-13,12.4-21.3c0.3-6.3-5.3-7.9-9.9-7.7
					c-4.6,0.2-5.1-7.6-8.6-7.6c-9.7,0-19.8-1.7-28.2-7.9c-1.4-1-3-13.4-5.3-16.5c-3.4-4.4-14.3,3.3-18.5-2.7
					c-1.6-2.3-5.4-11.1-8-11.1c-3.5,0-22.9-3.8-27-0.1c0.6-0.6-6.6-2.8-7.6-2.8c0.4,0-24.9,13.1-24.9,6.3c0-8.8,4.3-20.3-6.2-20.3
					c-16.9,0-2.5-4.4-2.5-12.1c0-9.9-16.3,2.7-24.9,2.7c0.2,0-9.7-16.3-4.9-16.3c3.4,0,3.9-7,6.5-9.9c6.7-7.8,18-8.6,26-7.1
					c3.2,0.6,15,14.2,15,17c0-0.7,4.8-3.7,5.4-4.7c2.3-3.6,1-5.1,1.6-8.6c1.9-11.9,2.4-14.3,12-21.6c7-5.3,16.8-11.5,22.3-18.4
					c4.2-5.3,8.1-8,14.2-11c-0.6,0.3,5.8,3.9,7.1,3.9c5.5,0,6.8-4.7,9.9-8.8h-9.6c10.8-8.3-8.7-12.5,12.9-12.5
					c10.6,0,11.6,0.1,18.1-7.4c-10.3,0-7.8-0.1-7.8-10.6c0-1.8-2.9-8.2-5.7-5.4c-7.6,7.5-7.4-1.4-10.7-6.4c-4.3-6.4-9,0.2-10.8,4.1
					c-2.2,4.8-20.6,12.4-20.5,18.8c0,3.7-6,3.6-5.9-0.6c0.2-6.2-21.3-12.1-21.6-14.6c-0.5-3.2,10.6-11.8,20.3-11.8
					c3.9,0,2.7-3.9,3.3-4.9c0,0,0,0,0,0c0,0,0.1-0.1,0.1-0.1c0,0,0,0,0,0c0.1,0,0.1-0.1,0.2-0.1c9.2,0,20-2.9,25-10.3
					c-1.3,0-13,0.1-13-0.1c0-0.4,0-0.8,0-1.1c0-0.1,0-0.2,0-0.3c0-0.3-0.1-0.6-0.1-0.9c-0.1-0.8-0.2-1.5-0.2-2.1l0,0
					c0-1.6,0.5-2.4,3.3-2.4c11.3,0,14.7,8.8,27.1,8.8c-0.3,0.2-0.5,0.4-0.8,0.6c0,0,0,0,0,0c-4.2,3-8.4,6.1-12.6,9.1
					c6.2,0,15.6,10.4,20.4,7.1c0.4-0.2,0.7-0.5,1-0.7c0.1-0.1,0.2-0.1,0.2-0.2c0.3-0.2,0.6-0.5,0.8-0.7c0,0,0,0,0,0
					c0.3-0.2,0.5-0.5,0.7-0.7c0.1-0.1,0.1-0.1,0.2-0.2c0.2-0.2,0.4-0.4,0.5-0.6c0,0,0-0.1,0.1-0.1c0.2-0.2,0.3-0.4,0.5-0.7
					c0-0.1,0.1-0.1,0.1-0.2c0.1-0.2,0.2-0.3,0.3-0.5c0-0.1,0.1-0.1,0.1-0.2c0.1-0.2,0.2-0.4,0.3-0.6c0-0.1,0.1-0.2,0.1-0.3
					c0-0.1,0.1-0.2,0.1-0.4c0.1-0.2,0.1-0.4,0.2-0.5c0-0.1,0-0.1,0.1-0.2c0.5-1.7,0.6-3.1,1.4-4.1c0,0,0,0,0,0
					c0.6-0.8,1.6-1.4,3.5-1.7c0.8,0.8,1.8,1.6,3.6,2.2c2.3,0.8,10.6,2.3,12,4.4c0.6,0.8,1.4,3,2.1,5.5c0,0,0,0,0,0
					c0.6,2,1.1,4.2,1.5,6.3c0,0,0,0,0,0c0.1,0.7,0.2,1.3,0.3,2c0,0,0,0.1,0,0.1c0,0.3,0,0.5,0.1,0.8c0,0.1,0,0.1,0,0.2
					c0,0.2,0,0.5,0,0.7c0,0,0,0.1,0,0.1c0,0.3,0,0.5,0,0.7c0,0.1,0,0.1,0,0.2c0,0.2,0,0.3-0.1,0.5c0,0.1,0,0.1,0,0.2
					c0,0.2-0.1,0.3-0.1,0.5c0,0,0,0,0,0.1c-0.1,0.2-0.1,0.3-0.2,0.4c0,0,0,0.1-0.1,0.1c-0.1,0.1-0.1,0.2-0.2,0.2
					c0,0-0.1,0.1-0.1,0.1c-0.1,0.1-0.2,0.2-0.3,0.2c-5.1,2.1-20.2,18.4-8.7,22.5c8.9,3.1,11.2-0.8,19.1-5.8c7.1-4.5,9.2-3,16.9-0.3
					c0,0,0,0,0,0c0.3,0.1,0.5,0.2,0.8,0.3c0,0,0,0,0.1,0c0,0,0,0,0,0c0.3,0,1.3,0,2.5,0h0c0.2,0,0.5,0,0.8,0c0,0,0,0,0,0
					c0.3,0,0.5,0,0.8,0c0,0,0,0,0,0c0.3,0,0.6,0,0.8,0c0,0,0,0,0.1,0c0.3,0,0.6,0,0.9,0c0,0,0.1,0,0.1,0c0.3,0,0.6,0,0.9,0
					c0,0,0.1,0,0.1,0c0.3,0,0.6,0,0.8,0.1c0,0,0.1,0,0.1,0c0.3,0,0.5,0.1,0.8,0.1c0,0,0.1,0,0.1,0c0.3,0,0.5,0.1,0.8,0.1
					c0,0,0,0,0.1,0c0.3,0,0.5,0.1,0.7,0.1c0,0,0,0,0,0c0.2,0,0.5,0.1,0.7,0.2l0,0c0.2,0.1,0.4,0.1,0.6,0.2c7,2.5,6.5-1.9,7.2-1.7
					c2.9,1,8.5,1.8,12.2,0.2C661.4,360.8,633.5,341.2,601.9,329.3z"/>
			</g>
		</g>
		<g class="st20">
			<path d="M636.7,346.2c20.2,31.6,31.9,69.1,31.9,109.3c0,38.4-10.7,74.4-29.2,105v0c-0.4,0.6-0.8,1.2-1.1,1.8
				c-0.4,0.7-0.8,1.3-1.2,2c-0.4,0.6-0.8,1.3-1.2,1.9c-0.4,0.6-0.8,1.2-1.2,1.8c-0.4,0.6-0.9,1.3-1.3,1.9c-0.4,0.6-0.8,1.2-1.2,1.8
				c-0.4,0.6-0.9,1.3-1.3,1.9c-0.4,0.6-0.9,1.2-1.3,1.8c-0.8,1-1.5,2.1-2.3,3.1c-0.5,0.6-1,1.3-1.5,1.9c-0.5,0.6-1,1.3-1.5,1.9
				c-0.4,0.5-0.8,1-1.3,1.6c-0.5,0.6-1.1,1.3-1.6,1.9c-0.4,0.5-0.8,1-1.2,1.5c-0.5,0.6-1.1,1.3-1.7,1.9c-0.4,0.5-0.8,0.9-1.2,1.4
				c-0.6,0.7-1.2,1.3-1.8,2c-0.3,0.3-0.6,0.7-1,1c-1.3,1.4-2.7,2.8-4,4.2c-0.2,0.2-0.5,0.5-0.7,0.7c-0.7,0.7-1.4,1.4-2.1,2
				c-0.4,0.3-0.7,0.7-1.1,1c-0.7,0.7-1.4,1.3-2.1,2c-0.4,0.3-0.7,0.7-1.1,1c-0.7,0.7-1.4,1.3-2.2,2c-0.3,0.3-0.6,0.5-0.9,0.8
				c-2.7,2.4-5.5,4.8-8.3,7c-0.1,0.1-0.2,0.2-0.3,0.2c-0.9,0.7-1.8,1.4-2.7,2.1c-0.3,0.2-0.5,0.4-0.8,0.6c-0.9,0.7-1.8,1.3-2.6,2
				c-0.2,0.2-0.5,0.3-0.7,0.5c-0.9,0.7-1.9,1.4-2.8,2c0,0-0.1,0-0.1,0.1c-3.3,2.3-6.6,4.5-10,6.6c0,0,0,0,0,0
				c-1.1,0.7-2.1,1.3-3.2,1.9c-0.2,0.1-0.3,0.2-0.5,0.3c-1.1,0.6-2.1,1.2-3.2,1.8c-0.1,0.1-0.2,0.1-0.3,0.2c-4.6,2.6-9.4,5-14.2,7.3
				c0,0,0,0,0,0c-1.2,0.5-2.3,1.1-3.5,1.6c-0.1,0-0.2,0.1-0.3,0.1c-1.2,0.5-2.4,1-3.6,1.5v0c-23.9,9.9-50.1,15.4-77.6,15.4
				c-38.9,0-75.3-11-106.2-30c36.1,56.3,99.2,93.7,171.1,93.7c112.1,0,203-90.9,203-203C733.5,446,694.8,381.9,636.7,346.2z"/>
		</g>
		<g>
			<g>
				<g class="st21">
					<path class="st22" d="M355.1,540.9c0-104.1,84.4-188.5,188.5-188.5c60.8,0,114.9,28.8,149.4,73.6
						c-32.5-56.5-93.5-94.5-163.4-94.5c-104.1,0-188.5,84.4-188.5,188.5c0,43.2,14.6,83.1,39.1,114.9
						C364.2,607.1,355.1,575.1,355.1,540.9z"/>
				</g>
			</g>
		</g>
	</g>
	<g>
		<g>
			<path class="st2" d="M451.1,336.1c-0.4,1.4-3.2,1.4-3.9,2.6c-1.1,1.8,0.2,4.3,0.8,6.1c0.2,0.7,0.4,1.4,0.3,2.2
				c-0.2,0.9-0.8,1.7-1.5,2.4c-1.2,1.3-2.4,2.6-3.6,3.9c-0.2,0.2-0.4,0.4-0.6,0.6c-0.4,0.3-1,0.4-1.5,0.4c-3.5,0.3-6.9-1.2-10.1-2.7
				c-1-0.5-2.1-1-2.8-1.9c-0.6-0.9-0.8-1.9-1-3c-1-6.2-2.4-13.2,2.7-18c2.7-2.6,6.2-4.4,9.9-5.3c1.4-0.3,4.2-1.1,5.3-0.1
				c0.9,0.8,1.6,4.1,2.5,5.3c1.1,1.5,3.6,4.7,3.5,6.6C451.2,335.8,451.2,336,451.1,336.1z"/>
		</g>
	</g>
</g>
<g>
	<g>
		<g>
			<g>
				<path class="st2" d="M381.7,452.5c-0.3-0.1-0.6-0.1-0.8-0.1c-2.5,0.1-3.8,1.7-6.2,2.5c-1.1,0.4-3.3-1.4-3.9,0.8
					c-0.2,0.8-0.5,3-0.9,4.8c-0.6,2.6-3,5.5-5.4,7.5c-9.2,7.8-20.2,12.8-31.3,17.4c-0.6,0.3-1.3,0.5-2,0.5c-2-0.2-4.5-3-6-4.1
					c-2.6-2.1-5.2-3.9-8-5.7c-5.6-3.5-11.4-6.5-17.3-9.5c-1.9-0.9-3.8-1.9-5.8-2.1c-5.8-0.5-9.1,6.8-8.5,11.8
					c1.1,9.3,14.3,13.1,21.5,16.8c6.8,3.4,13.9,6.4,21.1,8.9c0.9,0.3,1.8,0.6,2.8,0.5c1-0.1,1.9-0.6,2.8-1
					c11.4-6.2,22.1-13.4,32.8-20.8c2.9-2,4.4-5.4,7.1-7.2c1.7-1.2,4-0.9,5.8-1.6c1.9-0.8,4.1-2.2,5.6-3.6c2.9-2.7,2.4-6.8,2.3-10.4
					c0-0.9,0-1.5-0.5-2.2c-0.7-1.2-1.9-1.7-3.1-2.3C383.2,452.9,382.4,452.6,381.7,452.5z"/>
			</g>
		</g>
	</g>
	<g>
		<g>
			<path class="st5" d="M265.5,474.6c0.1,0.8,0.3,1.7,0.5,2.5c0.9,3.2,2.7,6.1,5.1,8.6c5.1,5.3,11.5,9.3,16.6,14.6
				c0.2,0.2,0.3,0.4,0.6,0.4c0.3,0.1,0.5,0,0.8-0.2c1.8-0.9,2.8-3,3.3-4.9c0.6-2,0.9-4,2.1-5.7c2.6-4,8.2-4.3,12.4-6.6
				c2.3-1.3,4.3-3.2,5.6-5.6c0.4-0.8,0.8-1.6,0.7-2.4c-0.1-2.5-1.6-4.3,0.3-6.6c0.5-0.6,1.1-1.1,1.5-1.8c4.1-7.8-5.8-8.5-9.9-10.7
				c-5.4-2.8-9.8-7.4-15.8-9c-4.9-1.3-9-0.8-13.8,0.9c-1.1,0.4-2.3,0.8-3,1.8c-0.4,0.6-0.6,1.4-1,2c-0.6,1.3-2.2,2.4-3.1,3.5
				c-1,1.4-1.9,2.9-2.5,4.6c-1.1,2.8-0.9,4.6-0.7,7.4C265.3,470,265.2,472.3,265.5,474.6z"/>
		</g>
	</g>
</g>
<g>
	<g>
		<g>
			<g>
				<path class="st2" d="M329,346.7c-0.2,0.2-0.4,0.4-0.6,0.6c-1.3,2.2-0.6,4.1-1.2,6.5c-0.3,1.1-3,2-1.4,3.7c0.6,0.6,2.3,2,3.5,3.3
					c1.9,2,3,5.6,3.4,8.6c1.6,11.9-0.2,23.9-2.3,35.7c-0.1,0.7-0.3,1.4-0.7,1.9c-1.2,1.6-4.9,2.2-6.7,2.8c-3.1,1-6.1,2.3-9.1,3.7
					c-6,2.8-11.7,6.1-17.3,9.4c-1.8,1-3.6,2.1-4.9,3.8c-3.6,4.7,0.8,11.4,5.3,13.5c8.5,4.1,18.8-5,25.8-9
					c6.6-3.9,12.9-8.2,18.9-12.9c0.7-0.6,1.5-1.2,1.9-2c0.5-0.9,0.6-1.9,0.6-2.9c0.9-12.9,0.7-25.8,0.2-38.8
					c-0.1-3.6-2.1-6.6-2.2-9.9c-0.1-2.1,1.4-3.8,1.8-5.8c0.4-2,0.4-4.7,0-6.6c-0.7-3.9-4.4-5.7-7.5-7.5c-0.8-0.5-1.3-0.8-2.1-0.8
					c-1.4-0.1-2.5,0.7-3.6,1.4C330.2,345.7,329.6,346.2,329,346.7z"/>
			</g>
		</g>
	</g>
	<g>
		<g>
			<path class="st5" d="M284.8,456.5c0.8,0.4,1.6,0.7,2.4,1c3.2,1,6.6,1,10,0.4c7.2-1.4,14-4.6,21.3-6c0.2,0,0.5-0.1,0.7-0.3
				c0.2-0.2,0.2-0.5,0.3-0.7c0.2-2-1-3.9-2.3-5.5c-1.3-1.5-2.9-3-3.7-4.8c-1.9-4.4,0.8-9.3,1.2-14c0.2-2.7-0.4-5.4-1.7-7.7
				c-0.4-0.8-0.9-1.5-1.7-1.9c-2.2-1.3-4.5-1-5.4-3.9c-0.2-0.7-0.3-1.5-0.7-2.2c-4.3-7.7-10.3,0.3-14.4,2.6
				c-5.3,3-11.6,4.2-16.1,8.5c-3.7,3.4-5.6,7.2-6.7,12c-0.3,1.1-0.5,2.4-0.1,3.5c0.3,0.7,0.8,1.3,1.2,1.9c0.7,1.2,0.8,3.1,1.3,4.5
				c0.6,1.6,1.5,3.2,2.5,4.6c1.7,2.4,3.4,3.2,5.9,4.6C280.8,454.1,282.7,455.5,284.8,456.5z"/>
		</g>
	</g>
</g>
<g>
	<g>
		<path class="st13" d="M372.5,317.2c0,0-5.2,31,21.7,91.2l16.1-6.5c0,0-26.9-51.3-28.3-85.9L372.5,317.2z"/>
	</g>
	<g>
		<g>
			<path class="st14" d="M415.2,193.5c0,0-50.3,32.1-60.5,65.6c-10.2,33.4,21.4,62.5,21.4,62.5s42.4-6.4,52.6-39.9
				C439,248.2,415.2,193.5,415.2,193.5z"/>
		</g>
		<g>
			<path class="st15" d="M376.2,321.5c0,0,2.4-0.4,6.3-1.4l18.3-79.1l-29,75.8C374.3,319.8,376.2,321.5,376.2,321.5z"/>
		</g>
	</g>
	<g>
		<g>
			<path class="st14" d="M263.8,314.6c0,0,28.8,44.8,58.7,53.7c29.9,9,55.7-19.3,55.7-19.3s-5.9-37.8-35.8-46.8
				C312.5,293.2,263.8,314.6,263.8,314.6z"/>
		</g>
		<g>
			<path class="st15" d="M378.2,349.1c0,0-0.3-2.2-1.3-5.6l-70.6-16L374,353C376.7,350.7,378.2,349.1,378.2,349.1z"/>
		</g>
	</g>
	<g>
		<path class="st16" d="M376.2,321.5c0,0,54.6-34.6,51.7-88.2C427.8,233.3,452.4,309,376.2,321.5z"/>
	</g>
</g>
<g>
	<g>
		<path class="st2" d="M253.3,340.8c0.7-0.2,1.4-0.3,2.1-0.4c2.4-0.4,4.8-0.5,7.2-0.5c2.6-0.1,5.3-0.1,7.8,0.8
			c2.5,0.9,4.7,2.9,5.1,5.5c0.2,1.4-0.1,2.8-0.4,4.1c-0.1,0.5-0.2,1-0.5,1.4c-0.7,0.9-2,0.8-3.1,0.6c-4.3-0.7-8.7-1.5-13-2.2
			c0.8,1.7-0.3,4-2.2,4.4c-1.9,0.4-3.6-0.9-5.5-1.5c-4.2-1.3-8.1,1.3-12.2,1.3c-4.1,0-8.3-1.1-12.5-1.5c-9.1-0.8-18.1-2.5-26.8-5.1
			c-0.3-0.1-0.6-0.2-0.7-0.4c-0.2-0.3-0.1-0.6,0-1c1.4-4.5,2.8-9,4.2-13.6c0.5-1.5,33.3,6.2,36.9,7.3c3.3,1,6.7,2,10.2,1.6
			C251,341.4,252.2,341.1,253.3,340.8z"/>
	</g>
	<g>
		<path class="st5" d="M144.2,254.1l32.6,52.4l34.2,17.3l-5.3,31.9L148,344.1l-49.4-69.6c-7.3-8.2,9.2-23.7,9.2-23.7
			C122.2,239.1,135.5,245.3,144.2,254.1z"/>
	</g>
</g>
</svg>
