<?xml version="1.0" encoding="utf-8"?>
<!-- Generator: Adobe Illustrator 24.0.0, SVG Export Plug-In . SVG Version: 6.00 Build 0)  -->
<svg version="1.1" id="Режим_изоляции"
	 xmlns="http://www.w3.org/2000/svg" xmlns:xlink="http://www.w3.org/1999/xlink" x="0px" y="0px" viewBox="0 0 2151 1504.3"
	 style="enable-background:new 0 0 2151 1504.3;" xml:space="preserve">
<style type="text/css">
	.st0{clip-path:url(#SVGID_2_);}
	.st1{display:none;fill:#FAFAFA;}
	.st2{fill:url(#SVGID_3_);}
	.st3{fill:url(#SVGID_4_);}
	.st4{fill:url(#SVGID_5_);}
	.st5{fill:url(#SVGID_6_);}
	.st6{fill:url(#SVGID_7_);}
	.st7{fill:url(#SVGID_8_);}
	.st8{fill:url(#SVGID_9_);}
	.st9{fill:url(#SVGID_10_);}
	.st10{fill:url(#SVGID_11_);}
	.st11{fill:url(#SVGID_12_);}
	.st12{fill:url(#SVGID_13_);}
	.st13{fill:url(#SVGID_14_);}
	.st14{fill:url(#SVGID_15_);}
	.st15{fill:url(#SVGID_16_);}
	.st16{fill:url(#SVGID_17_);}
	.st17{fill:url(#SVGID_18_);}
	.st18{fill:url(#SVGID_19_);}
	.st19{fill:url(#SVGID_20_);}
	.st20{fill:url(#SVGID_21_);}
	.st21{fill:url(#SVGID_22_);}
	.st22{fill:url(#SVGID_23_);}
	.st23{fill:url(#SVGID_24_);}
	.st24{fill:url(#SVGID_25_);}
	.st25{fill:url(#SVGID_26_);}
	.st26{fill:url(#SVGID_27_);}
	.st27{fill:url(#SVGID_28_);}
	.st28{fill:url(#SVGID_29_);}
	.st29{fill:url(#SVGID_30_);}
	.st30{fill:url(#SVGID_31_);}
	.st31{fill:url(#SVGID_32_);}
	.st32{fill:url(#SVGID_33_);}
	.st33{fill:url(#SVGID_34_);}
	.st34{fill:url(#SVGID_35_);}
	.st35{fill:url(#SVGID_36_);}
	.st36{fill:#668B43;}
	.st37{fill:url(#SVGID_37_);}
	.st38{fill:url(#SVGID_38_);}
	.st39{fill:url(#SVGID_39_);}
	.st40{fill:url(#SVGID_40_);}
	.st41{fill:#FAFAFA;}
	.st42{fill:url(#SVGID_41_);}
	.st43{fill:url(#SVGID_42_);}
	.st44{fill:url(#SVGID_43_);}
	.st45{fill:url(#SVGID_44_);}
	.st46{fill:url(#SVGID_45_);}
	.st47{fill:url(#SVGID_46_);}
	.st48{fill:url(#SVGID_47_);}
	.st49{fill:url(#SVGID_48_);}
	.st50{fill:#665757;}
	.st51{fill:url(#SVGID_49_);}
	.st52{fill:#ADD14D;}
	.st53{fill:#877373;}
</style>
<g>
	<defs>
		<rect id="SVGID_1_" x="0" width="2151" height="1504.3"/>
	</defs>
	<clipPath id="SVGID_2_">
		<use xlink:href="#SVGID_1_"  style="overflow:visible;"/>
	</clipPath>
	<g class="st0">
		<polygon class="st1" points="2245.3,-495.7 2245.3,989.9 917.6,967 -790.4,937.5 -790.4,-495.7 		"/>
		<linearGradient id="SVGID_3_" gradientUnits="userSpaceOnUse" x1="1935.5612" y1="2117.521" x2="1169.4059" y2="137.0788">
			<stop  offset="1.036270e-02" style="stop-color:#B0BD24"/>
			<stop  offset="1" style="stop-color:#467550"/>
		</linearGradient>
		<path class="st2" d="M472.8,983.4c0,0,84.7-176.2,312-128.4c227.4,47.8,274.4-109.5,408.8-226.3
			c134.4-116.8,615.9-635.7,1051.7-357.4v749.7L472.8,983.4z"/>
		<g>
			<linearGradient id="SVGID_4_" gradientUnits="userSpaceOnUse" x1="1170.6704" y1="1065.7449" x2="1170.6704" y2="805.995">
				<stop  offset="0" style="stop-color:#9E9A34"/>
				<stop  offset="1" style="stop-color:#3D6A6E"/>
			</linearGradient>
			<polygon class="st3" points="1231.4,948.4 1196.7,872.5 1206.9,872.6 1189.2,834 1198.4,834.1 1171.9,776.2 1144.3,833.6 
				1153.3,833.7 1134.8,871.9 1146.1,872 1109.9,947.2 1162.8,947.8 1162.9,981.7 1178.6,981.6 1178.5,947.9 			"/>
			<linearGradient id="SVGID_5_" gradientUnits="userSpaceOnUse" x1="1026.3467" y1="1065.745" x2="1026.3467" y2="805.9944">
				<stop  offset="0" style="stop-color:#9E9A34"/>
				<stop  offset="1" style="stop-color:#3D6A6E"/>
			</linearGradient>
			<path class="st4" d="M1099.1,970.6c0,0,2.7-18.7-25.8-16.1c-0.8,0.1-1.6,0.2-2.3,0.3l0-6.8l67.1,0.2l-37.8-64.3l22,0.1
				l-17.3-29.4l17.4,0.1l-42.4-72l15.2,0.1l-32.4-55.1l-32.8,54.8l15.2,0.1l-42.9,71.7l17.4,0.1l-17.5,29.3l22,0.1l-38.3,64
				l70.8,0.3l0,11c-9.3,4.8-9.9,10.2-30.7-1.5c-28.9-16.1-37.9,1.2-37.9,1.2s-14.9-10.9-24.4,1.6c-3.4,4.4-8.9,6.2-14.7,7.4
				l0.1-20.8c1.7-0.2,3.6-0.6,5.4-1.1c36.1-9.7,13.3-41.5,12.2-55.7c-1-14.2,21.9-18,16.6-46.4c-5.4-28.4-22.9-21.4-21.7-40
				c1.2-18.6-3.4-39.8-21.7-31.2c-10.4,4.9-11.5,13.6-22,38.2c-10.5,24.5,11.9,32.3,0.9,66.1c-9.5,29.2-2.8,66.6,22.4,70l-0.1,22.3
				c-7.6,1.5-14,3.8-14,12.4l186.8,0.7C1113.9,982.2,1114.8,971.1,1099.1,970.6z"/>
			<g>
				<linearGradient id="SVGID_6_" gradientUnits="userSpaceOnUse" x1="1401.0674" y1="1065.7452" x2="1401.0674" y2="805.994">
					<stop  offset="0" style="stop-color:#9E9A34"/>
					<stop  offset="1" style="stop-color:#3D6A6E"/>
				</linearGradient>
				<polygon class="st5" points="1408.2,981.7 1394.3,981.7 1393.9,848.1 1407.9,848.1 				"/>
				<linearGradient id="SVGID_7_" gradientUnits="userSpaceOnUse" x1="1401.0986" y1="1065.7449" x2="1401.0986" y2="805.9938">
					<stop  offset="0" style="stop-color:#9E9A34"/>
					<stop  offset="1" style="stop-color:#3D6A6E"/>
				</linearGradient>
				<polygon class="st6" points="1448.4,914.3 1456,914.3 1423.2,804 1430.2,804 1400.5,704.4 1371.4,804.2 1378.4,804.1 
					1346.1,914.6 1353.8,914.6 1346.2,940.6 1354.9,940.6 1349.2,959.9 1401.2,959.8 1453.1,959.7 1447.4,940.3 1456.1,940.3 				
					"/>
			</g>
			<g>
				<linearGradient id="SVGID_8_" gradientUnits="userSpaceOnUse" x1="1253.897" y1="1065.7449" x2="1253.897" y2="805.9946">
					<stop  offset="0" style="stop-color:#9E9A34"/>
					<stop  offset="1" style="stop-color:#3D6A6E"/>
				</linearGradient>
				<rect x="1245.6" y="822.1" class="st7" width="16.6" height="159.6"/>
				<linearGradient id="SVGID_9_" gradientUnits="userSpaceOnUse" x1="1253.9004" y1="1065.7463" x2="1253.9004" y2="805.9937">
					<stop  offset="0" style="stop-color:#9E9A34"/>
					<stop  offset="1" style="stop-color:#3D6A6E"/>
				</linearGradient>
				<polygon class="st8" points="1310.4,901.3 1319.6,901.3 1280.6,769.5 1289,769.5 1253.8,650.4 1218.7,769.5 1227.1,769.5 
					1188.2,901.4 1197.4,901.4 1188.2,932.4 1198.7,932.4 1191.9,955.5 1253.9,955.5 1316,955.5 1309.1,932.4 1319.6,932.4 				"/>
			</g>
			<g>
				<linearGradient id="SVGID_10_" gradientUnits="userSpaceOnUse" x1="1333.5078" y1="1065.7446" x2="1333.5078" y2="805.9946">
					<stop  offset="0" style="stop-color:#9E9A34"/>
					<stop  offset="1" style="stop-color:#3D6A6E"/>
				</linearGradient>
				<rect x="1327.5" y="867.7" class="st9" width="11.9" height="114.5"/>
				<linearGradient id="SVGID_11_" gradientUnits="userSpaceOnUse" x1="1333.5112" y1="1065.745" x2="1333.5112" y2="805.9937">
					<stop  offset="0" style="stop-color:#9E9A34"/>
					<stop  offset="1" style="stop-color:#3D6A6E"/>
				</linearGradient>
				<polygon class="st10" points="1380.6,928.3 1356.7,847.2 1363.7,847.2 1333.5,744.8 1303.3,847.2 1310.3,847.2 1286.4,928.3 
					1293.4,928.3 1286.4,952.2 1333.5,952.2 1380.6,952.2 1373.6,928.3 				"/>
			</g>
			<g>
				<linearGradient id="SVGID_12_" gradientUnits="userSpaceOnUse" x1="1503.4344" y1="1065.7454" x2="1503.4344" y2="805.9936">
					<stop  offset="0" style="stop-color:#9E9A34"/>
					<stop  offset="1" style="stop-color:#3D6A6E"/>
				</linearGradient>
				<rect x="1495.5" y="828.5" class="st11" width="15.9" height="152.7"/>
				<linearGradient id="SVGID_13_" gradientUnits="userSpaceOnUse" x1="1503.4375" y1="1065.7451" x2="1503.4375" y2="805.9943">
					<stop  offset="0" style="stop-color:#9E9A34"/>
					<stop  offset="1" style="stop-color:#3D6A6E"/>
				</linearGradient>
				<polygon class="st12" points="1566.3,916.8 1538.6,823.1 1544.7,823.1 1503.4,683.1 1462.1,823.1 1468.2,823.1 1440.6,916.8 
					1468.2,916.8 1462.1,937.3 1503.4,937.3 1544.8,937.3 1538.7,916.8 				"/>
			</g>
			<g>
				<linearGradient id="SVGID_14_" gradientUnits="userSpaceOnUse" x1="1569.3662" y1="1065.7454" x2="1569.3662" y2="805.9929">
					<stop  offset="0" style="stop-color:#9E9A34"/>
					<stop  offset="1" style="stop-color:#3D6A6E"/>
				</linearGradient>
				<polygon class="st13" points="1574.9,979.4 1564.3,979.4 1563.8,877.9 1574.4,877.8 				"/>
				<linearGradient id="SVGID_15_" gradientUnits="userSpaceOnUse" x1="1569.2856" y1="1065.7466" x2="1569.2856" y2="805.993">
					<stop  offset="0" style="stop-color:#9E9A34"/>
					<stop  offset="1" style="stop-color:#3D6A6E"/>
				</linearGradient>
				<polygon class="st14" points="1628.4,884.8 1568.3,725.3 1509.9,885.4 1530.8,885.3 1510.2,941.6 1569.4,941.3 1628.7,941 
					1607.5,884.9 				"/>
			</g>
			<linearGradient id="SVGID_16_" gradientUnits="userSpaceOnUse" x1="1742.106" y1="1050.0801" x2="1742.106" y2="839.0477">
				<stop  offset="0" style="stop-color:#9E9A34"/>
				<stop  offset="1" style="stop-color:#3D6A6E"/>
			</linearGradient>
			<polygon class="st15" points="1802.9,954.8 1768.2,893.1 1778.3,893.2 1760.7,861.8 1769.9,861.9 1743.4,814.8 1715.7,861.4 
				1724.7,861.5 1706.3,892.6 1717.6,892.7 1681.3,953.8 1734.2,954.2 1734.3,981.8 1750,981.8 1750,954.3 			"/>
			<linearGradient id="SVGID_17_" gradientUnits="userSpaceOnUse" x1="1597.783" y1="1050.08" x2="1597.783" y2="839.0479">
				<stop  offset="0" style="stop-color:#9E9A34"/>
				<stop  offset="1" style="stop-color:#3D6A6E"/>
			</linearGradient>
			<path class="st16" d="M1670.5,972.8c0,0,2.7-15.2-25.8-13.1c-0.8,0.1-1.6,0.1-2.3,0.2l0-5.5l67.1,0.2l-37.8-52.2l22,0.1
				l-17.3-23.9l17.4,0.1l-42.4-58.5l15.2,0l-32.4-44.7l-32.8,44.6l15.2,0l-42.9,58.3l17.4,0l-17.5,23.8l22,0.1l-38.3,52l70.8,0.2
				l0,8.9c-9.3,3.9-9.9,8.3-30.7-1.2c-28.9-13.1-37.9,1-37.9,1s-14.9-8.9-24.4,1.3c-3.4,3.6-8.9,5-14.7,6l0.1-16.9
				c1.7-0.2,3.6-0.5,5.4-0.9c36.1-7.9,13.3-33.7,12.2-45.2c-1-11.5,21.9-14.6,16.6-37.7c-5.4-23.1-22.9-17.4-21.7-32.5
				c1.2-15.1-3.4-32.3-21.7-25.4c-10.4,4-11.5,11.1-22,31c-10.5,19.9,11.9,26.2,0.9,53.7c-9.5,23.7-2.8,54.1,22.4,56.9l-0.1,18.1
				c-7.6,1.2-14,3.1-14,10.1l186.8,0.5C1685.3,982.2,1686.2,973.2,1670.5,972.8z"/>
			<g>
				<linearGradient id="SVGID_18_" gradientUnits="userSpaceOnUse" x1="1972.5029" y1="1050.0795" x2="1972.5029" y2="839.0482">
					<stop  offset="0" style="stop-color:#9E9A34"/>
					<stop  offset="1" style="stop-color:#3D6A6E"/>
				</linearGradient>
				<polygon class="st17" points="1979.6,981.8 1965.7,981.8 1965.4,873.3 1979.3,873.2 				"/>
				<linearGradient id="SVGID_19_" gradientUnits="userSpaceOnUse" x1="1972.5347" y1="1050.0796" x2="1972.5347" y2="839.0468">
					<stop  offset="0" style="stop-color:#9E9A34"/>
					<stop  offset="1" style="stop-color:#3D6A6E"/>
				</linearGradient>
				<polygon class="st18" points="2019.8,927.1 2027.5,927.1 1994.6,837.4 2001.7,837.4 1972,756.5 1942.8,837.6 1949.8,837.5 
					1917.5,927.3 1925.2,927.3 1917.6,948.4 1926.3,948.4 1920.7,964.1 1972.6,964 2024.6,963.9 2018.8,948.2 2027.5,948.2 				"/>
			</g>
			<g>
				<linearGradient id="SVGID_20_" gradientUnits="userSpaceOnUse" x1="1825.3324" y1="1050.0803" x2="1825.3324" y2="839.0468">
					<stop  offset="0" style="stop-color:#9E9A34"/>
					<stop  offset="1" style="stop-color:#3D6A6E"/>
				</linearGradient>
				<rect x="1817" y="852.1" class="st19" width="16.6" height="129.6"/>
				<linearGradient id="SVGID_21_" gradientUnits="userSpaceOnUse" x1="1825.3369" y1="1050.0801" x2="1825.3369" y2="839.0469">
					<stop  offset="0" style="stop-color:#9E9A34"/>
					<stop  offset="1" style="stop-color:#3D6A6E"/>
				</linearGradient>
				<polygon class="st20" points="1881.8,916.5 1891,916.5 1852,809.4 1860.5,809.4 1825.3,712.6 1790.1,809.4 1798.6,809.4 
					1759.7,916.5 1768.8,916.5 1759.7,941.8 1770.1,941.7 1763.3,960.5 1825.3,960.5 1887.4,960.5 1880.6,941.7 1891,941.7 				"/>
			</g>
			<g>
				<linearGradient id="SVGID_22_" gradientUnits="userSpaceOnUse" x1="1904.9438" y1="1050.0796" x2="1904.9438" y2="839.0482">
					<stop  offset="0" style="stop-color:#9E9A34"/>
					<stop  offset="1" style="stop-color:#3D6A6E"/>
				</linearGradient>
				<rect x="1899" y="889.2" class="st21" width="11.9" height="93.1"/>
				<linearGradient id="SVGID_23_" gradientUnits="userSpaceOnUse" x1="1904.9478" y1="1050.0793" x2="1904.9478" y2="839.047">
					<stop  offset="0" style="stop-color:#9E9A34"/>
					<stop  offset="1" style="stop-color:#3D6A6E"/>
				</linearGradient>
				<polygon class="st22" points="1952.1,938.4 1928.1,872.5 1935.2,872.5 1904.9,789.3 1874.7,872.5 1881.7,872.5 1857.8,938.4 
					1864.9,938.4 1857.8,957.8 1905,957.8 1952.1,957.8 1945,938.4 				"/>
			</g>
			<g>
				<linearGradient id="SVGID_24_" gradientUnits="userSpaceOnUse" x1="2074.8701" y1="1050.0801" x2="2074.8701" y2="839.0475">
					<stop  offset="0" style="stop-color:#9E9A34"/>
					<stop  offset="1" style="stop-color:#3D6A6E"/>
				</linearGradient>
				<rect x="2066.9" y="857.3" class="st23" width="15.9" height="124"/>
				<linearGradient id="SVGID_25_" gradientUnits="userSpaceOnUse" x1="2074.8735" y1="1050.0809" x2="2074.8735" y2="839.0478">
					<stop  offset="0" style="stop-color:#9E9A34"/>
					<stop  offset="1" style="stop-color:#3D6A6E"/>
				</linearGradient>
				<polygon class="st24" points="2137.7,929 2110,852.9 2116.2,852.9 2074.8,739.2 2033.5,852.9 2039.7,852.9 2012.1,929.1 
					2039.6,929.1 2033.6,945.7 2074.9,945.7 2116.2,945.7 2110.1,929 				"/>
			</g>
			<g>
				<linearGradient id="SVGID_26_" gradientUnits="userSpaceOnUse" x1="2140.8022" y1="1050.0809" x2="2140.8022" y2="839.0468">
					<stop  offset="0" style="stop-color:#9E9A34"/>
					<stop  offset="1" style="stop-color:#3D6A6E"/>
				</linearGradient>
				<polygon class="st25" points="2146.4,979.9 2135.8,980 2135.2,897.5 2145.8,897.4 				"/>
				<linearGradient id="SVGID_27_" gradientUnits="userSpaceOnUse" x1="2140.7222" y1="1050.0804" x2="2140.7222" y2="839.0463">
					<stop  offset="0" style="stop-color:#9E9A34"/>
					<stop  offset="1" style="stop-color:#3D6A6E"/>
				</linearGradient>
				<polygon class="st26" points="2199.8,903.1 2139.7,773.5 2081.3,903.6 2102.2,903.5 2081.6,949.3 2140.9,949 2200.1,948.8 
					2179,903.2 				"/>
			</g>
		</g>
		<linearGradient id="SVGID_28_" gradientUnits="userSpaceOnUse" x1="731.9725" y1="1384.6735" x2="707.4357" y2="631.0477">
			<stop  offset="1.036270e-02" style="stop-color:#B0BD24"/>
			<stop  offset="1" style="stop-color:#467550"/>
		</linearGradient>
		<rect x="-790.4" y="1011.2" class="st27" width="3035.7" height="471.2"/>
		<linearGradient id="SVGID_29_" gradientUnits="userSpaceOnUse" x1="797.0579" y1="960.6902" x2="606.9086" y2="2030.2798">
			<stop  offset="1.036270e-02" style="stop-color:#B0BD24"/>
			<stop  offset="1" style="stop-color:#467550"/>
		</linearGradient>
		<rect x="-790.4" y="1199.7" class="st28" width="3035.7" height="304.6"/>
		<linearGradient id="SVGID_30_" gradientUnits="userSpaceOnUse" x1="1312.9897" y1="1158.7533" x2="1312.9897" y2="1406.9376">
			<stop  offset="1.036270e-02" style="stop-color:#B0BD24"/>
			<stop  offset="1" style="stop-color:#467550"/>
		</linearGradient>
		<polygon class="st29" points="2245.3,1103.8 380.6,1199.7 2245.3,1246.8 		"/>
		<linearGradient id="SVGID_31_" gradientUnits="userSpaceOnUse" x1="261.3061" y1="1223.3916" x2="261.3061" y2="1439.623">
			<stop  offset="0" style="stop-color:#6B9E34"/>
			<stop  offset="1" style="stop-color:#1F4A6E"/>
		</linearGradient>
		<polygon class="st30" points="1313,1223.3 -790.4,1300.1 -790.4,1175.5 		"/>
		<linearGradient id="SVGID_32_" gradientUnits="userSpaceOnUse" x1="1307.3561" y1="966.9802" x2="1293.6111" y2="1141.7368">
			<stop  offset="1.036270e-02" style="stop-color:#B0BD24"/>
			<stop  offset="1" style="stop-color:#467550"/>
		</linearGradient>
		<polygon class="st31" points="2245.3,1029.2 361,1011.2 2245.3,950.6 		"/>
		<linearGradient id="SVGID_33_" gradientUnits="userSpaceOnUse" x1="-167.3327" y1="1027.0571" x2="-854.5731" y2="1203.7765">
			<stop  offset="1.036270e-02" style="stop-color:#B0BD24"/>
			<stop  offset="1" style="stop-color:#467550"/>
		</linearGradient>
		<path class="st32" d="M1193.6,984.4l-1984-104.5v131.3C-790.4,1011.2,365.1,1045.7,1193.6,984.4z"/>
		<linearGradient id="SVGID_34_" gradientUnits="userSpaceOnUse" x1="300.217" y1="715.0129" x2="-65.0058" y2="1335.4988">
			<stop  offset="0" style="stop-color:#9E9A34"/>
			<stop  offset="1" style="stop-color:#3D6A6E"/>
		</linearGradient>
		<path class="st33" d="M890.7,1199.7H-790.4V1080c18.3-30,58.9-52.1,142.1-45.6c77.2,6.1,114.7-4.7,137.7-23.1
			c42.6-34,35.9-94.3,140.3-123.2c129.2-35.9,94.7,55.9,305,116.2c9.4,2.7,18.3,5,26.8,7c68.9,16.4,107.5,11.1,134.3,0
			c43.3-18.1,55.7-51.5,116-32.9c33.9,10.5,56.7,21.7,73.3,32.9c67.9,45.5,31.9,90.3,221.2,83.4C741.9,1086,847,1137,890.7,1199.7z"
			/>
		<linearGradient id="SVGID_35_" gradientUnits="userSpaceOnUse" x1="1647.4905" y1="1251.8842" x2="-543.8112" y2="1451.0923">
			<stop  offset="1.036270e-02" style="stop-color:#B0BD24"/>
			<stop  offset="1" style="stop-color:#467550"/>
		</linearGradient>
		<polygon class="st34" points="1303.2,1366.9 -0.3,1366.9 -538.3,1366.9 431.7,1406.2 		"/>
		<linearGradient id="SVGID_36_" gradientUnits="userSpaceOnUse" x1="2288.8943" y1="1067.1178" x2="1556.3834" y2="1054.2537">
			<stop  offset="0" style="stop-color:#9E9A34"/>
			<stop  offset="1" style="stop-color:#3D6A6E"/>
		</linearGradient>
		<path class="st35" d="M1727.6,1130.4c0,0-49.7-75,39.3-61.9c89,13.1,2.6-70.7,89-81.2c86.4-10.5,128.3,102.5,185.9,52.5
			c57.6-49.9,91.6-70.9,117.8-10.7c26.2,60.2,85.7-18,85.7-18v119.2H1727.6z"/>
		<path class="st36" d="M122.6,1488.2c0,0,37.9-32,84.2-31.6c46.2,0.4,73.9,31.6,73.9,31.6H122.6z"/>
		<linearGradient id="SVGID_37_" gradientUnits="userSpaceOnUse" x1="1610.0634" y1="1502.7227" x2="1999.3026" y2="2193.0715">
			<stop  offset="1.036270e-02" style="stop-color:#B0BD24"/>
			<stop  offset="1" style="stop-color:#467550"/>
		</linearGradient>
		<path class="st37" d="M2245.3,1103.8v400.6H750.8c0,0,81.9-110.1,265.8-187c119.1-49.8,280.8-85.7,490.9-68.7
			c220.9,17.9,385.3-3.8,502.1-35.4C2175.2,1168.5,2245.3,1103.8,2245.3,1103.8z"/>
		<linearGradient id="SVGID_38_" gradientUnits="userSpaceOnUse" x1="1140.356" y1="1380.1514" x2="475.714" y2="1706.9639">
			<stop  offset="1.036270e-02" style="stop-color:#B0BD24"/>
			<stop  offset="1" style="stop-color:#467550"/>
		</linearGradient>
		<path class="st38" d="M1143,1504.3H750.8c0,0,81.9-110.1,265.8-187C1084,1355.7,1132.1,1424.1,1143,1504.3z"/>
		<linearGradient id="SVGID_39_" gradientUnits="userSpaceOnUse" x1="1668.9716" y1="1175.9257" x2="2355.6436" y2="2226.1304">
			<stop  offset="1.036270e-02" style="stop-color:#B0BD24"/>
			<stop  offset="1" style="stop-color:#467550"/>
		</linearGradient>
		<path class="st39" d="M2110.1,1504.3h-465.4c29.3-100.9,122.4-174.6,232.7-174.6C1987.7,1329.7,2080.9,1403.5,2110.1,1504.3z"/>
		<linearGradient id="SVGID_40_" gradientUnits="userSpaceOnUse" x1="2071.9788" y1="1545.3086" x2="2240.8928" y2="803.5564">
			<stop  offset="1.036270e-02" style="stop-color:#B0BD24"/>
			<stop  offset="1" style="stop-color:#467550"/>
		</linearGradient>
		<path class="st40" d="M2245.3,1103.8v286.8c-100.7-24.4-185.5-89.7-235.9-177.3C2175.2,1168.5,2245.3,1103.8,2245.3,1103.8z"/>
		<path class="st41" d="M-790.4,605.2c0,0,724.1-113.3,1131.1,342.9c407,456.2,1494.4,474.9,1663.2,556.2l-2794.3,0V605.2z"/>
		<g>
			
				<linearGradient id="SVGID_41_" gradientUnits="userSpaceOnUse" x1="2223.7393" y1="208.0739" x2="2447.9832" y2="208.0739" gradientTransform="matrix(0.8442 0.2975 -0.2312 0.6561 -1789.7701 96.1563)">
				<stop  offset="0" style="stop-color:#3076A1"/>
				<stop  offset="1" style="stop-color:#639C38"/>
			</linearGradient>
			<path class="st42" d="M98.8,1103.8c0,0,28.6-12.6,36.7-40c8.1-27.4,13.3-65.2,35.5-74.9c22.2-9.7,68.8-35.7,70.2-68.2
				c1.4-32.5-68.8-71-52.7-79.1c16.2-8.1,45.3-29.6,16.6-47.2c-28.7-17.6-43.9-20.7-51.5-44.5c-7.6-23.8-35.3-36-41.4,0.2
				c-6.1,36.2-23.2,44.5-19.5,74.7c3.7,30.2,21.1,58.6-27.3,65.3c-48.4,6.7-30.8,39.5-20,63.3c10.8,23.8,13.5,117.9,16.8,134.3
				C65.4,1104.1,79,1114.8,98.8,1103.8z"/>
			
				<linearGradient id="SVGID_42_" gradientUnits="userSpaceOnUse" x1="2305.6108" y1="264.9144" x2="2660.9866" y2="264.9144" gradientTransform="matrix(0.8442 0.2975 -0.2312 0.6561 -1789.7701 96.1563)">
				<stop  offset="0" style="stop-color:#3076A1"/>
				<stop  offset="1" style="stop-color:#639C38"/>
			</linearGradient>
			<path class="st43" d="M86.6,1120.2c0,0,65.7-24.8,86.2-20.4c20.5,4.5,58.5,15.3,73.5-1.9c15-17.1,27.1-74.9,75.3-68.5
				c48.1,6.5,65.9-5,63.1-33.8c-2.8-28.8,75.2-72.4,61.2-88.2c-14.1-15.8-120.4,13.3-152,24.4c-31.6,11.1-62.2-14.2-79.7,16.5
				c-17.5,30.7-75.8,56.9-95.2,51.6c-19.4-5.3-35.1-8-39.8,21.1c-4.8,29.1-24.4,47-29.6,65.1C44.4,1104.3,37.5,1117.4,86.6,1120.2z"
				/>
			
				<linearGradient id="SVGID_43_" gradientUnits="userSpaceOnUse" x1="2122.8281" y1="268.528" x2="2350.4175" y2="268.528" gradientTransform="matrix(0.8442 0.2975 -0.2312 0.6561 -1789.7701 96.1563)">
				<stop  offset="0" style="stop-color:#3076A1"/>
				<stop  offset="1" style="stop-color:#639C38"/>
			</linearGradient>
			<path class="st44" d="M37.8,784.7c-2.3-17.8-33-26-37.8-3.7c-4.8,22.3,6.4,51.9-35.7,77.9c-42.1,26,22.3,56.7,38,87.8
				c15.8,31.2,13,65.4,26.1,92.4c13.1,27,10.1,79.6,32.8,67.6c22.8-12,15.4-40.6,28.5-72c13.1-31.4,57-38.7,27.5-72.3
				c-29.4-33.6-64.1-52.9-35.6-95.2C94.4,848.5,45.1,840,37.8,784.7z"/>
			
				<linearGradient id="SVGID_44_" gradientUnits="userSpaceOnUse" x1="460.6507" y1="2642.9661" x2="500.0387" y2="2417.666" gradientTransform="matrix(0.8729 6.130000e-02 6.400000e-02 0.7178 -392.4714 -759.711)">
				<stop  offset="0" style="stop-color:#3076A1"/>
				<stop  offset="1" style="stop-color:#639C38"/>
			</linearGradient>
			<path class="st45" d="M46.6,1102.3c0,0,22.7-21.3,11.1-67c-11.6-45.7-33.6-47.1,35.9-54.6c69.5-7.5,42-118.1,96.6-111.6
				c54.6,6.4,149.8-123.3,181.7-91.2c32,32-44.4,85.2-24.5,116.2c20,31,14,59.5-50.5,61.5c-64.6,2,2.9,120.2-83,118.7
				C128,1072.9,114.6,1181.2,46.6,1102.3z"/>
		</g>
		<g>
			
				<linearGradient id="SVGID_45_" gradientUnits="userSpaceOnUse" x1="2151.6387" y1="529.7213" x2="2375.8821" y2="529.7213" gradientTransform="matrix(0.8442 0.2975 -0.2312 0.6561 -1789.7701 96.1563)">
				<stop  offset="0" style="stop-color:#3076A1"/>
				<stop  offset="1" style="stop-color:#639C38"/>
			</linearGradient>
			<path class="st46" d="M-36.5,1293.4c0,0,28.6-12.6,36.7-40c8.1-27.4,13.3-65.2,35.5-74.9s68.8-35.7,70.2-68.2
				c1.4-32.5-68.8-71-52.7-79.1c16.2-8.1,45.3-29.6,16.6-47.2c-28.7-17.6-43.9-20.7-51.5-44.5s-35.3-36-41.4,0.2
				c-6.1,36.2-23.2,44.5-19.5,74.7c3.7,30.2,21.1,58.6-27.3,65.3c-48.4,6.7-30.8,39.5-20,63.3c10.8,23.8,13.5,117.9,16.8,134.3
				C-69.8,1293.7-56.3,1304.4-36.5,1293.4z"/>
			
				<linearGradient id="SVGID_46_" gradientUnits="userSpaceOnUse" x1="2233.5103" y1="586.562" x2="2588.886" y2="586.562" gradientTransform="matrix(0.8442 0.2975 -0.2312 0.6561 -1789.7701 96.1563)">
				<stop  offset="0" style="stop-color:#3076A1"/>
				<stop  offset="1" style="stop-color:#639C38"/>
			</linearGradient>
			<path class="st47" d="M-48.7,1309.8c0,0,65.7-24.8,86.2-20.4c20.5,4.5,58.5,15.3,73.5-1.9c15-17.1,27.1-74.9,75.3-68.5
				c48.1,6.5,65.9-5,63.1-33.8c-2.8-28.8,75.2-72.4,61.2-88.2c-14.1-15.8-120.4,13.3-152,24.4c-31.6,11.1-62.2-14.2-79.7,16.5
				c-17.5,30.7-75.8,56.9-95.2,51.6c-19.4-5.3-35.1-8-39.8,21.1c-4.8,29.1-24.4,47-29.6,65.1C-90.9,1293.9-97.7,1307-48.7,1309.8z"
				/>
			
				<linearGradient id="SVGID_47_" gradientUnits="userSpaceOnUse" x1="2050.7278" y1="590.1756" x2="2278.3169" y2="590.1756" gradientTransform="matrix(0.8442 0.2975 -0.2312 0.6561 -1789.7701 96.1563)">
				<stop  offset="0" style="stop-color:#3076A1"/>
				<stop  offset="1" style="stop-color:#639C38"/>
			</linearGradient>
			<path class="st48" d="M-97.4,974.3c-2.3-17.8-33-26-37.8-3.7c-4.8,22.3,6.4,51.9-35.7,77.9c-42.1,26,22.3,56.7,38,87.8
				c15.8,31.2,13,65.4,26.1,92.4c13.1,27,10.1,79.6,32.8,67.6c22.8-12,15.4-40.6,28.5-72c13.1-31.4,57-38.7,27.5-72.3
				c-29.4-33.6-64.1-52.9-35.6-95.2C-40.8,1038.1-90.2,1029.6-97.4,974.3z"/>
			
				<linearGradient id="SVGID_48_" gradientUnits="userSpaceOnUse" x1="285.2647" y1="2922.061" x2="324.6528" y2="2696.7607" gradientTransform="matrix(0.8729 6.130000e-02 6.400000e-02 0.7178 -392.4714 -759.711)">
				<stop  offset="0" style="stop-color:#3076A1"/>
				<stop  offset="1" style="stop-color:#639C38"/>
			</linearGradient>
			<path class="st49" d="M-88.6,1291.9c0,0,22.7-21.3,11.1-67c-11.6-45.7-33.6-47.1,35.9-54.6c69.5-7.5,42-118.1,96.6-111.6
				c54.6,6.4,149.8-123.3,181.7-91.2c32,32-44.4,85.2-24.5,116.2c20,31,14,59.5-50.5,61.5c-64.6,2,2.9,120.2-83,118.7
				C-7.3,1262.5-20.6,1370.8-88.6,1291.9z"/>
		</g>
		<path class="st50" d="M652.4,1445.7c-62.6-16.3-186.5-50.2-302.2-72.3c-201-38.4-448.6-52.1-574.5-34.2
			c-198.3,28.2-403.1-104.5-240-188c80.6-41.3,514.4-112.7,836.2-132.7c0,0,0,0,0.1,0c172.9-10.7,313.5-6.6,349.6,25
			c145,126.7,223.3,57.4,488.1,224.2C1474.6,1434.5,849.7,1497,652.4,1445.7z"/>
		
			<linearGradient id="SVGID_49_" gradientUnits="userSpaceOnUse" x1="-974.0305" y1="1497.0488" x2="480.2382" y2="1129.1001" gradientTransform="matrix(1 -1.700000e-03 1.700000e-03 1 7.402 -8.0421)">
			<stop  offset="0" style="stop-color:#3076A1"/>
			<stop  offset="1" style="stop-color:#639C38"/>
		</linearGradient>
		<path class="st51" d="M394.6,1079.3c-66,59.9-207.5,60.1-104.5,132.1c103,71.9,127.5,140.9,60.2,162.1c0,0,0,0,0,0
			c-201-38.4-609.9-42.6-735.8-24.7c-198.3,28.2-241.8-114-78.7-197.5c80.6-41.3,514.4-112.7,836.2-132.7c0,0,0,0,0.1,0
			C375.2,1018.5,459.4,1020.5,394.6,1079.3z"/>
		<path class="st52" d="M485,1028.6c6.9,1.3,33.3,4,45.5-28.6c0,0-7.2,7.1-18.2,3.1c-7.8-2.9-19.4,1.8-25.3,11.4
			c1.9-20.7-2-34.9-2.7-53.8c-0.1-2.9-0.1-5.5-0.1-7.9c4.7-0.9,33.3-7.6,31.5-44.5c0,0-3.8,9.4-15.5,10c-9.3,0.5-19.1,11.4-19,24.3
			c-1.5,4-2.6,8.8-2.7,15.6c-0.1,9.2,2.2,18.6,3.7,28.9c-1.3-2.7-2.8-5.4-5-8.1c-11.8-14.6-24.7-16.3-27.2-20.1
			c0,0-4.6,16.6,13.9,27.8c11.3,6.8,16.8,13.3,19.3,17.3c-0.3,7.3-1.6,15.2-5,23.8c-11.4,29.1,4.3,59.6,4.3,59.6l10.1-6.2
			c0,0-15.3-17.6-8.3-49.1C484.7,1030.9,484.8,1029.8,485,1028.6z"/>
		<path class="st53" d="M403.5,1102.4c0,0,75.5-84,166.5-0.3L403.5,1102.4z"/>
		<path class="st52" d="M564.9,1117.2c6.9,1.3,33.3,4,45.5-28.6c0,0-7.2,7.1-18.2,3.1c-7.8-2.9-19.4,1.8-25.3,11.4
			c1.9-20.7-2-34.9-2.7-53.8c-0.1-2.9-0.1-5.5-0.1-7.9c4.7-0.9,33.3-7.6,31.5-44.5c0,0-3.8,9.4-15.5,10c-9.3,0.5-19.1,11.4-19,24.3
			c-1.5,4-2.6,8.8-2.7,15.6c-0.1,9.2,2.2,18.6,3.7,28.9c-1.3-2.7-2.8-5.4-5-8.1c-11.8-14.6-24.7-16.3-27.2-20.1
			c0,0-4.6,16.6,13.9,27.8c11.3,6.8,16.8,13.3,19.3,17.3c-0.3,7.3-1.6,15.2-5,23.8c-11.4,29.1,4.3,59.6,4.3,59.6l10.1-6.2
			c0,0-15.3-17.6-8.3-49.1C564.5,1119.5,564.7,1118.4,564.9,1117.2z"/>
		<path class="st53" d="M479.6,1186.5c0,0,75.5-84,166.5-0.3L479.6,1186.5z"/>
		<path class="st52" d="M710.5,1316.8c6.9,1.3,33.3,4,45.5-28.6c0,0-7.2,7.1-18.2,3.1c-7.8-2.9-19.4,1.8-25.3,11.4
			c1.9-20.7-2-34.9-2.7-53.8c-0.1-2.9-0.1-5.5-0.1-7.9c4.7-0.9,33.3-7.6,31.5-44.5c0,0-3.8,9.4-15.5,10c-9.3,0.5-19.1,11.4-19,24.3
			c-1.5,4-2.6,8.8-2.7,15.6c-0.1,9.2,2.2,18.6,3.7,28.9c-1.3-2.7-2.8-5.4-5-8.1c-11.8-14.6-24.7-16.3-27.2-20.1
			c0,0-4.6,16.6,13.9,27.8c11.3,6.8,16.8,13.3,19.3,17.3c-0.3,7.3-1.6,15.2-5,23.8c-11.4,29.1,4.3,59.6,4.3,59.6l10.1-6.2
			c0,0-15.3-17.6-8.3-49.1C710.1,1319.1,710.3,1318,710.5,1316.8z"/>
		<path class="st53" d="M625.2,1386.1c0,0,75.5-84,166.5-0.3L625.2,1386.1z"/>
		<path class="st52" d="M912.1,1245.4c6.9,1.3,33.3,4,45.5-28.6c0,0-7.2,7.1-18.2,3.1c-7.8-2.9-19.4,1.8-25.3,11.4
			c1.9-20.7-2-34.9-2.7-53.8c-0.1-2.9-0.1-5.5-0.1-7.9c4.7-0.9,33.3-7.6,31.5-44.5c0,0-3.8,9.4-15.5,10c-9.3,0.5-19.1,11.4-19,24.3
			c-1.5,4-2.6,8.8-2.7,15.6c-0.1,9.2,2.2,18.6,3.7,28.9c-1.3-2.7-2.8-5.4-5-8.1c-11.8-14.6-24.7-16.3-27.2-20.1
			c0,0-4.6,16.6,13.9,27.8c11.3,6.8,16.8,13.3,19.3,17.3c-0.3,7.3-1.6,15.2-5,23.8c-11.4,29.1,4.3,59.6,4.3,59.6l10.1-6.2
			c0,0-15.3-17.6-8.3-49.1C911.7,1247.7,911.8,1246.6,912.1,1245.4z"/>
		<path class="st53" d="M826.8,1314.7c0,0,75.5-84,166.5-0.3L826.8,1314.7z"/>
	</g>
</g>
</svg>
